<mxfile host="app.diagrams.net" agent="Mozilla/5.0 (Windows NT 10.0; Win64; x64) AppleWebKit/537.36 (KHTML, like Gecko) Chrome/136.0.0.0 Safari/537.36" version="27.0.6">
  <diagram name="PÃ¡gina-1" id="H61y-HsvbLB1ARUX07zu">
    <mxGraphModel dx="2431" dy="1305" grid="1" gridSize="10" guides="1" tooltips="1" connect="1" arrows="1" fold="1" page="1" pageScale="1" pageWidth="827" pageHeight="1169" math="0" shadow="0">
      <root>
        <mxCell id="0" />
        <mxCell id="1" parent="0" />
        <mxCell id="L06JyuytahHHtOBjtd7x-127" value="" style="group" vertex="1" connectable="0" parent="1">
          <mxGeometry x="60" y="530" width="200" height="390" as="geometry" />
        </mxCell>
        <mxCell id="L06JyuytahHHtOBjtd7x-1" value="" style="verticalLabelPosition=bottom;verticalAlign=top;html=1;shadow=0;dashed=0;strokeWidth=1;shape=mxgraph.android.phone2;strokeColor=#996185;movable=1;resizable=1;rotatable=1;deletable=1;editable=1;locked=0;connectable=1;fillColor=#e6d0de;gradientColor=#d5739d;" vertex="1" parent="L06JyuytahHHtOBjtd7x-127">
          <mxGeometry width="200" height="390" as="geometry" />
        </mxCell>
        <mxCell id="L06JyuytahHHtOBjtd7x-2" value="BELLA" style="text;html=1;align=center;verticalAlign=middle;resizable=1;points=[];autosize=1;strokeColor=none;fillColor=none;movable=1;rotatable=1;deletable=1;editable=1;locked=0;connectable=1;" vertex="1" parent="L06JyuytahHHtOBjtd7x-127">
          <mxGeometry x="10" y="40" width="60" height="30" as="geometry" />
        </mxCell>
        <mxCell id="L06JyuytahHHtOBjtd7x-3" value="Perro&lt;div&gt;Labrador&lt;/div&gt;" style="text;html=1;align=left;verticalAlign=middle;resizable=1;points=[];autosize=1;strokeColor=none;fillColor=none;movable=1;rotatable=1;deletable=1;editable=1;locked=0;connectable=1;" vertex="1" parent="L06JyuytahHHtOBjtd7x-127">
          <mxGeometry x="20" y="60" width="70" height="40" as="geometry" />
        </mxCell>
        <mxCell id="L06JyuytahHHtOBjtd7x-5" value="" style="endArrow=none;html=1;rounded=0;exitX=0.05;exitY=0.256;exitDx=0;exitDy=0;exitPerimeter=0;entryX=0.958;entryY=0.254;entryDx=0;entryDy=0;entryPerimeter=0;movable=1;resizable=1;rotatable=1;deletable=1;editable=1;locked=0;connectable=1;" edge="1" parent="L06JyuytahHHtOBjtd7x-127" source="L06JyuytahHHtOBjtd7x-1" target="L06JyuytahHHtOBjtd7x-1">
          <mxGeometry width="50" height="50" relative="1" as="geometry">
            <mxPoint x="260" y="220" as="sourcePoint" />
            <mxPoint x="140" y="150" as="targetPoint" />
          </mxGeometry>
        </mxCell>
        <mxCell id="L06JyuytahHHtOBjtd7x-6" value="HISTORIAL MEDICO" style="text;html=1;align=center;verticalAlign=middle;resizable=1;points=[];autosize=1;strokeColor=none;fillColor=none;movable=1;rotatable=1;deletable=1;editable=1;locked=0;connectable=1;" vertex="1" parent="L06JyuytahHHtOBjtd7x-127">
          <mxGeometry x="30" y="110" width="140" height="30" as="geometry" />
        </mxCell>
        <mxCell id="L06JyuytahHHtOBjtd7x-7" value="Vacuna&lt;div&gt;01/05/2025&lt;/div&gt;" style="rounded=0;whiteSpace=wrap;html=1;fillColor=none;align=left;movable=1;resizable=1;rotatable=1;deletable=1;editable=1;locked=0;connectable=1;" vertex="1" parent="L06JyuytahHHtOBjtd7x-127">
          <mxGeometry x="20" y="150" width="160" height="60" as="geometry" />
        </mxCell>
        <mxCell id="L06JyuytahHHtOBjtd7x-9" value="Tratamiento&lt;br&gt;&lt;div&gt;01/05/2025&lt;/div&gt;" style="rounded=0;whiteSpace=wrap;html=1;fillColor=none;align=left;movable=1;resizable=1;rotatable=1;deletable=1;editable=1;locked=0;connectable=1;" vertex="1" parent="L06JyuytahHHtOBjtd7x-127">
          <mxGeometry x="20" y="230" width="160" height="60" as="geometry" />
        </mxCell>
        <mxCell id="L06JyuytahHHtOBjtd7x-128" value="" style="group" vertex="1" connectable="0" parent="1">
          <mxGeometry x="320" y="530" width="200" height="390" as="geometry" />
        </mxCell>
        <mxCell id="L06JyuytahHHtOBjtd7x-10" value="" style="verticalLabelPosition=bottom;verticalAlign=top;html=1;shadow=0;dashed=0;strokeWidth=1;shape=mxgraph.android.phone2;strokeColor=#996185;fillColor=#e6d0de;gradientColor=#d5739d;" vertex="1" parent="L06JyuytahHHtOBjtd7x-128">
          <mxGeometry width="200" height="390" as="geometry" />
        </mxCell>
        <mxCell id="L06JyuytahHHtOBjtd7x-11" value="RECORDATORIOS" style="text;html=1;align=center;verticalAlign=middle;resizable=0;points=[];autosize=1;strokeColor=none;fillColor=none;" vertex="1" parent="L06JyuytahHHtOBjtd7x-128">
          <mxGeometry x="35" y="50" width="130" height="30" as="geometry" />
        </mxCell>
        <mxCell id="L06JyuytahHHtOBjtd7x-15" value="REVISION&lt;div&gt;01/05/2025&lt;span style=&quot;white-space: pre;&quot;&gt;&#x9;&lt;/span&gt;&amp;nbsp; &amp;nbsp; &amp;nbsp; Pendiente&lt;/div&gt;" style="rounded=0;whiteSpace=wrap;html=1;fillColor=none;align=left;" vertex="1" parent="L06JyuytahHHtOBjtd7x-128">
          <mxGeometry x="20" y="144" width="160" height="60" as="geometry" />
        </mxCell>
        <mxCell id="L06JyuytahHHtOBjtd7x-16" value="VACUNACION&lt;div&gt;01/05/2025&lt;span style=&quot;white-space: pre;&quot;&gt;&#x9;&lt;/span&gt;&amp;nbsp; &amp;nbsp; &amp;nbsp; Realizado&lt;/div&gt;" style="rounded=0;whiteSpace=wrap;html=1;fillColor=none;align=left;" vertex="1" parent="L06JyuytahHHtOBjtd7x-128">
          <mxGeometry x="20" y="230" width="160" height="60" as="geometry" />
        </mxCell>
        <mxCell id="L06JyuytahHHtOBjtd7x-18" value="" style="endArrow=none;html=1;rounded=0;exitX=0.05;exitY=0.256;exitDx=0;exitDy=0;exitPerimeter=0;entryX=0.958;entryY=0.254;entryDx=0;entryDy=0;entryPerimeter=0;movable=1;resizable=1;rotatable=1;deletable=1;editable=1;locked=0;connectable=1;" edge="1" parent="L06JyuytahHHtOBjtd7x-128">
          <mxGeometry width="50" height="50" relative="1" as="geometry">
            <mxPoint x="9" y="86" as="sourcePoint" />
            <mxPoint x="191" y="85" as="targetPoint" />
          </mxGeometry>
        </mxCell>
        <mxCell id="L06JyuytahHHtOBjtd7x-129" value="" style="group" vertex="1" connectable="0" parent="1">
          <mxGeometry x="580" y="530" width="200" height="390" as="geometry" />
        </mxCell>
        <mxCell id="L06JyuytahHHtOBjtd7x-19" value="" style="verticalLabelPosition=bottom;verticalAlign=top;html=1;shadow=0;dashed=0;strokeWidth=1;shape=mxgraph.android.phone2;strokeColor=#996185;fillColor=#e6d0de;gradientColor=#d5739d;" vertex="1" parent="L06JyuytahHHtOBjtd7x-129">
          <mxGeometry width="200" height="390" as="geometry" />
        </mxCell>
        <mxCell id="L06JyuytahHHtOBjtd7x-20" value="VETERINARIOS CERCANOS" style="text;html=1;align=center;verticalAlign=middle;resizable=0;points=[];autosize=1;strokeColor=none;fillColor=none;" vertex="1" parent="L06JyuytahHHtOBjtd7x-129">
          <mxGeometry x="10" y="50" width="180" height="30" as="geometry" />
        </mxCell>
        <mxCell id="L06JyuytahHHtOBjtd7x-21" value="CLINICA VETERINARIA&lt;div&gt;Direccion&lt;/div&gt;&lt;div&gt;Av. Siempre viva 123&lt;/div&gt;" style="rounded=0;whiteSpace=wrap;html=1;fillColor=none;align=left;" vertex="1" parent="L06JyuytahHHtOBjtd7x-129">
          <mxGeometry x="20" y="144" width="160" height="60" as="geometry" />
        </mxCell>
        <mxCell id="L06JyuytahHHtOBjtd7x-23" value="" style="endArrow=none;html=1;rounded=0;exitX=0.05;exitY=0.256;exitDx=0;exitDy=0;exitPerimeter=0;entryX=0.958;entryY=0.254;entryDx=0;entryDy=0;entryPerimeter=0;movable=1;resizable=1;rotatable=1;deletable=1;editable=1;locked=0;connectable=1;" edge="1" parent="L06JyuytahHHtOBjtd7x-129">
          <mxGeometry width="50" height="50" relative="1" as="geometry">
            <mxPoint x="9" y="88" as="sourcePoint" />
            <mxPoint x="191" y="87" as="targetPoint" />
          </mxGeometry>
        </mxCell>
        <mxCell id="L06JyuytahHHtOBjtd7x-24" value="" style="sketch=0;html=1;aspect=fixed;shadow=0;verticalAlign=top;labelPosition=center;verticalLabelPosition=bottom;shape=mxgraph.gcp2.maps_api" vertex="1" parent="L06JyuytahHHtOBjtd7x-129">
          <mxGeometry x="158" y="181" width="7.1" height="11.64" as="geometry" />
        </mxCell>
        <mxCell id="L06JyuytahHHtOBjtd7x-25" value="CLINICA VETERINARIA 2&lt;div&gt;Direccion&lt;/div&gt;&lt;div&gt;Av. Siempre viva 777&lt;/div&gt;" style="rounded=0;whiteSpace=wrap;html=1;fillColor=none;align=left;" vertex="1" parent="L06JyuytahHHtOBjtd7x-129">
          <mxGeometry x="20" y="230" width="160" height="60" as="geometry" />
        </mxCell>
        <mxCell id="L06JyuytahHHtOBjtd7x-26" value="" style="sketch=0;html=1;aspect=fixed;shadow=0;verticalAlign=top;labelPosition=center;verticalLabelPosition=bottom;shape=mxgraph.gcp2.maps_api" vertex="1" parent="L06JyuytahHHtOBjtd7x-129">
          <mxGeometry x="160" y="266" width="7.1" height="11.64" as="geometry" />
        </mxCell>
        <mxCell id="L06JyuytahHHtOBjtd7x-130" value="" style="group" vertex="1" connectable="0" parent="1">
          <mxGeometry x="580" y="100" width="200" height="390" as="geometry" />
        </mxCell>
        <mxCell id="L06JyuytahHHtOBjtd7x-39" value="" style="verticalLabelPosition=bottom;verticalAlign=top;html=1;shadow=0;dashed=0;strokeWidth=1;shape=mxgraph.android.phone2;strokeColor=#996185;fillColor=#e6d0de;gradientColor=#d5739d;" vertex="1" parent="L06JyuytahHHtOBjtd7x-130">
          <mxGeometry width="200" height="390" as="geometry" />
        </mxCell>
        <mxCell id="L06JyuytahHHtOBjtd7x-40" value="CALENDARIO" style="text;html=1;align=center;verticalAlign=middle;resizable=0;points=[];autosize=1;strokeColor=none;fillColor=none;" vertex="1" parent="L06JyuytahHHtOBjtd7x-130">
          <mxGeometry x="50" y="50" width="100" height="30" as="geometry" />
        </mxCell>
        <mxCell id="L06JyuytahHHtOBjtd7x-42" value="" style="endArrow=none;html=1;rounded=0;exitX=0.05;exitY=0.256;exitDx=0;exitDy=0;exitPerimeter=0;entryX=0.958;entryY=0.254;entryDx=0;entryDy=0;entryPerimeter=0;movable=1;resizable=1;rotatable=1;deletable=1;editable=1;locked=0;connectable=1;" edge="1" parent="L06JyuytahHHtOBjtd7x-130">
          <mxGeometry width="50" height="50" relative="1" as="geometry">
            <mxPoint x="9" y="80" as="sourcePoint" />
            <mxPoint x="191" y="79" as="targetPoint" />
          </mxGeometry>
        </mxCell>
        <mxCell id="L06JyuytahHHtOBjtd7x-43" value="" style="sketch=0;html=1;aspect=fixed;shadow=0;verticalAlign=top;labelPosition=center;verticalLabelPosition=bottom;shape=mxgraph.gcp2.maps_api" vertex="1" parent="L06JyuytahHHtOBjtd7x-130">
          <mxGeometry x="158" y="181" width="7.1" height="11.64" as="geometry" />
        </mxCell>
        <mxCell id="L06JyuytahHHtOBjtd7x-61" value="&lt;span style=&quot;color: rgba(0, 0, 0, 0); font-family: monospace; font-size: 0px; text-align: start;&quot;&gt;%3CmxGraphModel%3E%3Croot%3E%3CmxCell%20id%3D%220%22%2F%3E%3CmxCell%20id%3D%221%22%20parent%3D%220%22%2F%3E%3CmxCell%20id%3D%222%22%20value%3D%223%22%20style%3D%22strokeWidth%3D1%3Bshadow%3D0%3Bdashed%3D0%3Balign%3Dcenter%3Bhtml%3D1%3Bshape%3Dmxgraph.mockup.forms.rrect%3BrSize%3D0%3BstrokeColor%3D%23999999%3BfontColor%3D%23999999%3BfillColor%3D%23ddeeff%3B%22%20vertex%3D%221%22%20parent%3D%221%22%3E%3CmxGeometry%20x%3D%22713.75%22%20y%3D%22328.9714285714286%22%20width%3D%2222.5%22%20height%3D%2221.71428571428572%22%20as%3D%22geometry%22%2F%3E%3C%2FmxCell%3E%3C%2Froot%3E%3C%2FmxGraphModel%3E&lt;/span&gt;" style="strokeWidth=1;shadow=0;dashed=0;align=center;html=1;shape=mxgraph.mockup.forms.rrect;rSize=5;strokeColor=#999999;fillColor=#ffffff;" vertex="1" parent="L06JyuytahHHtOBjtd7x-130">
          <mxGeometry x="10" y="91" width="180" height="190" as="geometry" />
        </mxCell>
        <mxCell id="L06JyuytahHHtOBjtd7x-62" value="October 2014" style="strokeWidth=1;shadow=0;dashed=0;align=center;html=1;shape=mxgraph.mockup.forms.anchor;fontColor=#999999;" vertex="1" parent="L06JyuytahHHtOBjtd7x-61">
          <mxGeometry x="33.75" y="8.685714285714287" width="112.5" height="21.71428571428572" as="geometry" />
        </mxCell>
        <mxCell id="L06JyuytahHHtOBjtd7x-63" value="&lt;" style="strokeWidth=1;shadow=0;dashed=0;align=center;html=1;shape=mxgraph.mockup.forms.rrect;rSize=4;strokeColor=#999999;fontColor=#008cff;fontSize=19;fontStyle=1;" vertex="1" parent="L06JyuytahHHtOBjtd7x-61">
          <mxGeometry x="9" y="8.685714285714287" width="28.125" height="21.71428571428572" as="geometry" />
        </mxCell>
        <mxCell id="L06JyuytahHHtOBjtd7x-64" value="&gt;" style="strokeWidth=1;shadow=0;dashed=0;align=center;html=1;shape=mxgraph.mockup.forms.rrect;rSize=4;strokeColor=#999999;fontColor=#008cff;fontSize=19;fontStyle=1;" vertex="1" parent="L06JyuytahHHtOBjtd7x-61">
          <mxGeometry x="142.875" y="8.685714285714287" width="28.125" height="21.71428571428572" as="geometry" />
        </mxCell>
        <mxCell id="L06JyuytahHHtOBjtd7x-65" value="Mo" style="strokeWidth=1;shadow=0;dashed=0;align=center;html=1;shape=mxgraph.mockup.forms.anchor;fontColor=#999999;" vertex="1" parent="L06JyuytahHHtOBjtd7x-61">
          <mxGeometry x="11.25" y="30.40000000000001" width="22.5" height="21.71428571428572" as="geometry" />
        </mxCell>
        <mxCell id="L06JyuytahHHtOBjtd7x-66" value="Tu" style="strokeWidth=1;shadow=0;dashed=0;align=center;html=1;shape=mxgraph.mockup.forms.anchor;fontColor=#999999;" vertex="1" parent="L06JyuytahHHtOBjtd7x-61">
          <mxGeometry x="33.75" y="30.40000000000001" width="22.5" height="21.71428571428572" as="geometry" />
        </mxCell>
        <mxCell id="L06JyuytahHHtOBjtd7x-67" value="We" style="strokeWidth=1;shadow=0;dashed=0;align=center;html=1;shape=mxgraph.mockup.forms.anchor;fontColor=#999999;" vertex="1" parent="L06JyuytahHHtOBjtd7x-61">
          <mxGeometry x="56.25" y="30.40000000000001" width="22.5" height="21.71428571428572" as="geometry" />
        </mxCell>
        <mxCell id="L06JyuytahHHtOBjtd7x-68" value="Th" style="strokeWidth=1;shadow=0;dashed=0;align=center;html=1;shape=mxgraph.mockup.forms.anchor;fontColor=#999999;" vertex="1" parent="L06JyuytahHHtOBjtd7x-61">
          <mxGeometry x="78.75" y="30.40000000000001" width="22.5" height="21.71428571428572" as="geometry" />
        </mxCell>
        <mxCell id="L06JyuytahHHtOBjtd7x-69" value="Fr" style="strokeWidth=1;shadow=0;dashed=0;align=center;html=1;shape=mxgraph.mockup.forms.anchor;fontColor=#999999;" vertex="1" parent="L06JyuytahHHtOBjtd7x-61">
          <mxGeometry x="101.25" y="30.40000000000001" width="22.5" height="21.71428571428572" as="geometry" />
        </mxCell>
        <mxCell id="L06JyuytahHHtOBjtd7x-70" value="Sa" style="strokeWidth=1;shadow=0;dashed=0;align=center;html=1;shape=mxgraph.mockup.forms.anchor;fontColor=#999999;" vertex="1" parent="L06JyuytahHHtOBjtd7x-61">
          <mxGeometry x="123.75" y="30.40000000000001" width="22.5" height="21.71428571428572" as="geometry" />
        </mxCell>
        <mxCell id="L06JyuytahHHtOBjtd7x-71" value="Su" style="strokeWidth=1;shadow=0;dashed=0;align=center;html=1;shape=mxgraph.mockup.forms.anchor;fontColor=#999999;" vertex="1" parent="L06JyuytahHHtOBjtd7x-61">
          <mxGeometry x="146.25" y="30.40000000000001" width="22.5" height="21.71428571428572" as="geometry" />
        </mxCell>
        <mxCell id="L06JyuytahHHtOBjtd7x-72" value="1" style="strokeWidth=1;shadow=0;dashed=0;align=center;html=1;shape=mxgraph.mockup.forms.rrect;rSize=0;strokeColor=#999999;fontColor=#999999;" vertex="1" parent="L06JyuytahHHtOBjtd7x-61">
          <mxGeometry x="11.25" y="52.11428571428572" width="22.5" height="21.71428571428572" as="geometry" />
        </mxCell>
        <mxCell id="L06JyuytahHHtOBjtd7x-73" value="2" style="strokeWidth=1;shadow=0;dashed=0;align=center;html=1;shape=mxgraph.mockup.forms.rrect;rSize=0;strokeColor=#999999;fontColor=#999999;" vertex="1" parent="L06JyuytahHHtOBjtd7x-61">
          <mxGeometry x="33.75" y="52.11428571428572" width="22.5" height="21.71428571428572" as="geometry" />
        </mxCell>
        <mxCell id="L06JyuytahHHtOBjtd7x-74" value="3" style="strokeWidth=1;shadow=0;dashed=0;align=center;html=1;shape=mxgraph.mockup.forms.rrect;rSize=0;strokeColor=#999999;fontColor=#999999;" vertex="1" parent="L06JyuytahHHtOBjtd7x-61">
          <mxGeometry x="56.25" y="52.11428571428572" width="22.5" height="21.71428571428572" as="geometry" />
        </mxCell>
        <mxCell id="L06JyuytahHHtOBjtd7x-75" value="4" style="strokeWidth=1;shadow=0;dashed=0;align=center;html=1;shape=mxgraph.mockup.forms.rrect;rSize=0;strokeColor=#999999;fontColor=#999999;" vertex="1" parent="L06JyuytahHHtOBjtd7x-61">
          <mxGeometry x="78.75" y="52.11428571428572" width="22.5" height="21.71428571428572" as="geometry" />
        </mxCell>
        <mxCell id="L06JyuytahHHtOBjtd7x-76" value="5" style="strokeWidth=1;shadow=0;dashed=0;align=center;html=1;shape=mxgraph.mockup.forms.rrect;rSize=0;strokeColor=#999999;fontColor=#999999;" vertex="1" parent="L06JyuytahHHtOBjtd7x-61">
          <mxGeometry x="101.25" y="52.11428571428572" width="22.5" height="21.71428571428572" as="geometry" />
        </mxCell>
        <mxCell id="L06JyuytahHHtOBjtd7x-77" value="6" style="strokeWidth=1;shadow=0;dashed=0;align=center;html=1;shape=mxgraph.mockup.forms.rrect;rSize=0;strokeColor=#999999;fontColor=#999999;" vertex="1" parent="L06JyuytahHHtOBjtd7x-61">
          <mxGeometry x="123.75" y="52.11428571428572" width="22.5" height="21.71428571428572" as="geometry" />
        </mxCell>
        <mxCell id="L06JyuytahHHtOBjtd7x-78" value="7" style="strokeWidth=1;shadow=0;dashed=0;align=center;html=1;shape=mxgraph.mockup.forms.rrect;rSize=0;strokeColor=#999999;fontColor=#999999;" vertex="1" parent="L06JyuytahHHtOBjtd7x-61">
          <mxGeometry x="146.25" y="52.11428571428572" width="22.5" height="21.71428571428572" as="geometry" />
        </mxCell>
        <mxCell id="L06JyuytahHHtOBjtd7x-79" value="8" style="strokeWidth=1;shadow=0;dashed=0;align=center;html=1;shape=mxgraph.mockup.forms.rrect;rSize=0;strokeColor=#999999;fontColor=#999999;" vertex="1" parent="L06JyuytahHHtOBjtd7x-61">
          <mxGeometry x="11.25" y="73.82857142857145" width="22.5" height="21.71428571428572" as="geometry" />
        </mxCell>
        <mxCell id="L06JyuytahHHtOBjtd7x-80" value="9" style="strokeWidth=1;shadow=0;dashed=0;align=center;html=1;shape=mxgraph.mockup.forms.rrect;rSize=0;strokeColor=#999999;fontColor=#999999;" vertex="1" parent="L06JyuytahHHtOBjtd7x-61">
          <mxGeometry x="33.75" y="73.82857142857145" width="22.5" height="21.71428571428572" as="geometry" />
        </mxCell>
        <mxCell id="L06JyuytahHHtOBjtd7x-81" value="10" style="strokeWidth=1;shadow=0;dashed=0;align=center;html=1;shape=mxgraph.mockup.forms.rrect;rSize=0;strokeColor=#999999;fontColor=#999999;" vertex="1" parent="L06JyuytahHHtOBjtd7x-61">
          <mxGeometry x="56.25" y="73.82857142857145" width="22.5" height="21.71428571428572" as="geometry" />
        </mxCell>
        <mxCell id="L06JyuytahHHtOBjtd7x-82" value="11" style="strokeWidth=1;shadow=0;dashed=0;align=center;html=1;shape=mxgraph.mockup.forms.rrect;rSize=0;strokeColor=#999999;fontColor=#999999;" vertex="1" parent="L06JyuytahHHtOBjtd7x-61">
          <mxGeometry x="78.75" y="73.82857142857145" width="22.5" height="21.71428571428572" as="geometry" />
        </mxCell>
        <mxCell id="L06JyuytahHHtOBjtd7x-83" value="12" style="strokeWidth=1;shadow=0;dashed=0;align=center;html=1;shape=mxgraph.mockup.forms.rrect;rSize=0;strokeColor=#999999;fontColor=#999999;" vertex="1" parent="L06JyuytahHHtOBjtd7x-61">
          <mxGeometry x="101.25" y="73.82857142857145" width="22.5" height="21.71428571428572" as="geometry" />
        </mxCell>
        <mxCell id="L06JyuytahHHtOBjtd7x-84" value="13" style="strokeWidth=1;shadow=0;dashed=0;align=center;html=1;shape=mxgraph.mockup.forms.rrect;rSize=0;strokeColor=#999999;fontColor=#999999;" vertex="1" parent="L06JyuytahHHtOBjtd7x-61">
          <mxGeometry x="123.75" y="73.82857142857145" width="22.5" height="21.71428571428572" as="geometry" />
        </mxCell>
        <mxCell id="L06JyuytahHHtOBjtd7x-85" value="14" style="strokeWidth=1;shadow=0;dashed=0;align=center;html=1;shape=mxgraph.mockup.forms.rrect;rSize=0;strokeColor=#999999;fontColor=#999999;" vertex="1" parent="L06JyuytahHHtOBjtd7x-61">
          <mxGeometry x="146.25" y="73.82857142857145" width="22.5" height="21.71428571428572" as="geometry" />
        </mxCell>
        <mxCell id="L06JyuytahHHtOBjtd7x-86" value="15" style="strokeWidth=1;shadow=0;dashed=0;align=center;html=1;shape=mxgraph.mockup.forms.rrect;rSize=0;strokeColor=#999999;fontColor=#999999;" vertex="1" parent="L06JyuytahHHtOBjtd7x-61">
          <mxGeometry x="11.25" y="95.54285714285717" width="22.5" height="21.71428571428572" as="geometry" />
        </mxCell>
        <mxCell id="L06JyuytahHHtOBjtd7x-87" value="16" style="strokeWidth=1;shadow=0;dashed=0;align=center;html=1;shape=mxgraph.mockup.forms.rrect;rSize=0;strokeColor=#999999;fontColor=#999999;" vertex="1" parent="L06JyuytahHHtOBjtd7x-61">
          <mxGeometry x="33.75" y="95.54285714285717" width="22.5" height="21.71428571428572" as="geometry" />
        </mxCell>
        <mxCell id="L06JyuytahHHtOBjtd7x-88" value="17" style="strokeWidth=1;shadow=0;dashed=0;align=center;html=1;shape=mxgraph.mockup.forms.rrect;rSize=0;strokeColor=#999999;fontColor=#999999;" vertex="1" parent="L06JyuytahHHtOBjtd7x-61">
          <mxGeometry x="56.25" y="95.54285714285717" width="22.5" height="21.71428571428572" as="geometry" />
        </mxCell>
        <mxCell id="L06JyuytahHHtOBjtd7x-89" value="18" style="strokeWidth=1;shadow=0;dashed=0;align=center;html=1;shape=mxgraph.mockup.forms.rrect;rSize=0;strokeColor=#999999;fontColor=#999999;" vertex="1" parent="L06JyuytahHHtOBjtd7x-61">
          <mxGeometry x="78.75" y="95.54285714285717" width="22.5" height="21.71428571428572" as="geometry" />
        </mxCell>
        <mxCell id="L06JyuytahHHtOBjtd7x-90" value="19" style="strokeWidth=1;shadow=0;dashed=0;align=center;html=1;shape=mxgraph.mockup.forms.rrect;rSize=0;strokeColor=#999999;fontColor=#999999;" vertex="1" parent="L06JyuytahHHtOBjtd7x-61">
          <mxGeometry x="101.25" y="95.54285714285717" width="22.5" height="21.71428571428572" as="geometry" />
        </mxCell>
        <mxCell id="L06JyuytahHHtOBjtd7x-91" value="20" style="strokeWidth=1;shadow=0;dashed=0;align=center;html=1;shape=mxgraph.mockup.forms.rrect;rSize=0;strokeColor=#999999;fontColor=#999999;" vertex="1" parent="L06JyuytahHHtOBjtd7x-61">
          <mxGeometry x="123.75" y="95.54285714285717" width="22.5" height="21.71428571428572" as="geometry" />
        </mxCell>
        <mxCell id="L06JyuytahHHtOBjtd7x-92" value="21" style="strokeWidth=1;shadow=0;dashed=0;align=center;html=1;shape=mxgraph.mockup.forms.rrect;rSize=0;strokeColor=#999999;fontColor=#999999;" vertex="1" parent="L06JyuytahHHtOBjtd7x-61">
          <mxGeometry x="146.25" y="95.54285714285717" width="22.5" height="21.71428571428572" as="geometry" />
        </mxCell>
        <mxCell id="L06JyuytahHHtOBjtd7x-93" value="22" style="strokeWidth=1;shadow=0;dashed=0;align=center;html=1;shape=mxgraph.mockup.forms.rrect;rSize=0;strokeColor=#999999;fontColor=#999999;" vertex="1" parent="L06JyuytahHHtOBjtd7x-61">
          <mxGeometry x="11.25" y="117.2571428571429" width="22.5" height="21.71428571428572" as="geometry" />
        </mxCell>
        <mxCell id="L06JyuytahHHtOBjtd7x-94" value="23" style="strokeWidth=1;shadow=0;dashed=0;align=center;html=1;shape=mxgraph.mockup.forms.rrect;rSize=0;strokeColor=#999999;fontColor=#999999;" vertex="1" parent="L06JyuytahHHtOBjtd7x-61">
          <mxGeometry x="33.75" y="117.2571428571429" width="22.5" height="21.71428571428572" as="geometry" />
        </mxCell>
        <mxCell id="L06JyuytahHHtOBjtd7x-95" value="25" style="strokeWidth=1;shadow=0;dashed=0;align=center;html=1;shape=mxgraph.mockup.forms.rrect;rSize=0;strokeColor=#999999;fontColor=#999999;" vertex="1" parent="L06JyuytahHHtOBjtd7x-61">
          <mxGeometry x="78.75" y="117.2571428571429" width="22.5" height="21.71428571428572" as="geometry" />
        </mxCell>
        <mxCell id="L06JyuytahHHtOBjtd7x-96" value="26" style="strokeWidth=1;shadow=0;dashed=0;align=center;html=1;shape=mxgraph.mockup.forms.rrect;rSize=0;strokeColor=#999999;fontColor=#999999;" vertex="1" parent="L06JyuytahHHtOBjtd7x-61">
          <mxGeometry x="101.25" y="117.2571428571429" width="22.5" height="21.71428571428572" as="geometry" />
        </mxCell>
        <mxCell id="L06JyuytahHHtOBjtd7x-97" value="27" style="strokeWidth=1;shadow=0;dashed=0;align=center;html=1;shape=mxgraph.mockup.forms.rrect;rSize=0;strokeColor=#999999;fontColor=#999999;" vertex="1" parent="L06JyuytahHHtOBjtd7x-61">
          <mxGeometry x="123.75" y="117.2571428571429" width="22.5" height="21.71428571428572" as="geometry" />
        </mxCell>
        <mxCell id="L06JyuytahHHtOBjtd7x-98" value="28" style="strokeWidth=1;shadow=0;dashed=0;align=center;html=1;shape=mxgraph.mockup.forms.rrect;rSize=0;strokeColor=#999999;fontColor=#999999;" vertex="1" parent="L06JyuytahHHtOBjtd7x-61">
          <mxGeometry x="146.25" y="117.2571428571429" width="22.5" height="21.71428571428572" as="geometry" />
        </mxCell>
        <mxCell id="L06JyuytahHHtOBjtd7x-99" value="29" style="strokeWidth=1;shadow=0;dashed=0;align=center;html=1;shape=mxgraph.mockup.forms.rrect;rSize=0;strokeColor=#999999;fontColor=#999999;" vertex="1" parent="L06JyuytahHHtOBjtd7x-61">
          <mxGeometry x="11.25" y="138.9714285714286" width="22.5" height="21.71428571428572" as="geometry" />
        </mxCell>
        <mxCell id="L06JyuytahHHtOBjtd7x-100" value="30" style="strokeWidth=1;shadow=0;dashed=0;align=center;html=1;shape=mxgraph.mockup.forms.rrect;rSize=0;strokeColor=#999999;fontColor=#999999;" vertex="1" parent="L06JyuytahHHtOBjtd7x-61">
          <mxGeometry x="33.75" y="138.9714285714286" width="22.5" height="21.71428571428572" as="geometry" />
        </mxCell>
        <mxCell id="L06JyuytahHHtOBjtd7x-101" value="31" style="strokeWidth=1;shadow=0;dashed=0;align=center;html=1;shape=mxgraph.mockup.forms.rrect;rSize=0;strokeColor=#999999;fontColor=#999999;" vertex="1" parent="L06JyuytahHHtOBjtd7x-61">
          <mxGeometry x="56.25" y="138.9714285714286" width="22.5" height="21.71428571428572" as="geometry" />
        </mxCell>
        <mxCell id="L06JyuytahHHtOBjtd7x-102" value="1" style="strokeWidth=1;shadow=0;dashed=0;align=center;html=1;shape=mxgraph.mockup.forms.rrect;rSize=0;strokeColor=#999999;fontColor=#999999;fillColor=#ddeeff;" vertex="1" parent="L06JyuytahHHtOBjtd7x-61">
          <mxGeometry x="78.75" y="138.9714285714286" width="22.5" height="21.71428571428572" as="geometry" />
        </mxCell>
        <mxCell id="L06JyuytahHHtOBjtd7x-103" value="2" style="strokeWidth=1;shadow=0;dashed=0;align=center;html=1;shape=mxgraph.mockup.forms.rrect;rSize=0;strokeColor=#999999;fontColor=#999999;fillColor=#ddeeff;" vertex="1" parent="L06JyuytahHHtOBjtd7x-61">
          <mxGeometry x="101.25" y="138.9714285714286" width="22.5" height="21.71428571428572" as="geometry" />
        </mxCell>
        <mxCell id="L06JyuytahHHtOBjtd7x-104" value="24" style="strokeWidth=1;shadow=0;dashed=0;align=center;html=1;shape=mxgraph.mockup.forms.rrect;rSize=0;strokeColor=#999999;fontColor=#999999;fillColor=#ddeeff;" vertex="1" parent="L06JyuytahHHtOBjtd7x-61">
          <mxGeometry x="56.25" y="117.26142857142858" width="22.5" height="21.71428571428572" as="geometry" />
        </mxCell>
        <mxCell id="L06JyuytahHHtOBjtd7x-105" value="3" style="strokeWidth=1;shadow=0;dashed=0;align=center;html=1;shape=mxgraph.mockup.forms.rrect;rSize=0;strokeColor=#999999;fontColor=#999999;fillColor=#ddeeff;" vertex="1" parent="L06JyuytahHHtOBjtd7x-61">
          <mxGeometry x="123.75" y="138.9714285714286" width="22.5" height="21.71428571428572" as="geometry" />
        </mxCell>
        <mxCell id="L06JyuytahHHtOBjtd7x-106" value="5" style="strokeWidth=1;shadow=0;dashed=0;align=center;html=1;shape=mxgraph.mockup.forms.rrect;rSize=0;strokeColor=#999999;fontColor=#999999;fillColor=#ddeeff;" vertex="1" parent="L06JyuytahHHtOBjtd7x-61">
          <mxGeometry x="11.25" y="160.6857142857143" width="22.5" height="21.71428571428572" as="geometry" />
        </mxCell>
        <mxCell id="L06JyuytahHHtOBjtd7x-107" value="6" style="strokeWidth=1;shadow=0;dashed=0;align=center;html=1;shape=mxgraph.mockup.forms.rrect;rSize=0;strokeColor=#999999;fontColor=#999999;fillColor=#ddeeff;" vertex="1" parent="L06JyuytahHHtOBjtd7x-61">
          <mxGeometry x="33.75" y="160.6857142857143" width="22.5" height="21.71428571428572" as="geometry" />
        </mxCell>
        <mxCell id="L06JyuytahHHtOBjtd7x-108" value="7" style="strokeWidth=1;shadow=0;dashed=0;align=center;html=1;shape=mxgraph.mockup.forms.rrect;rSize=0;strokeColor=#999999;fontColor=#999999;fillColor=#ddeeff;" vertex="1" parent="L06JyuytahHHtOBjtd7x-61">
          <mxGeometry x="56.25" y="160.6857142857143" width="22.5" height="21.71428571428572" as="geometry" />
        </mxCell>
        <mxCell id="L06JyuytahHHtOBjtd7x-109" value="8" style="strokeWidth=1;shadow=0;dashed=0;align=center;html=1;shape=mxgraph.mockup.forms.rrect;rSize=0;strokeColor=#999999;fontColor=#999999;fillColor=#ddeeff;" vertex="1" parent="L06JyuytahHHtOBjtd7x-61">
          <mxGeometry x="78.75" y="160.6857142857143" width="22.5" height="21.71428571428572" as="geometry" />
        </mxCell>
        <mxCell id="L06JyuytahHHtOBjtd7x-110" value="9" style="strokeWidth=1;shadow=0;dashed=0;align=center;html=1;shape=mxgraph.mockup.forms.rrect;rSize=0;strokeColor=#999999;fontColor=#999999;fillColor=#ddeeff;" vertex="1" parent="L06JyuytahHHtOBjtd7x-61">
          <mxGeometry x="101.25" y="160.6857142857143" width="22.5" height="21.71428571428572" as="geometry" />
        </mxCell>
        <mxCell id="L06JyuytahHHtOBjtd7x-111" value="10" style="strokeWidth=1;shadow=0;dashed=0;align=center;html=1;shape=mxgraph.mockup.forms.rrect;rSize=0;strokeColor=#999999;fontColor=#999999;fillColor=#ddeeff;" vertex="1" parent="L06JyuytahHHtOBjtd7x-61">
          <mxGeometry x="123.75" y="160.6857142857143" width="22.5" height="21.71428571428572" as="geometry" />
        </mxCell>
        <mxCell id="L06JyuytahHHtOBjtd7x-112" value="4" style="strokeWidth=1;shadow=0;dashed=0;align=center;html=1;shape=mxgraph.mockup.forms.rrect;rSize=0;strokeColor=#999999;fontColor=#999999;fillColor=#ddeeff;" vertex="1" parent="L06JyuytahHHtOBjtd7x-61">
          <mxGeometry x="146.25" y="138.9757142857143" width="22.5" height="21.71428571428572" as="geometry" />
        </mxCell>
        <mxCell id="L06JyuytahHHtOBjtd7x-114" value="" style="html=1;verticalLabelPosition=bottom;align=center;labelBackgroundColor=#ffffff;verticalAlign=top;strokeWidth=2;strokeColor=default;shadow=0;dashed=0;shape=mxgraph.ios7.icons.add;fillColor=default;" vertex="1" parent="L06JyuytahHHtOBjtd7x-130">
          <mxGeometry x="51" y="303" width="18" height="18" as="geometry" />
        </mxCell>
        <mxCell id="L06JyuytahHHtOBjtd7x-115" value="" style="endArrow=none;html=1;rounded=0;exitX=0.05;exitY=0.256;exitDx=0;exitDy=0;exitPerimeter=0;entryX=0.958;entryY=0.254;entryDx=0;entryDy=0;entryPerimeter=0;movable=1;resizable=1;rotatable=1;deletable=1;editable=1;locked=0;connectable=1;" edge="1" parent="L06JyuytahHHtOBjtd7x-130">
          <mxGeometry width="50" height="50" relative="1" as="geometry">
            <mxPoint x="10" y="291" as="sourcePoint" />
            <mxPoint x="192" y="290" as="targetPoint" />
          </mxGeometry>
        </mxCell>
        <mxCell id="L06JyuytahHHtOBjtd7x-116" value="AÃ±adir cita" style="text;html=1;align=center;verticalAlign=middle;resizable=0;points=[];autosize=1;strokeColor=none;fillColor=none;fontSize=10;" vertex="1" parent="L06JyuytahHHtOBjtd7x-130">
          <mxGeometry x="23" y="317" width="70" height="30" as="geometry" />
        </mxCell>
        <mxCell id="L06JyuytahHHtOBjtd7x-119" value="" style="html=1;verticalLabelPosition=bottom;align=center;labelBackgroundColor=#ffffff;verticalAlign=top;strokeWidth=2;strokeColor=default;shadow=0;dashed=0;shape=mxgraph.ios7.icons.bell;" vertex="1" parent="L06JyuytahHHtOBjtd7x-130">
          <mxGeometry x="129" y="303" width="18" height="18" as="geometry" />
        </mxCell>
        <mxCell id="L06JyuytahHHtOBjtd7x-121" value="Recordatorio" style="text;html=1;align=center;verticalAlign=middle;resizable=0;points=[];autosize=1;strokeColor=none;fillColor=none;fontSize=10;" vertex="1" parent="L06JyuytahHHtOBjtd7x-130">
          <mxGeometry x="98" y="316" width="80" height="30" as="geometry" />
        </mxCell>
        <mxCell id="L06JyuytahHHtOBjtd7x-131" value="" style="group" vertex="1" connectable="0" parent="1">
          <mxGeometry x="320" y="100" width="200" height="390" as="geometry" />
        </mxCell>
        <mxCell id="L06JyuytahHHtOBjtd7x-27" value="" style="verticalLabelPosition=bottom;verticalAlign=top;html=1;shadow=0;dashed=0;strokeWidth=1;shape=mxgraph.android.phone2;strokeColor=#996185;fillColor=#e6d0de;gradientColor=#d5739d;" vertex="1" parent="L06JyuytahHHtOBjtd7x-131">
          <mxGeometry width="200" height="390" as="geometry" />
        </mxCell>
        <mxCell id="L06JyuytahHHtOBjtd7x-28" value="REGISTRARSE" style="text;html=1;align=center;verticalAlign=middle;resizable=0;points=[];autosize=1;strokeColor=none;fillColor=none;" vertex="1" parent="L06JyuytahHHtOBjtd7x-131">
          <mxGeometry x="45" y="46" width="110" height="30" as="geometry" />
        </mxCell>
        <mxCell id="L06JyuytahHHtOBjtd7x-29" value="Nombre" style="rounded=0;whiteSpace=wrap;html=1;fillColor=none;align=left;" vertex="1" parent="L06JyuytahHHtOBjtd7x-131">
          <mxGeometry x="20" y="92" width="160" height="26" as="geometry" />
        </mxCell>
        <mxCell id="L06JyuytahHHtOBjtd7x-38" value="" style="endArrow=none;html=1;rounded=0;exitX=0.05;exitY=0.256;exitDx=0;exitDy=0;exitPerimeter=0;entryX=0.958;entryY=0.254;entryDx=0;entryDy=0;entryPerimeter=0;movable=1;resizable=1;rotatable=1;deletable=1;editable=1;locked=0;connectable=1;" edge="1" parent="L06JyuytahHHtOBjtd7x-131">
          <mxGeometry width="50" height="50" relative="1" as="geometry">
            <mxPoint x="9" y="81" as="sourcePoint" />
            <mxPoint x="191" y="80" as="targetPoint" />
          </mxGeometry>
        </mxCell>
        <mxCell id="L06JyuytahHHtOBjtd7x-53" value="Correo Electronico" style="rounded=0;whiteSpace=wrap;html=1;fillColor=none;align=left;" vertex="1" parent="L06JyuytahHHtOBjtd7x-131">
          <mxGeometry x="20" y="124" width="160" height="26" as="geometry" />
        </mxCell>
        <mxCell id="L06JyuytahHHtOBjtd7x-54" value="ContraseÃ±a" style="rounded=0;whiteSpace=wrap;html=1;fillColor=none;align=left;" vertex="1" parent="L06JyuytahHHtOBjtd7x-131">
          <mxGeometry x="20" y="156" width="160" height="26" as="geometry" />
        </mxCell>
        <mxCell id="L06JyuytahHHtOBjtd7x-55" value="AGREGAR MASCOTA" style="text;html=1;align=left;verticalAlign=middle;resizable=0;points=[];autosize=1;strokeColor=none;fillColor=none;" vertex="1" parent="L06JyuytahHHtOBjtd7x-131">
          <mxGeometry x="20" y="183.64" width="150" height="30" as="geometry" />
        </mxCell>
        <mxCell id="L06JyuytahHHtOBjtd7x-56" value="Nombre" style="rounded=0;whiteSpace=wrap;html=1;fillColor=none;align=left;" vertex="1" parent="L06JyuytahHHtOBjtd7x-131">
          <mxGeometry x="20" y="217.64" width="160" height="26" as="geometry" />
        </mxCell>
        <mxCell id="L06JyuytahHHtOBjtd7x-57" value="Especie" style="rounded=0;whiteSpace=wrap;html=1;fillColor=none;align=left;" vertex="1" parent="L06JyuytahHHtOBjtd7x-131">
          <mxGeometry x="20" y="250" width="160" height="26" as="geometry" />
        </mxCell>
        <mxCell id="L06JyuytahHHtOBjtd7x-58" value="Raza" style="rounded=0;whiteSpace=wrap;html=1;fillColor=none;align=left;" vertex="1" parent="L06JyuytahHHtOBjtd7x-131">
          <mxGeometry x="20" y="284.82" width="160" height="26" as="geometry" />
        </mxCell>
        <mxCell id="L06JyuytahHHtOBjtd7x-59" value="CREAR CUENTA" style="strokeWidth=1;shadow=0;dashed=0;align=center;html=1;shape=mxgraph.mockup.buttons.button;strokeColor=#666666;fontColor=#000000;mainText=;buttonStyle=round;fontSize=11;fontStyle=0;fillColor=none;whiteSpace=wrap;" vertex="1" parent="L06JyuytahHHtOBjtd7x-131">
          <mxGeometry x="46" y="324" width="108" height="22" as="geometry" />
        </mxCell>
        <mxCell id="L06JyuytahHHtOBjtd7x-132" value="" style="group" vertex="1" connectable="0" parent="1">
          <mxGeometry x="60" y="100" width="200" height="390" as="geometry" />
        </mxCell>
        <mxCell id="L06JyuytahHHtOBjtd7x-31" value="" style="verticalLabelPosition=bottom;verticalAlign=top;html=1;shadow=0;dashed=0;strokeWidth=1;shape=mxgraph.android.phone2;strokeColor=#996185;movable=1;resizable=1;rotatable=1;deletable=1;editable=1;locked=0;connectable=1;fillColor=#e6d0de;gradientColor=#d5739d;" vertex="1" parent="L06JyuytahHHtOBjtd7x-132">
          <mxGeometry width="200" height="390" as="geometry" />
        </mxCell>
        <mxCell id="L06JyuytahHHtOBjtd7x-35" value="VetCheck" style="text;html=1;align=center;verticalAlign=middle;resizable=1;points=[];autosize=1;strokeColor=none;fillColor=none;movable=1;rotatable=1;deletable=1;editable=1;locked=0;connectable=1;fontStyle=1;fontSize=25;" vertex="1" parent="L06JyuytahHHtOBjtd7x-132">
          <mxGeometry x="34.5" y="149" width="130" height="40" as="geometry" />
        </mxCell>
        <mxCell id="L06JyuytahHHtOBjtd7x-49" value="Iniciar sesion" style="strokeWidth=1;shadow=0;dashed=0;align=center;html=1;shape=mxgraph.mockup.buttons.button;strokeColor=#666666;fontColor=#000000;mainText=;buttonStyle=round;fontSize=15;fontStyle=0;fillColor=none;whiteSpace=wrap;" vertex="1" parent="L06JyuytahHHtOBjtd7x-132">
          <mxGeometry x="37" y="221" width="123" height="36" as="geometry" />
        </mxCell>
        <mxCell id="L06JyuytahHHtOBjtd7x-50" value="Registrarse" style="strokeWidth=1;shadow=0;dashed=0;align=center;html=1;shape=mxgraph.mockup.buttons.button;strokeColor=#666666;fontColor=#000000;mainText=;buttonStyle=round;fontSize=15;fontStyle=0;fillColor=none;whiteSpace=wrap;" vertex="1" parent="L06JyuytahHHtOBjtd7x-132">
          <mxGeometry x="38" y="266.82" width="123" height="36" as="geometry" />
        </mxCell>
        <mxCell id="L06JyuytahHHtOBjtd7x-52" value="" style="shape=image;verticalLabelPosition=bottom;labelBackgroundColor=default;verticalAlign=top;aspect=fixed;imageAspect=0;image=data:image/png,iVBORw0KGgoAAAANSUhEUgAAAhoAAAHQCAYAAADnIsNpAAAAAXNSR0IArs4c6QAAIABJREFUeF7sXQdYFNf23zJbYUGqgAiiqCh2wZ5YsERjiTEaTdSnSYxJNCbm5aW9JGJeii2al6J/jcb3LNFILIm9xYrGgthAVKQLSC/L9p3556xzeDeTBZbdBRed+T6+hWXm3jvn3nvu73ShgL94CvAU4CnAU4CnAE8BngINRAFhA7XLN8tTgKcATwGeAjwFeArYSQE4nBk7n3W1x3ig4Wozwo+HpwBPAZ4CPAV4CjhAAVcDKTzQcGAy+Ud5CvAU4CnAU4CnwH0KuNrx7jrzwgMN15mLWkfCMAzOlTAhIUGclJTkUV5erjCbzZRMJhMZjUaxyWQSisViIcMwosrKSqq0tFQmEAhE/v7+ZqVSKTCbzZY2xGIxQ9M0A58CgYAWCoU0RVEMfNI0bTYajbREIjHD7/AD3wuFQn3r1q3VI0eONMLfTYRs/DB5CvAUaGQK8MdtHQR/BAnEA41G3oR1dXfx4kVJcXGx1Gw2i3U6neTu3bsyk8nkSdO0VCwWyysrK/0yMjJCbt261amgoCC0uLjYTSAQUDRNW34AaAiFQkqv18uqqqq8pVIp7enpWSWXywU0TYvMZjN8ChhAIyIRbTabATTAjxl/hEKhUSQSwY9eLBYb4GIYpjAoKCg5KirqeufOnbPNZrOmqqoKwImhVatWuqCgIKNAIDDBz+DBg+GTv3gK8BTgKcBTgKeARdfDXw+QAqCp2LNnjyInJ8f9+vXrzXJyciKLi4s7lpeXe1dWVjYrLi72NJlMPgKBQCYUCqU0TXsajcZmDMMoxWIxBRoLofD+NEJb7GXR49E0LTQajQKpVCqAewBgwAWf8APfCYVC9DcC7IEARCASiQCIVP/PaDSCdkMrk8mKJRLJPYZhdHC/XC4v9/PzK5TL5RUURRWGhISkREZG3m7Tpg18r2cYRp+QkKCLjY3ltSC2rLNHUNqxhSz8PTwFeAo0XQrwQKOR545hGPHZs2elACxu377dMjk5uXNpaWnX7OzsLvn5+cGVlZUBDMNIAVQIhUIRAALQQsChLhKJ4AdMI6iVsPwPvheLxZZ7TKb7ygQAEfAdC0As98EF9yLoQIDCAg7L8/hDtoFjgPbAxAJ9YL/wLEVR8Bx0oJfL5aA9MYrF4iKxWFxB03RWcHDw1TZt2iS2adMmo2XLlgUtW7bUjRw50iQUCu8Pir94CvAU4CnAU+ChpQAPNBppao8dO0Zdu3bN6/fff++UmZnZs6ysrL1arW6r0Wja6fV6lVarlRmNRtBQgFKiGiAAMKjtAmBg1wWP2TD7OJaa+kAtiZX/Qw/wY1KpVGqRSFTg5uaW4ePjkyKTybICAgIyOnbseMHPz6+0qqpKy2s87JpF/qGHiQK8Nuthmk3+XQgK2HDU8PSylwIMw0j27NnjmZCQ0Pry5cvts7OzRxQUFHTPz89vYTQawfRhcagAJ00EDHCwA7ggNQv29t8Yz9kCdCQSicBoNFqAB0VRJpPJpJFKpWUBAQG3Q0NDkxQKxeWgoKBMLy+vwoCAgKyYmBhdz549QeNhJ4pqjDfn++Ap0HQoAGbVhQsXChcsWFDjoOPi4qrPg4kTJ/7J1MnvxaYz1644Uh5oOHlWYEMfP37cLTU11e/OnTv9bty40SslJWVwWlpasNFo9JRIJCIwPcABDaCCPKjRhAFDqkVT4OQRN2xz+E74PgCi8HepVMqAnymYXMRicZmHh0dmq1atjoSHh9/x8/O75e/vn+Xm5sZrPBp2ivjWHwIKAN+Ji4uTZGZmSmQymdhsNouUSiWl0WgkBQUFqry8PG+NRqOAPQc8CJ3HwUGcNcdafLqAFAqFgpbL5SAMmCorK4U6nc6sUCgqg4KCSgICAnQSicSk0WhMMpnM5OXlZUpOTjbxGklri4hXUSFVeKDhJCZz+/Zt2e3bt/2SkpLaXb16dUhCQkLPtLS0zgaDwZumaUuYKXQFBy1I+Oj3gKYR1GA8LADD6rZjtTWosQHAxWo7LCG34OcBYbQCgUBjNptLJBJJfkhIyPk2bdqc7NSp06327dvf8/LyUk+aNIn37XDSuuWbaToUYMGEKDAw0CMnJ0ehVqtler1eotVq5bm5uQFXrlxpd+fOnbCqqipPsVgsE4lEivLyck+dTudF07QlOo11FgegAfwIfqrD5glKgCO4nqIoI4TPm81mEAZ0KpWqUCqVanQ6HXidVyiVyoKgoKCs5s2bZ4eHh+eEhoaWBAYGqgMCAjSlpaVaACALFiyAe3nNZNNZZg0yUh5oOEBW1F5cvHixVUJCwpCbN2+OvHv3btfKykpvs9kshU1sMBgsPUDkBzhNwuEK34GkD9/h79ZMJVyNhwNDfWCPopMqggsAUvgdOqjC4OA7eF90ZoXvZDIZ0EevVCrLKYrKpyjqYlBQ0KmePXvGDxkyJHfatGlaPqfHA5tavuMGpAD4dBUWFkokEolMp9MpMzIyAisqKponJye3LCws7HP37t2W5WXlvkKR0A0cx00mk7ter4eoNKlIJLIACjDJwn5CrSLyE652kXUyt7wNRqShgzk+DwIB7FGIYgOeBaHxoB3R6XQmiqL0MpmsQiqVlnp6euZ7enpmKRSKbIFAcFelUuW2atUqtUWLFiUtW7bUBwYGGtRqtakpCQu8XsLxhc4DDTtpuG3bNunFixfbnD59+ul79+71Ky4u7gmSg8FgkIAKEjc3bM6aTCWkGYEb+WHnsJrMY/juGBlDRsMAAAF6AHNjmRq8F0hZBpFIVKhQKK40b978XGho6KF+/frdWLBgQSUvNTWZqecHWgsFtm3bpjhy5IhfeXl59xs3bkSWlZW1FYvFKp1O11IikXiWlpb6gHbCZDKBeUQCSfrI5rgaUgT1lg1EOI6TDufwP9Jsi2ZdaAuABQIRNv9OdeQaRrbB93Afm5vHYlIRi8UmmqZ1crm8WCwW59M0bfn09PS86evrezswMPB669atS5ctW1bFL4iHnwL/W6Q8bKtztiGZ1smTJ1UQOZKRkdG7sLBwfE5OTmdw7GRVkNUAgxtGipICdAIHKGxSDFvldtxUHEHrJJgQknxYQnKrHVy5piEEFWQ4LiYVg/ZBC4Q5P1imyYBjqVAo1KhUqhwfH594f3//ExEREZc6dOiQM3ToUE1UVBQkD+MvngIuSwHIl5eamgr8RHrhwoXQnJyc5oWFhUEajSa6sLCwl9lsDikpKVGZzWYlq4kQsmbGPwELyPhr4RcCRmAymqo1grBv4H6dTlcNMNDRnNQuYqg7hs+TgITUhJC8CtrG51AriW3j9+w+B+dvMuTeBOHvEomkUiqV5stkshuenp4XPT090wMDA++1bt06s1evXpUTJ0408KHvLrt07RoYr9GwgWzAFNavX+9z4sSJ4ZcvXx6QlpbWr7KyMlQoFKrEYrHFuRMPStyQ9yX1+zGkpLYC/4/5J/BvW6I3bBiqlVtcA0GSYboINriMDCUr+AT6oQSFvyPwIPKFAIHNDMOofXx8rrRt2/ZaUFDQ2YCAgPMRERHZ8+bNA38P/uIp4DIUAJPIxYsXvZOTkztkZ2f30mq1oeDLJRAIWoDDpkAgUN1f/mIwfVRrDxAIYA4dABHAd2CPoFBD7ieuDxgCCNRWkAQhTSlc8wreR2o8yHtI8y6pJUF+SEbTkcIWJAOEegeQgZim6SKlUpkbGBiYHhQUdDMwMPCir6/vDZlMdnf58uV63jzqMsvX7oHwQKMW0qEPxqFDh7oePnx4ys2bN8ep1ermkHQLHKnYRFXVEgO5iUkVJh6guCnJhFu4OXEYDQc47F4jDf4gySC5Kl1SYiKZHkkvMJvAj9lshmxl5Z6ensmRkZHbIyMjT0VFRaXn5eVVOt8r3jUAXINPDt+BwxQAQWXJkiVuubm5YRkZGd1SU1NHZmZmdlar1aHgtAnAAjWi3M64/IH7fzJBn7Vn6+In1vgPCQ7qevma9i7p3E72gb9zQBFYXSCcFiJfIAKt2M3NLUelUiWOHDnyYGhoaEq3bt2ytVqtvin5dtRFu0fp/zzQqGG2wVaalZUVduDAgbEZGRnPZGdnR+j1ejcy2yaJ5q2FqaIakdxcZPZNa9JFXYyhqS1OfHeUulCywk8iFbpF88MFXKT24/7/ICz4f0nM8P8wLyDlwWU0Gk2g5RCLxXfd3NwO9OjR49devXpdg3TpzgccTW1G+PE2FgWSkpKkCQkJzc6ePdvh+PHjQzMyMkYZDIZQgUDgARZU2BOkQ7Q946qNX1jjL9b64O67+gANUogihYTazL9csEEKE/gc0EYqlRr0er3ay8srqU2bNkc6dOhwrV27dpcCAwNLsrOzq/i9bM+KeTDP8ECDQ3fww9izZ4/f4cOHx6SkpEzQarXg5AlFzSC5VrXPgDVJm9zYiNjxICW7qYk5PGwgg9RAkBJMTWDLGtCojenB/ciskfak1ghQiUwmq6JpOlmhUJxt3779jj59+tx47LHHSnjJ6MEwnIe9V9CCbt68WZWQkOCfkJDQPykpaZher+9oMpnCwYkT8ltY4x3OoMv/+Ift2jbSJMIFB6QgdX981tutSetC8kOuIGaNH2LkGekPApFnUGdJJBJBnaVCkUgEJpXkrl27HnzssceSR48eXcj7ZDlj9TRsGzzQYOkLUSSXLl0Kio+PH5mSkjK2rKysF8MwXsA4cJNwN2JNGTytbby6pATXARm2M6n6Lk2uWYQEIty2rNGjJrqSoA7bwXA8AHpsCLFOqVTmKZXKhICAgH2DBg06+dhjj+VOmjRJW9/34O/nKcA5KCFJn+z06dMtjx492is9PX2QRqOJqqqqCtZoNF6saeRPREMH6bo0Gg3NF2oz3f4VaNR/3utqg/w/Cg7QC743KUiAqZr17TDI5fIiLy+vG61btz4cERFxKjIyMjUmJqY8MjLyfj4B/nIpCvBA44/piI2N9T579uxjqampT+fm5g7V6XT+UBmVLGaGG5IbNVEbI6htk9V06LrU6mjAwXDfvy6GRA7FmuaDC1pqmBewAxvABhwYGHghNDT0ZHR09IHWrVun1eQ4ylbE5RMONeBaaMpNr169WpmWltYmMTFxUHp6+tCioqJuarXaz2w2Q7VlEYa3cx2gXSkxX037qT57sqY5rKuNungk0A/DbGFPQ+4h+BuEB5qmTR4eHpXe3t433d3dkwICAk726dPn7FNPPZXBazlca1c90kAD/DB++umniPPnz0/Lzs6eKBAIAkQi4A2WEiSWxYyhXGRIGOk97VrT6XqjqVOLYQnNs/+yplVCyQgYEzrsYi4T9n6L8xlUl/X29r4WERGxs0+fPnvDw8MzZs+ezYfG2j8dj8STAD5/+OEH99OnT/e4e/culBcYmZ2d3dpgMID2QsSCU0vkFBmRxom6qE6AVYNFolFpWRcgqB+QuK8VrW+btd2PeXfICBsEHKDlgFxj7u7uhcHBwbdCQkJ+6tSp08mBAwemjRkzRtOohOQ7s0qBhxZo1CWJvvPOO6rz58+PSk5Ofk6j0QxgGKYZMAmNRlOttoNDqqZcF0DN+m4kfg3WjwL1oa81QIOAg7SJy+VyC/OHBENs/DHUdSj19fXd37Zt2+2dOnU64+PjUxobGwsRLPzFU+BPFAANxs2bN4PPnTv35LVr156rqKiIFIlEUolEAjn0q4EFqvzxgCTNrzxJ71OAu7+5Zhz4G8N4cQ9jxlJ4ngRysKdZ7YfJYDCU+vn5JXTp0mVPnz599vTv3z9/1KhRfKj7A1x4DQM0Gs7M7zCpwBfj8OHDHQ8fPvxUTk7OcwzDhLi7u0MKX2FV1f0kdQAw4EL1JjfyoS7/gYa2qzpMhAfUQH3MRbbey7Xxkn8jk0etBmkPh/tQWwUJwCCLoVgszpVIJOf8/PwgSuXS8OHDeQ3HA1orrtQthKfGxcU1++2338J/++23cZmZmX2NRmNHhmF8KYqyAAxYS3DQgRYUQ07he9S4kQcr8ge4vy4fjbroUJsZsa5nH+T/6zNu3KdcoQ++B4HB3d1doNfrLb+D8yioKw0Gg5miqFKpVHo5Kipq75AhQ4527NgxY+LEiVV8FuHGn/mGARqN/x519siWSfbZtm3biMzMzDeqqqoiPDw8oD6AJTFOTf4Y1g48HkjUSW6XugE1G9aYG3xHzjHwKKFQCLVVLkskkm29evX67bHHHsuJjY1tIk5mLozyXWpV1D0Y4BkbN25U7tu3r9PZM2enlpSWPKHX6wOFQqEC/C/gcONK4dgqZ01Zvub5Rt00596BQgI3DB6T+ZGRLSTt0cRiNpstScHkcvn1li1b7uzfv//u4cOH3+adwOs/F4488cgAjaeffjr02rVrL965c2eKTCZrDRoMqVQqBGaBFxl2iRKINQbBMwxHllzjP4tgAj+5amzSp8OyBgQChhKLTVBXxWg0JoaEhKzp16/f8U2bNvE1VRp/+h5Ij7GxsVRGRmbYlSuXJ2RnZ48oLS3tDuGpbLI+TAde7QNkjU/AuiKdPnm+Uf+pJLMCcwUG9HnhCoPkfUSGVEh/XiaTyS4EBgbGDRo0aP/KlSvz6z8i/gl7KPDQA43169fLd+zY0fnYsWMfqtXqJyBRjoeHh5C10VtqAcBixuJDmNYXiEmqPUni8gzDnqXW0M/ULsmTYIMbroye7TBCbnQAVKnU6/UFvr6+W7p167Z+wIABN5uOdqOhaW6B46yrS2P01fB9xMbGioqLi33OnTs3KDU1dXZ5eXkUwzAqqVRqiSABvgGRD+DrA1pQtVp9v9YI8VOTWcDl+YYLTiXX9ETWTQJ6knmKSPrifkeHUVg5LGgBx9FSf3///SEhIZv69OmT4OPjU8wn/2rYvfVQA423337b7eTJk8MyMzP/VlRUNFwqlSrRaQjVnrBQuUCDjOHmMgeXZxYNu16abOvI/K05mCLzQqkU5xjuZTPB0mazuUwsFv/WsmXLbd27dz8VFxfHS0NNdjVYHzgIJdu3b+947dq1ycXFxU+o1eq2QqFQDnejYzjWFkEnRVxPCDSwZa6U7fp8wwVRBgsOrAEIkt41+XOhRonMSszeC2BDbzabU8LCwo526tTpv927d+cFiAbczw8l0Ni2bZv43LlzbXfu3DklJydnlslk8qVpmsJCRdzDhlSpcxc1r8lowNXXyE1bkzRJJkQCDVwTWNiKpmlLATeJRFIilUpPtGvXbs2QIUMuL1u2rJh3LmvkiXRyd1DobPv27eFnzpyZnJKSMkmj0bSmKAry2YtgHXBTZCP/qEmatuh5WN8fLgBx8tCbXHP1hTM1lbnHvcr1sSK/J3/n5uOA59zc3Gi1usool8uuderU6cehQ4f+0qNHj0w+a7Dzl9VDBzRWr14tSUxMbL93795/ZGdnjxIKhT4SiUQI3uCktEFKKNbIWhNKdv4U8C0+aArUJhFhCB1KtWAnMJvNeqlUetvd3f3Xbt26bZg0aVI6n3/jQc+iff3HxsYq4+Pjo8+fPz+7srJyLE3TSsAJWDcH86+Q4IGsdlpb4i1r2jP7RtkEnqovgnDiK9VkqoIuMPIMfoc5JTONYqisTqeDoozFvr6+v0RHR28YN27cxdmzZ/P5N5w5R05s64E3tXz5csWmTZsev3Xr1iy9Xj/U3d1dVVpaKlIqlZaQM4wsQfWnK2Xne+DE4wdQKwWASaFjGTA2mUxmNhqNoN0427p16w2PP/74bytXrizjtRtNYyGBL4ZUKvU6dOjQyGvXrr1UUlLSQyaTuZvN5ury7MAv8BCzxivIQwyBiOubSJrG/Nji+kMCudpAXU3OojBXuK8hJJZhmCqZTHa1TZs2/x0xYsSupUuXFvL72Tnr5aHQaEAY2rx583whN0ZqauqrYrE4Ui6XS8FRCxiEQqHAlLUWxgEMhBvD7hoajAcoFjhnPTXpVqxJRsjA0F8DPlHKZf9nFgqFmZ6enhsjIiJ+mjlzZiqv3XDtZRAbGyu/dOlSz8TExPElJSVPV1VVtaQoioIcDOAcDvMKBxD8DocRySvQnwdzZSDAIN+YBxuuN/81mbJgPvF8MBmNAkoiARMpOH9vjYiI2Dh+/PjrNZUncL23dN0RPRRAY/Lkya3i4+OnFhYWzoAEXDKZTAIZPoEZwCICsIHRJH9lAo4d7s4CKI60U5c9GP//15Lr92P7rYGu+jJLa+MnD2nYAhjzjt/X1ocj9GiI7UbagklAAoeTRCIxazSaYpFIdCY8PHzTwIEDD65cuVLdEOPg23SMAq+88or//v37x+Tn5//NbDZ3omnaE3Ji4PyS6w41WI712HBP17TncK81XM9Np2WupoP0yUL+g8nW4G/2nGBEIlGFWCy+2LVr1++GDBlyfNGiRaVN562dO9K6smzb0luTBhrg9BkXF9fx9OnTC+7duzdMIBCo0L4KPhlYdhjjret7eNpEQKHQ5kQ8tfkCYF/OHGNdNmISCHAjbRAU2DIea6pJMnID340LMEjVszVtAkn/ut7Flrly9B7yMCLBHZrkxGIxLZPJ7nl7e28aMmTIppkzZyYPHjyYT2XuKOGd8Dw4fEKY+4EDB2ZlZWVNMJvNfpBLh40qsvRArmMMnXRC1w3ShK1AnNxX1gZSk/O7Lfu+QV6sARsFWtwHGiJLSDY66pJ7GROBsd8xUqk0Ozg4eHdUVNS62bNnX+P3s30T1GSBBqCs6dOnR+7atesflZWVz4jFYgUWM/L09LSYR7RabbVfxoP2/uZueGdFt9RlJ+b+n7tMiAx6f1lB6DBb29KyBkisFTqz1gYXPNQFNuxb4s59CpkVV4WOdIDoFIZhylq2bHmga9eui6Oiom7weTecOwf1be3rr7+WHT9+vN+lS5dezc7OHmY2mz0gLwaZ0pq7P/HAqW9f9b2/LiBQFziob3813g9RMg959lLcuyQN0Dm0Jm0vmyRGq1Kp9sfExCzp1q3bJb4OUv1XXZMEGsA4Dhw40O3EiRMLqqqqBgoEYCFRCNGm6uPjYzGXlJWVWWytKJ0g2HgQaN1WoGHr2LA9smgT/A5XTbVZ8P9ckEOCMPLwrylhGbnMrI2XbINrluGCkJo0FbVJbA9Ku0FqNEQgFQkFFlUrviM6l0E1SZqmtSKRKCE0NHTD8OHD9z3++OP3+LC5+jMoR56AGiXLli3z3bNnz4jz58+/pdfrO0gkEktdI5grPGRwrZHzi3vC0VoktY3fWSDDGkC3VeOB4/vf/fCN7fWUm4JwgNoq7lhhjiH5GreqroUCbDIwML3DnxqNRi+Xy89CWHtMTMyh5cuXl/KOorbvziYHNGJjY93j4uKeSEtLm6vVavtIJBIZZOtDJgGLBkPTYLGAVI62VjyAbT3MbSdj3XfWxFRQEsYWnDk2ew5kpJc1hF/TW3LNJKQZhqxRUJPnPt5v67vb8151z1Dtd+D6QqZFvjN5GJHRKZB3QyAQ5AUHB+/r2bPnf0eNGnWZD5tzdCZsex6KJ+7bt6/3iRMnJufn54/WarXBYrFYBPMD80U6c2KL1fZ7Qrq3dp+1EdT3wK0NZNTXnFFb37XtlbqEH3v3ma372KaZdMyFrroLcv+SghXXdEYCNLgP/g9gBIRYmqaNEokkU6VSbezTp8+W3bt3p/Jgw6ZZtGjLmswFMe8///zz6OTk5IVisThcLBZT4IuB0gksEmT6mKAFkak1Vai9G8kRglljMNaQti19wHOkHwqZWOg+KL8vtSFCJ8AMKbLQYrHYzKr8UZyxbG+QzK0wDXzWsnbAXMW2C5/kesK/YQD3B/G/S0gCw9relTtHdWk6uO9qCx1tuac2RkXmVYC2EFwB7U0mE9ARVK8X27dvv3rQoEG7lyxZUmlLn/w99lFg3bp1qn379g0/ceLE/KKiom5CoVApEomEZBVQnDOSL5BzjOuorkOT1IaQa48EojVp/Wp6u5qABvd+a5pJ+yj2l81pczM18dC66GZzB066sSa+y927BI+s5psANOCC9QMlCdRqdam7u/vBzp07/2v+/PlQoA0ECv6qhQJNBmiAJmPbtm2jMjMz39NoNF0pihJhvRJrfgaozn4QYALpXZOkwWVotQEN7obFZ/ETDjJW1wmfJqlUqlcqlVVwuOn1eqPRaBQbDAaYZx1FURq5XG5iGMYoFosNEolE6+7uXuDh4VEuk8l0Zih1SNNwMALCsHhMsYgd+7C8GnyHAIPVIEESK5HBYJBSFGVJdkTTtEin08l0Ol2LkpISP7Va7QbZFmUymdxkMim1Wq2Cpmm5WCy2ZGCE9tg+sY/qZUtKIDjXtR0Qth4S9eEMdUms5DojTVjE2qQFAsGd4ODgb/v27bsrLi4uqz798/faRoHly5d7Hz58eNb58+dnlJaWtoO1TFZmxgRspCbRkUOxJk0XrlnLurCU6fvrYW7t8LO232t7c/KgJPcJtI2mIXbP/qmZmsAPub8w35BtlP9zdVpHaGprf/W5jyug2CroIO3wfQBssFouo4eHx47u3bv/e/DgwQm8H1bts9GoQMNeLVhsbKx0z549MVevXv2IYZieRqNRiqlpsdARvCbXQc8ayKhNIq7Pwq3rXi4T4UofXAZFIumaNik+IxKJoLIolDM3iEQiAAmFEokkXy6XZ/n5+WX6+/tnKBSKcp1OZ7hz5460rKwMQIMmMDCwytvbG56DsskmDw8PQ+fOnSs6deqk9/HxYfR6vYUdymQyYXFxsVCr1TLBwcF1vaoAnsNn4GZoCyrjpqWliZKTk5vduHGjWU5Ojlwmk0nd3NzkOp3OMz8/36+8vDzMYDC0MJlMrXU6XaDBYPA2mUwUwzAykUhEgdoDmSdpjgE62Ao0GprhcXMsIOMnVbKY+Ak0RyaTKcfLy2vLiBEjvomIiMjniznVubxsugGA6qJFi5rFxcU9d/PmzX9AbgyFQiECh3DSHEiCQGfwArFIZMEQ1oSF2sAMKTAgMCZflNSIWBNc8ACEQw9BBdkO8kJce9Y0ctgHjhPWLNAKLjQv1Wf/kPfW5zm5qaWOAAAgAElEQVSbJtiBm+oS+GpL3FjbGSISidQymex4586dP+vVq1fiN998879S4A6M92F8tFGBhj0EfPnllz1Pnjz5ZGpq6sdisbi10WiUwMIgTQbkhrGnj4Z4hpQMcLHCOLkF3PBAgntQ8kIVL4ucgY+BNKwXi8WFFEWBXfCOWCxOk8vld1q3bp0cFhZWFhERoQsMDNTl5eXpmsrhBSGHarVampubq0xISFBevnzZv6CgoHN5eXl7rVYLc+0vEAhCGIbxhwRsAEJY7YxlyqCCJthOQbWJgAQduzBixprUSII6a0ze0fWAfeLn/TIp97MQgirIZDLpg4KCdvbp0+f7mJiYC3PmzOFzbjhAdCiGduLEiejff//9+Vu3bo1lGCaALDtQm+bA2kFiz1CsabTIdcblAcAfsBIs1tOB+zEZHMk/EFTAJ3ko4honQQm+KwINfAbBCNwL/SEAIQEBrE8SaEBfKMGT5kAS/IMsQNO0RSCAC4Ecd1+RY3QlEGLPXON8sAKPWSQSJYeEhHwbHR39K19s0TpFXRpogE/Gxo0bJ2ZlZb1lNBo7QUgabE5YqHC4wCENVVhdGWhY81pHyQE+4aAkNyXJsIRCoYmm6RKxWHzD3d39op+fX2JkZGRi9+7dcz08PPRubm6mhykLJUil+/fvl167dk1aUFAgq6ys9M3Pz+987dq1bllZWV3NZnN7qF0jk8ncwEwDzA8SZqGfDlk4ibvcrUmvNUk69jIffI4EGhhlg+sAmDlr8gOzVWKbNm1WjR8/fldsbCwPNuwgPJQd2Ldv38hLly69qdFouhiNRhWY8fAwILUKZPNcjYG9hx95sHIlY9amb5lvFDLwkEYggVVgcbywTkhtHbSBYyMdq/F51hGeBi0lw8CZTxtZnygoaw/WUIvCBX/AVwXKfjAMA6oLSx4RaJ/sE9rGsZPOsFytLAlikG9hO6hBwfclad9Q+86O5VOvRzi82fIsG5ViMhqNWQqFYuOIESO+jouLK6lXw4/AzS4LNF5++WXl6dOnh926dWuxQCBoDdk+8WCGzUU6OT5IoGFt05BqUTgIAQzhQYMSA25IDK8yGo0WsRfMIQzDFInF4rtubm6/d+7c+bfQ0NDrwcHBhUqlUrtgwQJIeW17/FkTXsQAPOLi4kSFhYWKgoIC79zcXO/09PTWd+/eHXrv3r3u5eXlrcxms7cYyvIKhWCOF2IGWKArpppHLQcyPZTuWGfNagrZe9jUBGrQxEPYdS0AmQ1JZiQSiclkMqV6eXn9MH369B8XL16c96jMraPLEtbGf/7zH9n3338/+urVqx+o1erOFEXBOrBI13VFmFkzTdgz/xheDu9DallxjWHEGykFk2YMeAaBMksTy94GNyngB4AcQNEBGk2BQKCFTzCb3ldu0Ca5XK719fW927x58xRvb+98gUBQZTKZINOpxT0FflheA+BCodVqPUpKSoKKiopaVFRUNDOZTFIWfADdIBM7JRKJpEajUWk2myEBogyc7gGUQB0Y+IT7kf+i6YZrmuGCOmsghav1cHRNNOTzXEGFFCZYzRL4qRX5+Pis7tOnz/ro6OiMpqJZbki6VQtfjdFJffuIjY2FLH5Dk5KSYs1mc7REIgF0Xo28yYODzPVgD6Oo79is3f+nRcg6onAdVMnxI9NhHdPMYrFYyzBMqVQqTfPz80sAzYW/v/+FkJCQ7KCgoCZjCnGElrWluSV9e8Dccu7cObc7d+4E3759u09FRUXnoqKiyMLCwgi9Xt+Mpmk3jDAgK/aSNEf1MX5nTdJ15F1IJoTqZ67UCJKQr68vgCEmLy/vXqtWrdY+88wz3y1ZsqRAKBTC4cJftVBg7ty5QfHx8WOvXbs2x2w2d1AqlSC+V9cqQZBXk+nMGtCw5+CzlheGbIdMb40mEjSTEtpOmgUFACAqZDJZsaenZ4FCoSiSy+XFUqm0zNPTs8TLywuK+JUJBAK1wWAA8KGVy+UVLVu2LPXx8akMCwszVVVVWYCKm5ubEH6vrKxkVCqVRaA0GAwiACGFhYUU+G6VlJS4S6Xgv01ZUImbmxuADoXBYHC/e/du89zc3GCNRuNjMpmaa7Xa5mq1OshkMvmLRCIPmqbBhC0GXyzkx+R01eSk+jAsagSR8IkaKVbbwRiNxjKxWLxr6NChn/ft2zeNBxv3Z9zlNBpw4IwbNw6ScX1WXl4eIxAIYPFXSygoNZCVFR3QaKBa0enrn9RqIMhgVeaWSA6xWAySCSzKZF9f3zMeHh7x4MQZFhaWGxIS8khpLuwhPqyThIQE6ujRo/KbN28GJScntyspKYnKz88fUlFREU5RlLdEIrE4lEKCJrLcd02HjD0HTW3AE9ZATVEOsKbd3d0tKmqDwQAMKq9ly5bfP/PMM5u++OKLNB5sWF8VMO+zZs1qtXfv3nl5eXlPicXiEDCVoJ8ORqLB06QQYusas0dY4Tqhw9/oe0WORywWgxaLNpvNEPmllclk5WKx+J5Cobjj6emZolQq71AUVeDp6VnWvHnzMj8/vwovLy+th4eHMSIigvb396cBOAwaNAg1mqgFtVvDSQJ8NpIMtIhCqHqdl5cnhqjOyspKeXp6usfdu3e9SktL/XU6XbuqqqqoysrKdkKhMIhhGDez2exG07RF88FqPSz0J9/f1jlwpfusmVxxfuETKoOD+RuTRbKaqHI/P7/1PXr0+K53797pPNhwMaABpZuTkpK6nD179tPc3NwRoLLDA5u0f5LVM0m7mT1Mwt5FbW0BctvCsREqVVBlVigUihsqleqkm5vbhQ4dOvzeo0ePstjYWI29Y+Gfu08BsNcfO3Ys4Pr169FarbaXTqfrW15e3gUYITI/0kYO0ghX6+EMsEFqNKA9XLsIPDBSBe3fKpUKnUQr/fz8Do4ePfrTwYMHJ/Hx+X9e2aDN+v7777sePnz4/cLCwjFyuRzMAUI4zNCXAf0Y8LMOIcSqoFFfPkIKFajJRBOeTCYDEGkUiUSVXl5eaW5ubjc0Gk2BSCQqaN68+dWwsLCbrVq1KuvXr59m0qRJoNGw67I3os+ezlavXi05cuSIKiUlpVlBQUEkTdOhZrO5rU6n6wEghKZpL7AkWcmf85foHFv4qD1jdNYzdQEN6AedcsFEDppK+Fuj0UBRtkMxMTEQkXL9UU9b7lIajWeffbbNqVOn3rp3795Uth6B5SAgN7K1sEYHNBp2rcea/DLIQwrvgUOFTYZVSVHU1WbNmh3s2LHjib59+14PCwtTP0zOnHYR08kPsX4dkuTkZGVGRkbnPXv2jNNoNOP0en0Q+G6BhqO2Ghc4nPoeNuRrkECD1J7UFEaH3v7gzKfT6aqCgoI2Tp48+d9ffvklRBjxZpQ/iAtCyM2bN9sdOnToo+Li4rFCoRDyslhABuwxdAqGA570iSF9ueqz1Gydf7Iv4lACraVRKpVWGAyGdJVKlRYcHBzftWvXxPbt26e6ublV+vr6mt3c3IwNCiYbAX0A+MvIyKCOHTvmdvXqVfCf6lJZWdnbZDJ1YBgmXCAQeDEMA47b1WeNtf3hDIBfn/l15F40nSCoREESgAZcrGkMQv7VEolkZ7t27f49ZsyYq48y2HAJoAGHw6RJk5ofOXJkQWlp6WSZTOaJ9QjQ1spdiGhOaWwfDa7Ntyavdtax00jTdJlQKEwICQnZ27Nnz/2DBg26O2/ePD7e2pGdXo9nly5d6paSkhJ29uzZ4enp6WO1Wm0EMD+RSASJwqrD8qw1aethw32Wy0gx4oBUJaNXPwJpaAPUsABKdTqdOiQkZM/MmTMXLViwIAmwUT1e+aG7FQ6zr7/+OvLs2bMfFxQUDBeLxW7g/4sRZ0BvMJ0A6OCGf3KdQsn9SmpDHZx/i4+FUCgsM5vN4GOTGh4efjoiIuJCnz59bqlUqqqSkhL1o6BCB0AoEAjcU1JS3O/cuRN+/fr1XkajsT9N021omoZw9WYQ9QLOqg7S/IGucxR+0aEc9zwZliyRSBiDwQAmsnMhISFLBw0adGTNmjUQFfTIXS4BNP7+97/7rly5cipN0+/p9XpwNrJ4NdtaZ6AhZ40EFjWp0TDMEsas0WhAuoIFViqRSk4EBQYdjIyMPBwdHZ0bGxt7P5aVvxqVAgBkV6xYIb937154enp6j2vXrnVPT08fqdPpQoVCoQyBAPpTYHgfrD8MR0XvevS3IX2EyJexB5xYWVeQ8KxCpVL9ApqNgQMHXmlQybdRZ6P+nY0fP77r8ePH/65Wq8eaTCZPFD7qAgrQk7XoNJRI0ZQF+xc1IxgFAs+iiQsAIPwfayqx6wQy6EJEB5g8bzdv3jwhIiLiYosWLW4GBwenBgQElM6fP1/3KEcRwb5buHChLDU11Ss9PT389u3bYQUFBd3FYnEvgUDQltVaVxe5Q2ESw9RJzSPuK9Jfz3LYQ7QuJF5l7pd9d7UL/HIgdQ5N0+Dc/+4TTzxxrl5goxG0Uo1BswcONKAS64YNG2Zcvnz5TaFQ2A54A8aSO04Ax2eJy8yQSeGmIBc4/E+hUOj1en2uXC7f2bNnz/975plnsl5//XXIxul6u8BxAje5FrZt2yZOSEhwP3fuXN/U1NQJJSUlQzQaTQtwOpbL5ZYaLGxYoUViBpU8XAA0rOVEsabhqi9RcI2hlMRK4aB61QQHBx+aMGHCksWLF59/1MwocFA9//zzYWfOnFmemZk5DMIzQQuFNnHcg/bQGx048VBDnwpoC+iPYBPBJ4bUwz42Go2wn7N9fHyOhYeHH/Hx8bnWtm3bvGbNmqkfpfDz+tCd9b8DJ1P3ysrKFgUFBZ3y8/MHarXaxwUCQUuKotxBywEmFnS2hP2GAJDcZ2g+566DhgYa9pwm8C6sZsNMUdTJ8PDwL5599tnjj5oZ5YECDWD6X331Va8LFy6sEQqF7Q0GA9TCqGbqJHqtz6JuiHvJwwClJGRIrOQDcdR6lUp1VC6Xb4+MjNx97NixYh5gNMRsON4mqON/+ukn76SkpMeysrJGFBYWjjIYDM3Bcx7U8JB1FOa8vLy8OoQNGB+ZzppkdDii+jI7LpBFKZp4Q3Xbtm33jB8//pOoqKhbj5JmY+rUqeH79u17u7S0dCbY+YEmCPQdKd9O2thxPtG+Tmqz0KGUBTSYoTfH29v7TKdOnXZ16tTp5KBBgwofpTlxfOfdb+Hll1+WFBQUuGVmZoYXFBQMLC0tHW4wGKLY3B1g1rRoKOA8IHORkFGHZEZVV9VowPoCXgKASa/XQ32pMxERER/07dv3Yr00G84i/ANq54ECjTfeeKP53r17F6Smps6Sy+UUppOGhYWq6voy7oagI0o/qMrDzJ4sEAIJh5ZIJHf1ev1BLy+vbwcMGJC6e/duPoqkISbDyW1COfErV640P3/+/JM3b96cBCnQjUajNzgaog8HZqBFYElKvdz1Wd/1ys3DwA3lZqMWqsLCwr5/+umnV37xxRd3HgXwOmPGjIBjx479PTs7e5pQKPQHVRPpCF5fOnOXDQlY0IRCmsMw/wmEK0I4qkQiueft7X0lLCxsS69evc4OGzbs7qhRo3hfKwf3I2g61Gq14vDhw63u3r3bV6fTjfmDj/ZlGKYZW537T35UZOgwnBHk/nF0TTj4KlYfxwR9MDZIygjFLIVC4d6wsLAvunTpkhgXF/dI+F89MKAxf/58qLI4Ozs7e055eXkLjDtHFZkr+GfAyiG1F7iSAKWyKdBprVZbbjKZzstksu8CAwNPZWRkQEId/mpiFADt2q1btwIOHjw47PLly6Orqqr6CQSCAIVCgcmOqn2GSHuxo0ADpXQyOgUdFsE/BPYFFLejKKqkU6dO22fNmvXpnDlzspsYeW0eLphLZs6cGXrw4MHZeXl5syAfCjh+ommDdA53ROOJZioSNKJAwQo6jEKhUBuNxtSOHTueiomJ+blv374Qcsynl7Z5Nut3IyRqvHLlimd8fPygoqKiETRN94es0CKRSKZUKi1mTfCBA0AIewP9+FCbwd2Ltvjw1G+E9b8bzzUEyazPl0Yqle6Njo5eePr06eRHQXCoGWjYY5CycR6gCNLXX389MSUl5UOdTtcG/K5gkaDnOOkc96BRKqnKRimIHZPFTsswzK/Nmzff3L59+yvHjx+HbH381YQpsG/fPtnJkydbHj9+fOjFixfnmEwmWJ9y0G4Ak0A1LikFk69rz3ol1zvJHDnaDhoq8vbv3/fzGTNeWDN16tSKJkzmGof+0ksvNd+3b9+bubm5MwQCATiGw1Wt4USfCUfenesMCmYTDmgxSySSosDAwJ3Dhg37pXPnzolvvPFG4aPmI4M0ri1rryPzUNOzAPq3bNnic/369QGZmZlPGwyGYRRF+UKGaJgr2IOwF2EeUcuM+47cf64ANOAdwXSC/ibs2oOQdcj2unH06NH/2rBhQ3FD0NGV2mx0jQaoqteuXTvwzJkzi9RqdVeoU4GbHCYB1WGoTXAVzQaMh7XnQv2BKplMFq9Sqb7x8fE5efPmTSiIxTt7utLKdnAs4KT8+++/d01MTHzm7t274ysrK0MgJJat91B9MFl3Bq0fSq8JaMArcFLXM15eXjmjR49eOGbMmJ8mTZr0UBViW7x4sWrt2rWvpqWl/YOmaR+owIr8AD5JWthziCCdUZuB/AboDEnTtFotzTCMPiAg4HyHDh02DxgwYPeCBQvuPQoSp4PbpUEenzhxojg/P9/7zp07fQoKCmabTKZogUDgC1GJsDZIkMEFGuSeapDB2dgojAMyAAM4wnBsNgTWEpno7+//3YABA1bt2LEjz8Ymm+RtjQ40xo0b1/HYsWMfGwyGMRKJRAl+GVj8Cv0yXCW0FcEOqrIhoRLDMOUCgeDHli1b/qdTp07X9u/fz9tpm+TSr3vQIFmlpqZ6x8fHj0hMTIQIlRidTqcC5gHaN2dlFa3JBIDMktT0mc1mo4+Pz4VRo0Z98sILLxwdPHjwQ6FFAwFk5cqVw0+ePPmZQqHoaDAYKPSZIJNikcUJbRFCuEAQZ500nbBOhRY/q7Zt2x4fNGjQD48//vjFhw3I1b3iXfMOcBy9dOlS66ysrMHFxcXTzWZzF4qilBChQgJObgQgvI09GkZnUgGcWdHhGPY58AwAHbCnAdhKpJJMqUT6fXR09DfHjx9/qAQHko6NCjSg7PuqVas+uHfv3usKhUKl1+v/1L819Zejk16T5EOqvrFfrKyKDAwZHIQnGY1GyIFxVSKRbGzRosX2GTNmFDwKCXgcpf/D8DyYU06dOhW2c+fOWSkpKZOFQqEfOKoBo0OnQe6aIQ+02phdXZI5rkm4DzzX2bWob9269YGXXnrp/ffff/92U0/oBRFAixYtGvEHo32bYZh+7u7uUrDFw/tidWM0WXGjC7j0IwEE3ovmT/gf5kWB39m05TRFUcXNmjVL6Ny589aRI0eeaNGiRTYfSeJaO5dN6ii5evVqRGZm5jMGg2GCl5dXWFVVlVyng3QlwmpQgcCdzcr8QMEG1uCx5j/Cmn6g9s09T0/PjwcPHvzzrl27Hkofv0YDGuDoExcXF5OamrrOYDBAIZ7qUsMk8mwoBMplQKitgE/4H7cCIbFwwVO4nGGYAyqV6ssWLVpcTU5OtrsmgWttX+eNpn7GAuf125gtvffee16HDx8eeOfOnTFlZWVPCASC5mD642afxDGhj4W1MXKdP2t6DzgY8WKBhuUAViqVZQMGDNj21FNPfffaa69dbUw6OLOvDRs2uG3btm34sWPHFlZVVXWUy+UWfy30m0BzCXxHRp3gvuVKraR5hHSq5WYNlUqlYOrUG43GlAEDBmyJiYnZMXDgwAzX0hA9Cruq/qtpzJgxylOnTg3V6XTP6fX6oQzDWByGOQ6XloY5psc/dVYXyK//yP76BLl+/yThQ7IxFhyBaY5hmFvNmjVb0r9//60PY8RiowANABVDhw5te/To0YUikWiiUCi0lHQmVaLOmNTa2kCPcriHLHJFxuNj2CqLNMFfBEAG2Gh3NG/e/P/69u2b/KiEIzX0fDTV9kH63r9/v/+xY8emXLp06VWxWBwGpbfB4QvUoqDZQOcvNAVyQS63Xk9t4BokIjxM4bCEttmDGMp/F3bt2nXnjBkzPnjppZeaXDQEmKa+//77J+Pj42M1Gk1XbhEu0uxhqwDC2r+rlxfpPIr5DCDM0MfHp8jb2/ts796918fExByfMWNGOe+L0XR25ciRI2U3b94MKSwsBP+pFymKakVRlAS0GyhEgtkCTPOkv0aDOIs6gAeJsYEJ9HqzZs3eGDZs2O9xcXEPlTDbKEDjtddec//pp58+KC4ufk0ikXiAQ11DmElq2yaYARCBBko7CEBQq4HAQywW6yiKShYIBN8HBQVtT01NLXq4HT4d2C1Nhz85baQQObVnzx5wan47Pz+/t1wud4d1DWADo1PgkwQbpFRu6/rHtmDgsDYBeAADVavVFsChUqmKOnTo8NHbb7+9qSn5FIDw8dprr7X76aefvispKRkkEolAOVRdVtxK4rI65w72MAINEqRgqXLQYhiNRpOHh0dxnz59lnXv3n27XC7P4k2gdZLWZW+YNm2a29GjR/vn5ubOFYlEg8F3w2w2W7JL44U83ppW7P49Dcf7atOakAAI9rlEIjHo9frjoaGhH/bs2fPSwyTUNjjQgJLCS5YsGZCWlvZ/kN8ePIYxDhoZQGOsYmsaDfgOJUQMP2KTMpmEQuGJP5LGfNWnT58T8fHxlY0xRr6PpkUBcGC8cOFC9K5du55PS0sbbTabg0GFi9oN0NiRaxx9Bkipqi7/DQTAZGQWAA14jvW6h0qhJydNmvRxu3btTjeFQxNAxpw5c5rv379/zt27d183GAwewO3R1ITvbM9qsKbRwASAEolEHRAQcLl///47xo4du3HKlCl85l57iOxiz7DOou0zMjLmlJaWjmMYpjlFUZaibRhoQGip7Ry9fWCkJmdka4NgnUahvPwvPXr0+Pj333/PsHOwLvdYgwINYChDhgzpeObMmS/FYvFgjUYjRYRnj8TiCPVQ2kE1NKqzkWGzzmGQBbCMoqi9oaGhn3fr1u3Ww4QqHaEf/6x1CsAaX7RoUbPDhw/3SUpKerugoKCfTCaDvBvVRbi4vgXY0v9Axl+ZGOlrAPejrRedTjGPAOtbpAUzwMyZM/8RHR3t8gXY3nnnneAtW7a8mZOTM1UkEvljyLBFtmRt12QV1trWnjVnUPJ+lsZ6uVx+q2vXrnuGDRu2MSYmJn3w4MF8gcOHaFPDPuzfv7/fpUuXxjAMA5rzzlqtlsL6RbBvMOID1xmeBQ+aDOigDOOgKIoxmUwaDw+P1V27dl106tSpwgc9Pmf036BA48UXX/SOi4t7y2QyvS6TyTxQ3UuqtWy1vTr6ssCQyCxtyNBQtQ2TzTCMWiQS/bddu3bfTpgw4VZTkA4dpQv/vHMoAL4bW7duHbhz504AG0OBZ5CZJnGdY6ZZVOPW1DsCDZTQ0fQHzJKs8YB9GAwGc8eOHXdMmDBh4SeffOKy2QYhV8bOnTvnXbhw4Q2GYXzhgCDfDehhb8ZP3NNIY2jLZDKZAwIC4rt16/bv0aNHn5g7d+5DnxzJOSu6abbSpUsXt4yMjDGVlZV/Zximi0KhsAi3CDTsAbMNTQmMjoF1y4a9gqNynre394KYmJitcXFxTT7stcGABjCQjh07jvwjD8HXUqk0zGAwQGW+asccjPKwx+HLnomHSSSBBrngIGRQp9OV0zQd171798/ef//9HD68zR4qP9rPXLx4UbJs2bIev/3227+Ki4t7Q4EoSCyEGg3SHwjAQk15ILjqVjxA0V8DniPDPOH/CoUC4vJL27Ztu2revHnLXfFA3bZtm2Lp0qUTLl++/LnRaAwGaRNNliTAsDcaAPY3ghaoUSIQCKo8PT2vjhgx4l8DBw48PnPmTF6L8Qhs0YkTJyqOHz8+sKys7D2z2dxPJBJRcB6hgMvJuPtAKUKudfgdgAb7HZjvr7i5uX36+uuv/9rUhd4GAxrTpk3z37x5878pinrGbDZT5MGOGd0aU3VF+miQoYVsEhUwl6yPiIj47vr163ce6MrjO2/SFIBIin379nU+fvz4zIyMjCleXl7eGo1GjE6isPYw22Vt1SdJ0x53veK+QfMCRm8plUpaqVSmdujQ4Z+ffPLJLtcK1RQIJk6c2PeXX3750mg09lYqlRaHPaALgqbarOCk4xyaQdH+jnQEeoD/ilAICUVNZREREb+MHDly/YwZMy5ERkY+VF78TXqTNMLgwW/j0KFDkdnZ2QspinpcpVJ5lpSUWEA/a6KodtTG4TSWdr2m10ftJeHQrKco6kxgYODrU6dOvdGUwUaDAA1I37xq1arxd+7cWfpH1EYLtMEis3BmFUZb1iyZxZGsVwGaDJPJpBcKhT+2bdv20ylTpmQ25cm0hRb8PQ1PAYZhRJ999lngwYMHpycnJ89Wq9UtjUajpWYHMhEAGyhh1QQqanMkw8MZ1jYWHGOlIYNKpdo3bty4N9euXZvlCiGbIE1OmzYt4OjRo4vz8vKednNzU4JTeGVl5Z+qb1qbGVtC4Fn/KkzwZQ4ODj7XoUOHuIEDB+5u1apVBq+dbPg174o9QArzq1evRubn58+haXqyVqtVsSEm1c7UKACT429swIH739qnWCyuUKlUK3v37v3Vr7/+es8V6WzLmBoEaEyePLn3zz//vEIoFPYGkyuZtwIG1dhAA9VT8AkSD0QCwGJyc3Mrqaqq2tqzZ89FFy5ceGgrYtqyEPh7nE+BdevWqTZu3Djh2rVrrxcXF3cSiURSpVJpOVzBXwlBB1moDb9DrR+a+0ipi3SURKdqNsulxXRA07S6bdu2G59//vkvPvzwwwe6rgFkPP3005F/FBz8sLS0dAJkVMUwVlJLURdzJ02fpIYHfaxomgZTiblFixYnRo4c+eErr7ySEBUVZXT+rGeKOfkAACAASURBVPItNjEKCHv37u1/5cqVf+l0Osjh5EkmiyTPpvqsR2fRgHT6RqDBAT9Qufmem5vbpokTJ36+atWqUmf13ZjtOB1ogDZj3bp1/7x69eo8mFQyOyIe+NbC/Ox96bp8PEiQQTrYCQQCLU3TWzp37rx8/PjxTVotZS/t+OcangKrV6/2PHToEFSCfSk3N3cQwzByAAWQSAguDFWFjUgz9+vyEaGr1WAEv+dGY+D+wlBaFmgAcyrs2bPnqkmTJi1+6623tA3/ptZ7ePnll3137NjxSVFR0fMikcgDQn8hvThcqI0h/U2stUJqgnA/Ix1AQwm0hDTiHTp0ONq/f/8fhgwZcmzSpEm8qeRBTbrr9Svs06dPRFpa2pslJSXP0TTtjgAd8ynh4c7Nb1MXAHbmq5KgA9tl0y1AUpCi8PDwN+fOnbtz3rx5Ta6+llOBBtinN2/eHPXbb7/9p7Kysr1UKq12wCFBBjJNZ0wiV71srU1MnAT/g6Q9IpGoQiaT7fP09Pxw2bJlmY+satW+0HBn7q1Hoi3IJZOent5t9+7db924cWO8RCKRgjkRJXtYn1h4iYwqwayWNUlaXAkIfRXYqA3IapsZExMz54UXXjjyIA5eSGq2YsWKqdeuXQMTqkWShPeEcaNDqy2OeRhFAvQAp1fYx0gnmqZpuVye361bt01Tp05d3aFDhyxX8015JBa5i79kbGys6OTJky3Pnj37qV6vnwAh6CYT+FvePwJRy84Fvc44o5xBGrFYDMLDyZiYmHd79ep1oamZ+J0KNN5//30/yACanp7+ilAIeYvk4AlfLZWRk1iXFGPr5FizY3MXB9p54VMmkxmrqqr2tG7d+vOePXsm8nkybKU0f58jFGBTl3f75ZdfPsnOzu4HSaoAiKMZDyUrPHgxKqsuRkd6rYN2BCO7YO9VVVWZvLy89rzwwgsfLFmy5IYj46/vs8DYz549GxUfH79crVZDbhFLNmB04MQkWrYADegb7gOQAT9QB6WqqgrMRGaKorJ79+7935EjR65555138lzBJ6W+tOLvbxwKwJrcvXt3u1u3bn1QVVU1UiQS+WLRM1iX8FNTzpvGGeFfe+Hkm9J4e3uvnj59+idfffVVkyq+5jSgAQ5wffv2HXH58uWlRqOxI0VRlkx/oNYkbdEk46yLidoyuaRpBu+vqV2JRAKV8m5KpdJXp0+ffmbNmjW8DdcWIvP3OIUCADYOHz7c6cSJExNv3bo1uaysLBTybgPYQG0EaDdgTcN36H+AGsCazApoRkD/I/ibKC1f2L179yVz5879trHCO9lEfe1Onz79sdFoHC8QCBQwNjSbYLZUeFf0Ralpz5LqZDQz6XQ6RiaTacLDw88PGzbs6379+sVPmjTpoUhs5JSFxjdSIwVgbU6ZMiX0zJkzr+bl5b1KUZQ7fIfAHj9dhYQk0IDzy2g0pnbr1m1uYmLikaYEqp0GNNauXev90UcfLcrPz5+Gdmi0RQOxgGFw0aKzgAaXEZPtEs5ytMlkSv8jkdKnEydO/PFhK1rjKhuDH0fdFPjuu+/cT506Nfb333//e3Z2dleKAv9IseXQxSqjGElhTbNBmlKwN/RjIB0l4X9CoRDAdcaTTz45edq0aZca2kwITHvWrFn+u3btWlBUVPQ3ABmQLwNAE+mbwo6tuoJlbUAD/0cw3YqoqKgfJ0yYsOa99967Au9YN9X5O3gK/I8C4Dt04MCBL/Ly8iYLBAI3WLdcjXttAL8xaYkJ7Fhgbvb09Dzcv3//96Kioq41FROK04DGk08+2S8+Pn59WVlZW6j3ABOBUhrJ/KyFuDo6aWQmQdL5E9tlQU6Ju7v7isjIyO/PnTvXZMOEHKUV/7xrUGDnzp3NduzYMeHUqVMf5OTktEbzHpoXSE0deQhzNXgI4PHghnYw0yAmBGMYxhwSEvL1sGHDFq9du7ZB1/4777yjWrVq1ew/8li8aTQag8AIjuOAscGFGhh8F9RqILhCFTbOFGhCQDMK7yWRSLStW7feM3ny5IUfffRRilAo/F/1LNeYWn4UTYACACxGjhzZ/8CBAwslEgk4aUNVP8vaBLBP+j+RiSZxL5JnTkO/Luwb2BPE2VkaHBz8fd++fZfFxcU1CU2eg0DjvjfhH4m5vD7++ON/ZmdnzzUajTJkftzJICfPWT4a6ETHDaFFBzJQLzEMUy6Xy1f36NHjy5MnTxY1JZVTQy9ivv0HR4GDBw+6bd26deaRI0fmZ2dnh0JJEzAPgA8CXNb8F0ifDBw5ZsS0tqdQIyKTybK7deu26IUXXvjP7Nmz74d9OPmCvAUXL16cmZWV9TEUmAPzKQoc8MnVbKKGggQc5DvhuwKTBbqIRCIjRVHxU6ZMeW/NmjXnnDx8vrlHjAKxsbFQNqB/SkrKv6VSaUeFQkFVVlZaTP6Y44arIXSGFr6+ZCaFZ9ZBHBy9s1u1arVg2rRpG5qCVsNBoCEQQKTJwYMH+2/evHmZTqeLJvMAkPYl/B6ZobMmDPuAySAXCMGwDGKxeH90dPQ/hw0bxoex1neV8/c3KAWOHDnis27dur8dOXLk5cLCwnaQspzcI1zwUBvQILUFOGgE3AaDwdisWbMTY8eOfWfDhg2Jzn4pkBCHDh0adu7cuXUymWxAaWmpJV8G5gjhAg34GwUPbu0j0jTEMX3ejI6OXvrxxx//NGbMmAYBS86mC9+ea1MgNjZWun79+iczMzPfl0ql3WmatqxbBPvk6K3tvcZ8O9jL6KckEAh0CoXixBNPPDF1y5YtRY05Dnv6chhofPPNN0HLli37Z1FR0YyqqiolDALDSUlmx/Wmt2ewtT2DCYvItM6QxEcoFF739/f/cNy4cft5509nU51vzxkUWL9+fbNff/31yZMnT75XXFwcIZFIKGBqEMJJMjdrEVZk2DjsMTSdgLkCVMDANFnHUEjSoe7YseOmp59++uPY2FinMqdXXnmlxc6dO/9RXl7+EkVRSr1eb4moIbWaCHpIKRFDfJFvkMAEwQjDMHqpVJrUsWPHRbNmzdo/Z86cJl9kyhnrhm/DORSIjY2Vr1u37vG8vLzPZTJZd61Wa0kyaS0rrTX/KOeMwnorCNZxL8An7CMIdxWJROqQkJA333vvvR8by9Hb3nd1CGiAXeull14avn79+m/d3d3DNBqNCJ2+SLsrajNQ4uImHbJ38AQj+hNDA9RnMpnAZKIJDAz8MDo6+j+7du1qUuFAjtCEf7bpUWD37t3KzZs3P3Xy5Mm379271xX2FtqGrQEMEsSTxdmAOaJNF6M74F4AG2wtkMzo6Og3ly1bttdZmTPBuXXlypWzUlJS3hYIBEFsGLkltB3zZeB4SUZN/k5qQpGZsu9hkkgkV7p167Zi5syZOxvK7NP0Vgw/YmdSYP78+Ypdu3a9lJOTs8BoNHqDwg18g9BfA/cYHPwAlJ15htnyHujsjeNgwQYtFosPvPTSS+99++2312xp50Hd4xDQWLFiRbOVK1cuzsrK+hv4ZmCCIVJiaWgbF5mCGcANGx4I1Vh1Uql0X79+/d48duzYXd4v40EtMb5fWykADqI///zzuMOHD39SUFDQEqI1UKtBOn2SABvbJhkfag7YrIIWpkgwKlNgYODWmTNnvvP555/n2Tq2mu6DZGQbN26MOXfu3GKj0dhJKBSKyAR58BzXTMpVQSMwgvswvJcttkbLZLKUAQMG/HPChAknXnvttSaZftlRGvPPNw4FRo8eHXLo0KEFDMNMMJlMnqgNhL2DCeIAsGMxwMY2pSDIQc0lVCjW6/UFI0aM+HDGjBnrGzqizJFZsBtogG/Gzp07B27dunWNTCZrg/kynOXkaetLIZNCiY0FOwaJRLK/Y8eOnyQkJIA9+n5uZ/7iKeDiFNi2bZv7xo0b3zpz5sxL5eXlLUCzQQIHrgc87Dfy/9zXI9W/7O+MRCLJ7tWr17+mT5/+39mzZ9udSwbG9s4773T58ccfP8/NzR0qFosl0D+GsdZUEM0a0EBJDWrBsIzcpFAobnbt2nX5lClTNjfFtMsuvtT44XEoAH5G/fv3b33nzp13i4qKpkHSSThX4EzBKsOg5YC1Cto6LvhvCIKSIBzbh/EggJfJZIagoKAdTz311OvLli0rdlWB2m6gAR7zn3zyybvx8fF/FwgESjc3N0u2PrhINY+tnvP2ThKYSTDbICwGABVCoTC9VatWb4wbN+7oihUrHlidB3vfiX/u0abA119/Hfzjjz++ev78+VdFIpEXAgms0lobddDBkgT8ZHQHME6dTmeUyWRJTz311DNbt25Ns5c5QYXa7du3v3P58uW/0TTthf2QFWWtjZULNEitJOuIx8jl8ttdunSJnTJlyv758+fzZs9He0s02ttD9tDNmzdHZ2ZmrpPL5e3VajVF+hwCEEag0ViDIk2nMBb0a4JxeHp6Mmq1umD48OHT33nnnd9cNf2+3UDjlVde6X7o0KFv09LS+oKnPBCdtAnD385QLdXVBtp2WdQJIKPKy8trWUxMzJdxcXG801hj7Qa+H6dSYNmyZb7ffPPNm5mZmbMFAoEPlFWHtY4+UPBJRnVh5yRT4posQBqD/4M0JpVKTWFhYcunT5++/J///Ge9c2uARnPdunXTjx8//pnJZAqgadoyPjJU1ZbIMhgPmlzhdxiX0WhMjoqKWvzqq6/ucHUnN0cnHaTohQsXijMyMih/f39JZWUlhSosqOOi1+tNf9RkMkE6+dWrV0NxDl476yjR63j+5Zdflvz3v/994Y8UMB/qdLoWkD4fhFnS96kmbV1DDo1MD4EaDVbAZ9q0abNj/Pjx7y5duvROQ47B3rbtAhoQf7x///6XL126tNBsNlvyxWOiE1uYi72Dre05QJpQ+6CysvJs//7958fHx19siH4e5TaBKfKMrvFWwKefftryP//5z0epqanPQfZCqPOBYB6YDjqqIdNBcI8j5O5FzGPBmikYLy+vpAEDBnw0bdq03fWx78I6eP3111v9+uuv3+bm5g5nGMaSiQuFAswAXJuQgIAI1c8gqbERJ/k9e/b88uWXX/5+9uzZ5Y1H7cbtCcIqk5KS3M+fP9+8qKiom9FobCmRSLwNBoPKbDZL2fw/BoqiNDRNa4VCYZafn9+lTp063Q0KCqpYv369nt+LDTdnEydODNm7d++/tFrts+7u7pbcUADQMSqqLgG4IUZmDWigX5NMJssZPHjwR2+99dYmV9Rq2AU0pk2bBpOwvqSkZBBFUSJrXu4NQeia2vTw8AC0yZSUlOT5+fl9OGfOnC2xsbH363DzF0+BJkoB8IF46623Ohw8ePDt7OzsiTqdDsLHLWGjWCeEBBnc1yT9N9CUgsyKdR7V+/j47JkwYcJba9asybKVTLGxsb5btmx59c6dO2+YzWYfaJPrRwJtkaF5tYEheBdIGCoWi8s6dOgA0SWr582b1yQyHtpKM1ZzIUtISAhMT08Pz8rK6l1RUTFQoVAE63Q6cDxUiMViqV6vB9CGVUUhcg7QPWQ/1QmFwlKRSJRH03S8l5fX+fDw8JSuXbsC8KiKjY012ToW/r66KQAmlB07dnRLTU1dT9N0hEgkkmo0Gkv0FmbvbezIExKcoxABn+7u7gK1Wm3s0KHDlo8++uid5557rt4ayrop4tgd9QYa27ZtUyxdunRyYmLiCoqiPIHpoRoJE+80Jtpjw3wAaVaIRKL1zz777OJNmzY57E3vGFn5p3kKOIcCYKJITExsu3///o+vXLkyBjQbcAqRoa/WtIjkd9yQUvZgxzwdJZDMburUqettcbiEwnCLFy+eevjw4Y/EYnErk8kkQvCC2gnMZYMmkZo0LPg9q2m527t37x9efPHFb1544YWHBmQATpg0aZLbpUuXuuTl5Q01mUz9GIaJMBqNzSDfiMlksgALoAHwMtRSYV4gpCnMN3sPFNYyQLZjpVJ5m6KoBH9//zNdunQ51aVLl+LY2FiLo1rTvu5nnH7QF5hQjh8/Pvn27dvvCQSCCHA/RJ9Abr4Xa2NtiHOQ9MGCPkGTD5dWq2V8fX2zR44c+d6TTz65rT4aysagc72BBiTo+uyzz76A4mlY06ShgUZtdmd2Mk0ymexYZGTk22PHjr3eFFKyNsbkPox9uAYLalzKAtg4efJkn19//fX97OzsEW5ubhQ4PhO1TCxSVm37hBwxHFiobYCkds2aNTs0fPjwWVu3bs2u7c3g0HzllVfCf/vttzW3b99+XCKRiEinUy6ggb/JHB/WABGAHqPRqOvcufO6efPmfTlr1iwofPhQXJAI6pdffumUkZExsbS0dJRAIAiVSCRK8MGAhGbIN9FPBSVl1BAhuCAriqJgBQSCMjJCodDIMEwORVFX/f39D3Xp0mVPjx49CngNh3OW0PTp03327NnzWmlp6XypVNoMfJEwER2CQGvh2+z8OD3fBnePA9DAEHiRSKQLCws79Mknn0yfNGmSS5kd6wU0QJX76quvjtq8efNStVrdHhgPbBZU47JRH05xAiWXCW48a+nL2cyDaaGhoR+PHTv252+++eZ+oQj+4inwEFHg4sWLkuXLlw/Yvn37l2azuTNkD4X9gGF33P3CZX4kEIHfAWigXwRN0/lt2rT5xx9mmp9qC3eNjY0N+Omnn97Kzs6eo9FolHAAkqXeycR8OB5Sy4nfEWMDy4A+ODj46IQJE/7+1Vdf3XbNSqz1g7evv/667ObNm22Tk5NHVVRUvAgOhTRNK7FCKKrc0eRshS5/WrlwH2o7cO7ggAHag98AO7cmiqJKlErl2VatWv3ct2/fPStWrCjn/TgcYwJsan3/s2fPfmIymaaaTCYlHvaoVawNaJDp9R0byf2nuUADQ13hf9BXQEBA5rx585744IMPUpzRn7PaqBfQgJDW2NjYvycmJv6dpmkPkFbgxWHB18T0nDFQ0psd+iELqFEUZTQajZt69uz5z4sXL+bzG8sZFOfbcEUKrF69Wrlp06YXL1269FZVVVUoeMOjcygCCS4jwsMf9yoebmyWUMteMplMBpVKtWHChAkLfvjhh1xr7w5alVWrVo07e/bsZ3q9HtTIlj2PmhFu//g3fuI4SHUywzC0VCq9PHHixIX9+vXb70hOD1eYr9iFsaKk60nNrly5MjwzM3OywWDozzCMDxSXI5OmYdZk8oDC3zFqB94H/V64hxXMIaktQhqDn5rRaARBK6tly5YbOnTosL19+/bpvPDl2OoAf41ffvllwK1bt1ZUVVV1UygUIth3sKe4afURDKCJg9ToOTaKPwMNXC+k2RLWSbNmzcoGDBjwxuLFi7dGRka6jBmtXkDju+++6/Duu+9uVKvV3UQikRjD7dBBxlq6YWvq0voQHLUZJIok2qQFAkF6QEDA5NmzZ1/m1YX1oSx/b1OkwNKlS922b98+5cKFC+9SFNXGaDRW72GuVzq8H6rfEZBA5ApmNiS0EYxUKs0NDAxctmTJkpWTJk36C4NasmRJ22XLlq0qKioaCDm58OAkTSdceuKeRUEBP9n7QJtxu2/fvh+9+uqrEPXSZPPdgNQ7Z84ctyNHjgxNS0v7m9lsBj8Mb4qixAAyABio1fcj7RFosZrYP31H/p+UXkmwRoIOElQi8GOfAwcH8OPI8/T0/Gn06NGbe/fufcsWH5ymuCcaY8wzZsyQHzlyZFZOTs5HEonED30Tra1/8vDnpnxwdKykeRLBKKlZAXOar6/vz2vXrv37uHHjrAoNjo7BnudtBhog0ezYsWP8nj171mi1Wi/ojIzjt2bWsGVAXMJxn2FtuALMyAb/RyQJOTMYhlkbHR398blz5yps6Y+/5z4F+FDVprsSli9f7r169ep3bt68OUcikbgjM0ObPxxiCCK4BxNXAoN9xYbtmZRK5bn58+c//+mnn2aRmkFwAF+5cuXfEhMTP6usrIQEYkLcgzV53iOzxeRC8DfE/EP/FRUVAGwqIiMj/2/cuHGLYmNjm3RCrkGDBgVfvXr1mYqKilcYhgmhKEoOPhjodIvhvlxaNYSzIGdVM0qlslKhUPzm7u6+ceLEiQeXLVt2P6sif9WLAsAvn3766bZ79+5dYTAYRkgkEjHuAdKJFwEfnls1gcF6dV7LzbiGiE+Y89tvvPHGK59//vkxZ/XjaDs2A43Vq1d7fvvtt58lJSW9AhgDgAWZMa02yaa2Qda12fD/6JXNInZgWFDPJDE8PPyt1NTUky7hpuzobPDP8xSwgQKsU2aHuLi4f5WUlIwQiURuKNUg2CBV8dgk16wC38Mexmdomi4dMWLEB6+99tqPo0aNsgB3VsCI2rt37yK1Wj0QQAa0g+r/+uxtLLZWBXaf0NDdkydP/nTx4sVJNryyS94CtPnyyy/bJyUlfVBVVTVMIBD4UmKxiJJIIPuqZcxYn4I0+ZLz4ajGty7CQJVPhUKhNRqN2WFhYd+OGTPm5yVLltzjTcx1Ue6v/4e6Pt9+++2Tt2/fXqnT6QIgUSUmzkN/JXQh4IZ2Y2vOnm+uoA5/y+XysmHDhn06f/78f7tKTg2bgAYyto0bN67VaDSQCdSiVQCTCTqAWiNgXSDC1qkmwQYyR9BmmM3mZRMnTly+efPmmrUZ9fPjsnVI/H2PMAVcQRsEduNbt25FHThw4N2KioqnIMwUQyJRckbtBXequEIBaBpAK6LX681+fn6/jx8//qM1a9ZYpKHPPvus+dq1a/+Rnp7+skgkUsF3XLNJTVpJ+B54BHxC+2x2Rb2vry9EuXwxevTo864WhmfrsoZD54cffuidlJT0llqtflImk0lgXWCOE+SLOCfWgIatfTlyH9Ae8gyZTCZao9FktWnTZuv48eP/vXTp0nxH2n1Un50zZ47PmjVrPjcajVNYbaIlNJko6An7CEu51xl15Qw6kpYFtuCayd/fH4oQPvvBBx8UO6MPR9uwCWjApvr555+fPXr06DKKoprDpsFYeWRq1lSozgAa6EQG/aE6ViKRgG/G1bZt28565plnLvHhrI4uA87zPDhzMkEbpjnIabFw4cI+Fy5c+L+qqqoO4KQGZhC4wCSChQ65mgyuEyJh5mDMZnN5VFTU9+PHj/+iTZs2FVu2bBly6NChFUajERxAxeQBSmo1rO11BBoYTltZWWkUi8WJw4YN+/iFF144Zs0XpGEo5dxW2czIUYmJiR8ZjcaBDMMoFQqFpdIu8kWkKWlSdrY0a8tboRYJhEO1Wm1mGKa4ffv2q8aNG/fNF1984RKHkC3v4Sr3AMDftm1bdHZ29rtqtXoURVEyGBuaL0lnXq5rQUO9A+nvg1EoQqEwZ/Lkyc+OHTv2nCuAeZuABpSDX7t2bWxKSspssD/ChoKXw2JmQEBrPhrOAhrQPhKTTe4DyWq+fO6551asXLmSr2fSUCuYb9flKcBK1tMuX74cKxKJgg0GgxDNmiBZkY5p5D6F3+F/pA8FHEYGg4EOCAiAqIWv2rVrd/f8+fPjU1NTn4HMiAj2sWhabaF7ZL9wPxx4BoPhZrt27f41YcKEuKaaWGr58uWKPXv2PHbu3LkPq6qq+oD1CWhJapPICBukkb2mZUcXIGirQPuMoJDVKpV27Nhx1ejRo7/+/PPPXS6LpKPv3NDPw5778ccfu8XHx69iGKYHmBOhT24wREOPA9snz1lCu2Lq1q3bV88999xnrlCU0CagMXfu3Igff/zxu9LSUvA4t/hnAPMAFIc2SC4TcxZ6R4SIzA00t0Kh8Fq7du1enzRpUjyvzWis5cz3YxsFGl8dFBsb22rDhg0L0tLSnpeA4ZhNlAXAAcEG6QRKhqKi+RMdFlltiMlgMGR5e3tXmkymULVa7QlmASwsBW2hZqMmmiDQQD5hNpt1QUFB62bOnPnFZ599dtc2WrrWXaDJOHjw4MBLly69ZzAYHpNKpTLMfoogDAUi9JkhNb3O4on1oQpksoQxos8IACIo1ga1MSIiIr6cO3fumoe9cF196GXrvV9//bVsxYoVYFKErKFuQGf0z7C1DWfdR5ouEWgoFArG09Pz2IwZM95etGhRorP6srcdm4DGlClThm3btm0tTdMtgeFAZ5g7w5rJxFnoHQiIG5eI/1erVKpvxo8f/+WGDRt41Z+9M88/99BQAEwo69at6/Xrr7+uqKio6CkUCi3CAJpPcB+RwgACAfwO9zEwKgAHZrMZamxgnhyL7wEcpmQEhbXqsaSUxfIJxmAwGLy9va8OGzYMso9ebYqOiAAyTp8+HXXmzJkVGo2mh0KhkIAkC0COzNzJHuQWMqDWl1xoDwpsADDEonosEGXc3d2vjBkz5u3nn3/+9KhRo/hEh/XkCFOnTu164MCBfxcVFQ0Q378sAJwL6uvZbL1uR20G6cfICgQMRVEFTz755LudO3fe+KAF8jqBxr59+2Tffffd61DJDswmpLoUNxIiKhJZObqhsC1ys7KevJdCQkLmLl26tMk6ktVrJfE38xSwgQIgYcXFxU1MSEh432g0tgeuB6pcIhTc0gopGJBAHr5HrSH8DiAFDlHYx5B7A3w/kJmxQMQCPOCqzRkUNMoeHh7xQ4YM+fqJJ57Y7dykXI2jPQLhql+/fp1u3br1bnl5+USTySRFEAfvjxEG6IsCoIxMKsidPkd5ow3LofoWDHPG+UVHXhYc6VQq1W8vvvjiZ8uXLz9Tn3b5e/+fvesAa+r627k3NwkJQ6TixKq499bP1Wq11m1FcS/UggNQEMRtXCgOVFBxMRy1CirO4p6Is+692jpxgCIjZN379Rdz+B9jkGwSvHn0Yd17xnvWe36Tw4GYNnv27AG375Ds7OzyEDMF1hsim/m5fpsSO03zBERy1BI1WZMmTTYMGTJkir+/f6GGfyiQaEycOLFCQkJCdGpq6k8KhUIV4Q5fXOZaNDh5gY1NLfqT29vbR7Zt23begQMH3ptywNiyWARsHYGFCxcWW7p06bj379/7c7ncUkgtgm6zUKSI+gAAIABJREFUyPNB203bkL5rEg8k7UDushRF0SRJ3m/cuPGsMWPG/Dl06FCbjOHQtGnT0tevX5/PMExvuVzuBBFZ1RFVv5puwVx74yd2p5tDP24IrGWMQWolc3Z2vuDh4TFow4YNzw2ZB9/yO2KxuOyWLVumglcWCPrxNQbYmzoEuTaskeRR09sM8hi5ubnd7dq167C1a9deLsxx+irRAJFsZGTkL4cOHQKrdje8obilqzk6gN+S1Bsaw+VyX5crV24oWKyzUUDNgTpbpi0jADfvXr16VUhOTp6Xlpbm6ezszEd6YyTdwG9ZX1N9FISDNr0wvAPkBvJwfPjwgebxeC8qVaq04tdff123aNGizILKtMa/e3p6Fjt27NiI9PT0mVwut5hSqVQF4kKkCpEJ9DU/6U5h9a0AoqGSWFEUJatbt27QwIEDY4KDg22SDH6Jr45MzMiBmS0Wk+cvXOhw4sSJaA6HUy43N1d1poIUEKnVjKyiwNdxqQZ8D0QfPrDmRSLRh1atWs0KDQ2NatKkibzAwsz0wFeJxuXLl0Vjx44dd+nSpVkMw0B6alUzzMrU1R3FJRrqzVHh4ODwZ7NmzfyPHz/+r5nwYItlEbBpBCCIVEREROe//vprhUgkqiiVSklYP8gY0FS3LE2igd/k1B4msipVqiR06tRpxsqVK20yIyukCT969Gj3J0+ezOVwODXBzhalcUcGtZbYCy0wIRkej3eia9euUxITEy/Zog2NBTDKt4qAgIAqq1evXiyXy7vQNM2HSzio1nJycszeLOQsgeYhSnIKax7mKsMwinLlyiUMHjx43MKFCwtNC/BVohEfH196+vTpCx49ejSYpmkK1/+YG0GcaKg3xw8VK1ac3bFjx1Xr1q0rNGZm7n6z5bMIGIuAn5+fU2JiYuDz58/9uFyuCzJSg3LxbKuGHpL4LRl5XWhkGFU4Ojr+1atXrykbN248ZZ0ZWb+OMkiHmjZtWvvmzZuRUqkUPEy48AbubWNuqa6x80DX99WSrZzy5cvHDB48eM6CBQve6vou+xyHIxaL+Zs3b+7/+PHjORRFVUAkVJfoucbihxMNOMy5FJVnI4ISupEkea9FixbDTp8+XWgk8qtEIzg4uFVcXNzyt2/fNlZrBfN0kpp6IWMB03xfi2j27o8//ji+Xbt2xwrbgrbgvlpGbFdwO3R8Qq/m6vWwjg1gHzMlAnBIDhw4sO6uXbtCpVLpLxQYS9D0Z4agyC3dEIM1LZcAlaU93OJkMhkjEAieNWzYcMbIkSPjbdV1cuzYsQ4JCQkhb9++9YeIqMjQD7mtqlUOeTp4a1Wd6DKv1OJ2SHL3qlGjRkFBQUHx1hDkSZe2W8szI0aMcN+8eXMMh8P5Ac5KZBT6tdgamoacpugLMvCGsmBOquPkpFesWHFKbGxsTGGFJP8q0ejYsaP3qVOnIC10CQQCYvHmAAkHGvc6AWN5hmHWDx48eBrr0mqK6ciWUdQRiI+P569atarVmTNnttI0XQrE/rDx4Gmr8XwMuko3cJKBNjPYE9DNSqFQZNSoUSMGIova6s1YndPi53v37kXI5XJ3IBnQVxT1E+83Hn9Ec07piqk1zEW1Fw3t6uq6e968eT4+Pj7vrKFdttIGMMSeNm3aMqVSOUwgEJAwV/Bgbdr6Yc4zFAkC1ERDVqpUqWUhISGzAwMDCyVLcr5E4/Lly7yhQ4cuvH///liGYewAKFhUyIDMnCBBXWhDg0AoCoXi/ffffz8qJCTExO5x+U9j9t5uK0ucbWd+CEyaNMlx165dsx89ejSSy+U6QjY0lAQKBZjC39XlYNQkGvA+ZhxJc7nclE6dOk1t2LChzQbT69evX+U9e/bMzM3N7UcQhCooF27RrykFyg83XfAs7NmLopiC6guMFx0dHe/17NlzTI8ePc6wUg3dRyc2NtZu5syZY589e7aQy+VCjBWVjUR+do3msHfUNApFZAPsNBwdHfd7eHj4x8bGPtO9V6Z7Ml+isWHDBhexWLzl+fPnv3C5XJVBGRLFaOY5MV1z/lcSJtFQkCT5V8eOHQceOHDgiTnqYstkESiqCPTv379JUlJSaEZGxk+gwoV+IrdXPC8D6n9Bh6M2oqE+eBlHR8c3JUuWnNG7d+9ttuplEhYW5rhkyRL/tLS0cSTJLa1QyAkkxcXzLqHvvxackOEwHPhn7R+QZiCvJJFIlOXq6rouODg41NfXlw2IqOPggbqyW7durc+dO/dnenq6A561F0nA8KJMRTQ0yQV+SUeG32Dcy+PxntSrV2/M5cuXj+jYJZM+li/RCAkJ+T4qKupwVlZW9fwWkymlGki3hAcBUutBP5IkuWrChAkLbHXzUo0YKyIx6cTVVhgL8ZeogAolLCys5/Xr19coFAoXtBHhsTSwm0+BHmWfGZ+pI4eqiUaui4tLYqtWrfz37dtnk2J3wGrhwoW/XL16daVAIHDLzc39LCMuImGIZOAYahK0ggib2ReDHhUg4glfaZpW8vn8B2PGjBm2dOnSS3oU880/Om/evAoREREn3r17V5GmaZUbNFJVas4HfM1pIyL6gKl5DqP5iSRvIK2Sy+U5zs7Oa+bMmTPV39/f4lFg8yUa/v7+dTZu3Hjk48ePpY0FQhfQNBme+hYBTOx+lSpVpvTr12+v9RuB6tJT9hkWAcsiEBwcXHrLli3bUlNTWwkEAgpcXfHw5LgXiTbjUE0XOmg9bKLq9OPgxqe6MVWvXn1yz549d9nqOvX29q67efPmUIlE0hmkPygWguZFCx0S8FVXNYplR1y/2hDRcHBwUHnVKJXK7M6dOw/Zv39/on4lfdtPx8TEuAYHBx9IS0trbG9vT4J7KyIBnxkLg5RLffLqSkj1kYDgz6JsrpBSQCQSnR02bFiPqKgoi7u5aiUaEKhr69atXXbs2LH5w4cPTp9Pn08ofQ6QcXdJTRDRQobkP3w+f0+/fv0mbt682SZ98b/tpcf23hoQgNTWly5d+jk5OXmZRCKpLpfLSThEQYcMNy5NiQa+trXpfZGtFgTmgo0sOzs7q3z58pt69eo1a+nSpTYpzQAd+/r164NSUlICnZycin/8+DHPwFXbYYCTM0tcxMw5j1DYAqGdkCOTy2Be0O7u7uuGDh06USwWmz8YhDk7Z8GyQSIWFRU17dKlSwFZWVmOeMJR1Aw0b5Apgqb6EiexMO++ZkuVn0ZBk2igZIgEQdxp0qTJ4JSUlGuWjpWilWikpKQIFy9ePObEiRNhmZmZqjBjOKvXlYXpOsaaNyYMQKmLi8tif3//MLFYzKaD1xVQ9jkWAQ0EIiIiXGNiYoKuXbs2hsPhOMKf8Y0Q35y+ZneA53GAdSsQCBQMw1zp0KFDyMSJE5MLy33O2AHv169fzWPHjsW+e/euSbFixVS2LJmZmV9ILIytx5rfxwz9GTs7u1NeXl4DVq9enWrNbbamtjEMQ3p7ew/Yt2/fktTU1NIoXxAyC0BtxaPKIpKHExGcxOIXAc1zGJ2T+NpFdSFpG3LHVucxSi9TpkzIqFGjNonFYpklsdNKNFavXl187dq1offu3fMBXRNsPJohd03ZyPwC35Akme7u7j4iNDQ0qW/fvhYFxpT9Y8tiEShsBMBYzc/Pr/rWrVvnpqen9wCbUKTLRW1DFwhNoqEt5ga8y+PxGKVS+bJGjRqz+vTp87tYLM4t7H4aUj+4JsbExAQ+efIkRKFQCKBvKJGcIXFGDGlDYb2DPGpwEb+acDzt3r37b0OGDDnGep/oPjqDBw9ueeDAgVUSiaQ+hKsHqSHMJxQWHGVAzq9ETcKPftb8PbyvjWhAXUhdgtzZQc0JH4VCIXNwcIjz9fWdbmnXc61EY8GCBRVXrFgRkZqa2g3532sG/NEd+oKfxIkG9j0jFApvNG7c2OPMmTN/W1rUU3Cr2SdYBGwLAVCJhoaG/nTmzJnlNE1Xp2ma1LwlaftZm40GPEdRVKZQKNw6fPjweZGRkTaZkAtuoR07dmxz4cKFxR8/fmwKmzJs4OrwzXnuiQgX2xrxgluLDjB0ECK1mEwmy6lTp86iPn36LGWlyQXjiJ4YP358qS1btoRlZ2cPyM3N5cPv4eBHkgs87oqm6kObVPFzogEmC5+8P79GVHCiAc8iGxwwRRAKhZeGDBkydt26dVd075XxT35BNODmExIS0nTNmjWRWVlZTcH3Hi0yc7F7nGhg4ju5i4vLlt69ewesW7cuw/iusiWwCLAIhIeHu8TFxU159OiRd05OjhOKgYE2QG32UrghG8rMCmEkBQLBjdatWwdMnz79jK2qTEBNPHLkyKD79+8H0zTtCHigbNHqYEeqSWNqdbE1zUQYc/zGrZZ0QW6pAwMGDAhavXr1I2tqr/W15X82ivHxCfzQ0Pk9r127FsHhcFwhNAQeVVtzfcG8wu0y8LMWP29xiVNB/UdEA95HwfTUth6QrTe1U6dOo/bv3/9nQeWY8u9fEA0wHHv06FG3P/74YzlFUZXw2P6oYlMuOszwU1U8IhpcLje7dOnSvsuWLdtaFNQmQOBYqYwppy5bliEIwDz09fVtuHfv3tA3b978DFINJK3Utq7xSwBunyEQCLLLlCkzd/jw4ZG2bDC4dOnSasuXL498/vx5e6FQqLLNgMBVuJt9UScasOeigwz1WyAQMFKp9MXAgQN9tm7datFDyZB5bU3v9OjRw/HYsWO/yWQyDw6HUxUILMMwPNj/uVwuxGWBNUeo/6uwR4QA+oHWo+YczG8eakpGkPQEV4WiZGtSqTStVatWQWfOnImzJGZfEA0IvxsfH//byZMn59A0/R0eeMRcvuIIaAQsl8sF3e8Td3f34U+ePEm2JCBsXSwCRR0B8LD4888/Pfbu3bsBpKnQX1AV4B+kLoG1iW72SJoBe2HZsmXP9erVy2fVqlW3bRWvhw8fCmbMmDHq8OHDM9PT00uCXQayR4MLVn62Y7ba3/zajdRFyH4AEQ+apj+0a9du6tGjR6OKWp/N3R9vb+9iKSkptV+8eFFfLpfXzM3NLUdRlIim6WIymQxSeggJghAyDCOiKIoHSUuRBANdtqGN2ubg11QuSDqF7DNgzaJzW/19TtmyZdcOHz58klgsVpgbB1T+F0Tj999/L758+XLxpUuXRhEEIcqPaJhKqoFtXnnuZCRJKuzt7Xf98MMPgfv3739hKTDYelgEvhUEFi9eXHLp0qWbUlNT2/L5fFWYbXUMhbzbrSYWsFZhI1MqlQ/btm07a8aMGQm2qjIByU5ERETtiIiItY8fP24BN017e/u8CJnaJLlFdW5g46o6lJCRMMMw8lq1ah3w9fUd7uPjw6qvDZsAhFgs5r18+ZKCGDbwef/+Pf/du3f8jIwM5xcvXjTOyMhonJ2dXUWpVJZQKBTlGYZxBo4BGYNB6oE8SLCLuGod4naTmioZaCoWQ0P1PKgEpVIpeBRdGjRoUOfo6Oh0w7qk/1tfEI1Zs2Z9v3r16tVv3779mc/n81GqW3NJM3CigZgcSZLZlSpVWg6JmZYsWZKtf7fYN1gEWAS+hkB8fDx38+bNA0+ePDkDNjk4aJG3CWxKKCcKHDrIch42NoqicsuUKRM7cuTIeWKx+KWtogy2GaGhod6HDh2aJZfLi8MmDPsPyrYJX78ViQYmwVARDaTOBjuckiVLPujYsWOPTZs2PbDVsbbmdvv5+QnS0tJEOTk5Ljk5OaXS09NrpKam1n///n3z7Ozs6uCKThCESqWnGd8GjdP/VCzw1P9iXCECiTLJovNVLpc/GThwYKetW7c+tBQ2XxANX1/fGhs2bEgAcQ/DMNz8jFCMkWgg9oXAQ/opxNAIgnhVp06dYF9f33gfH5/PZbqWQoat55tE4FuypYmKiioZHh4+/eHDh6NAlIsR/S+SiKkvBCBpvNqlS5fxnp6eF23Z7TEmJqbWrFmzlrx+/bqDUqnMS4KFboKWyOdkLQtMM2Q1fjt2cnJ617x58zGHDh1KJAhCaS1tLortgL0nISGB/OuvvxwuX75c4fbt262zs7Pb5+TkNFIqlaUpigLXawJJ21S2GCDZUP5vWHCPkzy1hTpVABAOINRKpfJ9hw4dBrZo0eKwpaL4aiMadVevXr2bJMlKILZBjcVvO5rsStdBVxX2yYkl74Pcb1CZat3StQYNGnhdvXr1BkEQtK7ls8+xCLAI6I4ASDU2btzY7tSpU4vkcnk9LpfLhbDJsBnBYQNGkbCZQQRQiBYpEAge16hRIywoKGizrRtoT5kyxWPJkiWrlUplSeQVgFw7AUF0S9QdTdt9EpNgfNEJHo+X83//938LNm7cuKRSpUo2GSfFVkdGLBbz79+/7/T48eM2Dx8+7JWRkQGh8Z25XG5eEE08ciiSRiFjUDSHkRE3/Kz2MlPUqlVrbu/evZdYypD7C6IxZsyYxlFRUYc4HI4LsCecABg7YLgkAycwCBh1YBFaoVAcaNOmzYiTJ0/aZDhjY3Fi32cRsBQCq1atcli1atXoO3fuzBAIBE4oXDEyAIWfHR0dOR8+fMisWbPmvH79+sWIxWKbXpcQKvqPP/5YkJiY6AdpW9BB++kepLJBUcGvaXRnqTGxdD3a9mVsf6YbN268Zfr06eN79er1wdJtY+vjcMBBIzExsdz58+d//fDhw2A+n1+Dx+OJFAoFAZcBgUCgck8GSQcy6sbsbD4LpQ9nLNhplChRIr5Hjx6BMTExFlF/apNotF2zZs0BpVIpQoZBXwtJrM9E0JzQ6Gfk7wtgKZXKHFdX17BOnTotiouLYxm0PgAXtWeNS6FT1NAwW3+8vLwaxcfHR2VnZzflEByCJFRRP1UblEQigQNXyePxLg8aNMgzNjb2md4NsbJxDAsLc1u/fv3Ox48fN4XLFDKsg34hy39Nt3u9+2wjL+BkSptkA+w03N3dU4YOHTpcLBaz8TQKcVzBniMlJaXB06dPJ0gkkq40TTvIZDICBQQDgowHmkM2R6jJKAosjClJktd/+umnMUePHj1viS59RjQgcuCyZcv67d27N0YgEPBh0eVnDGpI43Cigb5HNwiIC69QKBiFQpHWuHHj37p3785mazUEZPYdFgE9EUhMTHSOiIiYcubMmdEKhUIVxEudGwEdvB/q168/+7fffltl6zZTYHfm5eX1c1xc3EYej1cS5ZJAlx0EHS7Z0BNOMzxuPqamjWhAB/AYDC4uLg87dOjgs3379pNsLCBDhtd04ycWi6n9+/c3evjwIQSYa6dUKr9D3mLIqBed2UiqgTzK1OniQfoB5+y/zZo1G33hwoXDlhjTz4hGUFCQfVJS0pTbt29PBtcavOHAlDQjgxoqWsRJBpKWqDc2JU3T9zp06DDg6NGjN/UdUtMNp741s8+zCNguAnDBmTt3buNVq1Yt/PDhQ1uFQgHXfFUq+aysLLlAILg4b968scHBwTdst5efWh4bG1s6OjpafP78+VEKhUJl7I5fgMwV/dhacUP9R3u5ZjRK+L2jo+ObmjVrBp47d+4P1mau8EcSgmpevXq13NWrV72ePXs2mKKoCnw+nwfSDTin0XxGEgxEojXGOLVZs2ZjL1y4sNviRGPy5MnF4+PjI548eTKIoiiVSAY+wJAQS4KfjT3QcaKBXMjgq0KhUFAUdbBPnz5jt23bppeI9lvyFij8qc62oKghcOLECbvly5cP27NnTzjEz4H+wQ2Iy+U+rVu37sKZM2du7N69u02nDIc9IjAw8Jf4+PjFL168qA1qk/y854zxqjPD3IDkFlrzUhlblybRwNXk6GDi8/lZ7u7u8wMCApbaukTLWLzw95GXyJ07d4gyZcoQr169YmrVqsVYyhvLz8/PKTExscfbt2995HJ5C3CDRfaOyFYDkQ30e3SeEwTxtnnz5r7nzp1LsDjR8PX1Lbtjx471qampXaCByN0NTwRjioHCiQYuFaFpOqdYsWIrhw4dOj8yMvKjKepiy2ARYBHQDYGwsLCaixYt2vD+/XtILgYpH3NLliy5dfTo0dOnTZv2SrdSrPcpUA2Hh4dP2Ldv3zS19b5KRYB71KG9yVR2adaLxv9apo1soL+qCZe8TJkymyZMmBAQEhKSaQt9MlUbQXrg4uLCS09Pt8/KyiqWnZ3t+Pbt22LPnz8vLpPJSvF4PCcOhyMiCIIP0h6hUJjp4ODwtnjx4s/t7e3TypUr97pq1appd+7cUZjDlTQgIECYlJTU5d69eyu4XG4ZHo9PSqW5qjmN5zHSQjTSmjZt6n/hwoVtlpBSfcaSR44cWWXnzp3RWVlZP8BAIctzzUVnqMoEDT5ONFQSEnWsd5qm00uVKjVr1qxZa1nmbKqlwpbDIqAbAvv27RNt3LjRe/fu3RMZhiltZ2f3oFu3bkGjR48+YqsRQPGeHzx40GXu3Llrzp4925PL5aqCEeJBudA+hIxDvxU1Ck40AC9NqQZk/SxWrNihcePGeYWGhr7WbTbZ7lPHT5ygLl28KHz48GGxx48f13v69GnNd+/e1czJyXEnSdKVYRgXhUJhz+fzqdzcXDi/IH8JfAXJE4RjUHK53FyCINKcnZ1vValSJaVixYo3ypcvf7Nhw4aZpnYNF4vFou3bt/v9+++/Y3Nzc91QVmYgGri9Bk6qORxOetOmTcdfvHhxq0WJBoiBRo4cWW/79u3rZDJZM0QAUBCtLzPJqaakQbNJU6IBP6vjsP9dqVKl4Dlz5uy2lPjJoA6wL7EIFFEENm3aVGnKlCkzX7161dbd3T1u2rRpK7y8vIqEW2NkZGSNqKioHffv368F9xuWaOgs1WCcnJzOjxo1ql94eLheKm1bWSYgueBwOE4XL14sf//+/YaQuVwmk7lLpdJqOTk5kJtERJIkF0wKgFeAWyl8cEkB/KxBToF0yB0cHLJomn5JUdRtkUh0xcnJ6VTjxo2f9OrV672pzrmpU6eW2rt3r/+tW7dGURTligJ7ofbhhBraSBBEerNmzSacP3/+d0sTDXLAgAGtEhMTIYhNHcTqUQNNGcBGm+pELea51KRJE99ffvnlsjnETLYy6dl2sggUFgKgXli0aFHd69ev1+zYsWNKbGzsv5bQ4Zq7v9Cv+Pj4Ebt27Vr49u3b4rgbK7LHwA1DvyXVCS5p1qY6gvEvXrz4jWHDhnksW7bsScFjpc2Kz1jLvoJr1fcJmBM3b94UnTp1qtqNGzcaf/z48Se5XF4XQoHn5uaCSoTSFi0X/x3unYMu5/hXREbU3k2QuERK0/QbR0fHmyVLlgQvnrPNmjW7//vvv38wdp0FBAS47N27d8yLFy98pVJpyU+CFuBP/0vOhqkJ05s0aTL+/PnzlpVoqHMfdD5w4EAkwzAV4eAHgxLcchWfkMYYS2nzOoH6GIY53KNHD+9du3b9q++kYZ9nEWARMA0C4EL3+PFjQeXKlSVFhfDfu3fP0d/ff/7p06d9ZDKZynVf84N7nxizv5lmFAqnFJxo4Pu9i4vL3d69e3usW7fuXuG0zDS1guT+5MmT3O3bt7tdu3atQ2ZmZp1Xr141/fDhQ3VIZgYeWMjwFp2BUDNKLopIhCEXb5SqXSaTMaCOYhgmm8vl3nV2dj5fs2bNPzp06HDT2EidkyZNKrt3796Z9+7dG8Ln81WxsBDRQG1WRxBV2WikpKRY1kYD2N38+fP7Hj16NJzD4ZSCaGN4qmTNhC7GLEScaKAFLxAIFARBbBo6dGjgunXrikamQOsj8aZZrWwpLAI2hsCJEyfcxo8fH3Xr1q2ukEAOWeXjhyl8b8y+ZmOQqJqrzd4O/x363snJ6V8PDw/PuLi4S7bYT2hzRESE4NGjR1WvXbv244MHD/q+efOmMcMwkD+EhDmhVCpV6jRcAoCSfuaHE/q95vmIMILfI+9N+J1abaGKUwOEA6YcTdNKkiSfly1bdmfz5s2j+/Xr99BQlQqogB48ePDj7t27l+Xk5NRHidVAsoF7jnI4nDdNmzb1s7jXyeXLl3mTJ08efPTo0TAOh+OKshmCLgq3yjaEcGiyZFxEiXx8SZKU/Jc0ZsHkyZMXi8ViNiKora5mK2o36/JsRYNRiE2BeRAdHd0yNDR01ZMnT+oj0TcBmS4NtDMrxO4UStUCgeB1kyZNvJOTk/cZK+K3dAfg8E1NTf3+ypUrHe7du9dHIpE04HA4xeVyOR8FtYKvcLZppl43FfHEiQrUpXYdV0XeVZ+1SolEksPn849VrFhxZdeuXVOWLVsmMQSr6Ohox/+8NgPv3bs3mWEYOxAYQD8glQDUB2ocDofzsnXr1r5nzpyxbByN27dv8wMCAkYePnx4PkmSxZHFKrRIgwnl9V1X7xNtRAPdHtBAUxSVUaxYsXErV67cZiibM2RQ2HdYBFgEijYCcInav3//oHXr1i14+fIlZMFEm23R7rgJeocZEUq+//77KSNGjFglFotVJ5VOn0KU6oIaJDQ0tNS+fft+uHr16hiCIKpA5nupVApJyQiQ2sNFWtPrBp1NprLT0XQfRhITwBaFDFc7Q8CfpHZ2drerVq0a3bZt28Rly5alGkLsAgIC3OPi4la/f/++NUmS9igcOfSJJEmQojxo1aqVX3Jy8lFDytdp7LGH8txbIdFQbGzs2MOHD89mGEYVhhhAQIsSN55CA6Er0YDnNcVxONGAzvP5/Lfly5fv++jRo5P6doJ9nkWARYBFID8EkpOTHZcvXz7z4MGDY7OzsyHmwRdRjln0CkQg18XFZYG/v/9CsVgsK/DpQn5g06ZN9gcPHmx87NixcWlpae0UCkUJFKANDnj84FXbLKg8SJDxJEq/YYpuoHLRGYjbB6EQEuiMBPLD4/HAhOMNRVH7WrZsuTwpKemOIe349ddfmx09enSeRCJpR1EUBZINKB+IBZ/PT+rateuErVu3PjSkbH3fySMaEBlwwYIFE48ePTqFpml7CD8Mkgw8iyMCA5EEfSrTFB3hREOdMfJ5kyZNOp4/f/6uPuWtC7+ZAAAgAElEQVSyz5oPAVb1YD5s2ZIth8CxY8fKBQUFRdy8ebMr6OQNMeSzXGutryZ1fBFJqVKlFk+ePDnU39//k2+nlX4GDRrkdvPmzQH37t3rL5PJanM4HMinoYp1gVyakTQBEQtNjyNchWJsN7URDVxaApd5kUikUm8gu0jI+yWXyzNEItGu1q1bTzl8+PAbfdsRGxtrFxMT0+3KlSuhubm5VcAGRV0PXbZs2fVDhgyZKhaL0/Ut15Dn84hGRESE0+bNm+dcunRpNEEQAtAbAdgoEYtar2OS1Mko2xw0WM0cGaFQeO3nn3/utnfvXoukrTUELPYdFgEWAdtDYNu2bXUCAwNjX79+3QDd7FAvTKWDtz1UdG+x2qYlp0yZMuFTpkyZZ61EQywWOxw+fLjRX3/9NUEqlXbmcrlg6Jln+IvsMKDniGCoVQl5+UGQnYam26ruaH3+5BfB0D7dsPOMjpF0DSQN9vb2KhsK+I8ic3M4nEwul7uxQ4cO4fv27ftb33ZAMK8//vjjt7///nuWTCZzhjggJEnmNmrUaJqPj89qLy8vi9hD5hENPz8/1927dy959uzZQFiM0CFgfyiLozG3AE21CQIRfq82NlVFnhs8ePCQVatWpekLJvs8iwCLAItAfggsXbr0/+bOnbs9IyPDjc/nkyhBJB7EiEVPOwJqaQacBbmlSpVaNm3atNnWSDQg78f+/fuHvnnzxkOppJtyuaQ9RNbKyspSheJWe3mobHOQXSB+ecZVJnhcFX2IqNboIcTXU9RA20CKAR/QIqBzF13wwQtWJBKlcjic9f8lPQVHiSx952q3bt3qnzp1akVOTk5ryF5MEMTrLl26DNy7d+8JS9hnQHvzUOjZs2f5EydORH78+LEbj8fjoixwyEJbG+D62GggcOAdjK2p7EBompa7uLhs9vf3H28IkPoCXzSeL0Qrq6IBINuLooZAPksiMDCwy5o1a3bk5OTY8Xg8AunfDdm/ihpkuvRHjRPs0RFLly6dbqlbsC5tW7t2Le/u3bt19+/fP/LRo0cDILqnOlCVylUVEQxUFjrPVIcfQXzhzmzqXTU/t1jUHjhXP6UV+uRajYiQUChEl3CVzUZubu6bTp06+YwYMeKgviHMxWKxXXx8fP+HDx/OlsvlpVxdXU/2799/SGRk5FtdMDbFM3lEo3PnzpXPnDmzKicnpz1BEJTabiJfjxOo/NONQOUKrHNbENFAYiz4WSaT5ZQsWTJq8uTJMwIDAw1y6dG5AeyDLAIsAt8UAl5eXoP/+OOP2NzcXAo2ddh7QJLKSjR0mwbqvVohEolWLViwIMRaJBoQF+Po0aMtL1++HPLy5UvwrhABkcTDg2sGZkMBKPFAVprPmJKAFlQWCgSG4mvgdiTwO0SMKIpilErluRYtWgR17Njxgr6B9AYMGFBqx44d05RKZes2bdpEtWvXLlrfMnSbLflIxtCve/ToUf3IkSNRcrn8B4VCAeKVz97QR4Ska4PQIFAUlWNnZ7do6dKloWwyNV3RY59jETAOAVPf3oxrjXnehkCES5YsmXjq1Kn5WVlZXBQ8yRhVsHlaar2lqgmZ3NHRMXL+/PlTrYFoLFiwoPiOHTt6P3jwYJhcLm8sl8vtaJomzHFOFebI4GQYzkknJ6f1gwYNmqlvdnMw7G/evHnV9PT0SoMHD74qFov1Ni41Boc8NtG9e/cax48fXyuVSlsB0cANZ5BYx5iK8HeR3g8ZwjAMk1WsWLHpEyZMiLQkyzJVf8xdDuv9YW6E2fKLKgLg5rho0aLlDx8+HKFQKEjQfX/txqsfDt8CVcvLkwFEY2l0dPQsfUX32jA1FDnYC2fPnv3dnj17Rl29etWXoqiy4E1hKtW+fuNvmafRhRySn/F4vH+bN2/udebMmVOG1F5YZ0ke0ejVq1fNw4cPA9FoaW6igRuDghsPTdOvK1SoEPDPP/9sMwQ89h0WARYBFgFtCIjFYufly5fHZWRk9ACxOlygILU3fFjViW5zRo2TzMnJKWzDhg3zTEE0dKv5y6c8PT3LXbp06bd//vkHspSWgaBcoGIw1IDT0HZY8j0UPFOtSpE5Ozuv+fXXX2dHR0dbxDXVFH39jGgcOnQIUsS3MCfRQNIMzPKXEQgENxs1ajTu7NmzyaboFFsGiwCLAIsAILBkyZIS06dP3ymVSn9A9mGaeU5YpL6OACIaDg4Oc5cuXRpWGOptuIn/8ssvbhcvXhR/+PChN0EQjiKRSOVBBGow3M6iqKlPkF0JjBIYt8rl8je1atVa5OfnF+Xj45NjC/PXokQD2X3gX5VKJfPdd9+d7tSpk9/vv/9+0xZAY9vIIsAiYBsITJ06tcySJUv2K5XKRnAgITE07n1gGz0pvFaqiYbU0dFx1sSJE5fqFYLcRM1u27Ztxb/++ss/KytrpJ2dnQNIMkAyBaowY1NkmKiJZikGl7rB3FW7wyocHByOtW7detLBgwdvmKViExdqMaKhaVwK/VAzT7pMmTL7BgwY4BceHv7MxP1ji2MRYBH4hhHo169fze3bt+/jcrmVcQPQokQ0DLV30HVaYERj6sSJEyMsSTRAklG/fv1yz549m5GTk9NXKpUWs7e3J1CiMBRKXNO4FwXK0vQo0bXPBj9n4sFARAOdn+qfGS6Xm16uXLnlixcvXmALucF0t9EAF1bdvVi1jlM+ZAOIxrbhw4dPWLBggcX8eg2eSHq8WFiGN3o0kX2URcBoBKx1nkPWziNHjvxy9uzZjQRBuCIDd+RKiF12jMagKBegPtwkDg4OwTExMWssdbDBvOrevXvZP//8cyKHwxnB5XId5XI5CYGtQJoBt3v4D7En4L+ponla01giooHCmGO2KHI7O7sLv/32W89ly5ZZva1GHtEA99Zjx46tlclkreVyuVm9TpB9BgwoTdNKFxeXTX5+foFisfiDNQ0y2xYWARYB20VALBZTBw4c6H/lypUIpVJZHMTscNlBhxJrDKrb2KpxynF0dBw/ceLEGEt5Bnp4eJQ5dOiQn0wmGwFEEbyG0GUVJBhAOFCQq6Lqrqzh3qoyYFb3laEoKq1Jkya9kpOTz1oqwqduM+bLp/KIRu/evasePnx4TVZW1o8cDsQJ4aoGEb8F4GKoggKRaGuQpo0GIholS5aM6devX5C+vsGGdpp9j0WARaDoIaApWYGokZs2bRqRkpKyCCJGYpt00eu8gT1Ce7KmAaXm7wUCQTZFUd5ZWVl/mPtQg0Op4y+/uCQnJ4dIJBJvGDtwEtImgSosw08Ta0gKGD2CA2GtUJZZdPYyDCMvWbLk3Llz5y61dqPQPKLRrVu3qsePH18ll8vb0TStynWCkqqhTHbGDmo+qhNliRIlNowYMSJ40aJFmQauF/Y1FgEWARaBzxCIj4/nL1++fPS5c+fm/+eA4mA1RMOyp9RXZ0VBRAPZQHC53ByBQDAoJydnt7mnmaenp8OpU6eGvHnzZhZBECXxVBnayIZu7bEi0HVr8GdPYbE08Ms/7eTktMPX19c/NDT0tQHFWuyVPKLx008/VT516tRKPp/fQaFQqEKQA7HAQ6QaSzTy6ZX8u+++W+fn5zeZzXNisXFnK2IRKFwELLDvQ4jqbdu2jTt37twcDodjbzVEo3CR/+IA+1pzKC6XI1co4JEMFxeXvunp6YfN2fzOnTsLTp8+7ZudnT1OIBBUkEqlKknGt/5BREPD7IAhSfLy8OHDfaKjo69aM0afJVU7cODACh6P100ul/M0DaaAZJg8KArB4ZAEKXd2do4aMWLE1CVLlmRbM1hs21gEWARsB4HY2Fi7DRs2+KWkpIg5HI6IJRpfjp02KbPmU+oL5z81atToe/v27UvmmgHe3t68PXv2/PD69et1QqGwIk3TJIriaq46baVcnGjAPIYPZHalafqfjh07jjt06NBBc6u0jMEqj2h4eXm57t27d1F2dvZAmUzGB6KB2BMiGSYnGp+i80FWwJUhISEzgoODWaJhzGiy77IIaCAAdgsJCQlkamoqdfz4ceHjx49d+Hy+s0KhEHG5XHsw/IZXQN/L4/GkfD4/28nJ6aOzszPkQpDUrl1bYSnjP1MPXkxsrF00SzQKhDU/soFsAhiGYRwcHG60bt2638GDB+8XWKABD3h6enJv377d5O7du3NEItFPIpGIevfu3WclmUmibkBrLfsKrt5C3icqosEwHFqpTKtfv35wr169NlrzOs0jGmFhYY5btmyZc//+/TEKhUKADD+RMSg+yIYYguY3NARB5II/8IwZM+Zau0GLZacXWxuLgOEIiMVi0ZUrV5yfP39eWSKRVMzOzq707t27ChKJxF0oFJaUy+UigiAEJEmq9gCGgcsRLWcYJofP56fb29vfFwqF/zo5Od3jcrnXypYtm5qUlAQ2VEY6uRveJ33fxCQas1jVSf7oaRrp426i6r2eKVas2Pk+ffoMiI6O/lffcdDl+Zo1a1Z49OjRApqmuzk4ODiCR0lGRkZeXhptZXwrxAMnGii6rXrNQsCyTDc3t3lDhgwJt2R8E13GFH8mj2jAooyLi5t0+vTpEEi3Cw/hkfQ+e4kg8tQo+lSojTmTJJlZtWrVhVFRUeHt2rX7lISA/bAIsAjojQB4WVy9erX4/fv3Kz179uyX169f18/MzKxCEEQpgiCcaJrmfRIikqokVCDtQJUgsat68wYyAf+lBEG8ZxjmmUgkulSpUqXEKlWqPCpVqlTq2rVrFdYsqoV+qYmGb0pKChAN6zEG1XtkzfsCCm4FtSDTGSTFRkTD2dn52NixY4eGhoa+MnVrPD09i+3ZsydILpeP5/F4DpCFFeJjwGUXAnPl9/mWiAauTUCaBsDHzs4OMrpGjR49eqZYLLbacOR5G83t27f5QUFBY5OSkmZzuVwn8DlHg6wpzUBsSt8Jp829lcfjfahTp87UTZs2RdeuXTv/WaVvZezzLAImRsBaA1OtWrXK4ezZs9UfPHjQ4smTJz99+PChCYfDKUHTtIDP55Ng0I1yQqC1jPInwJrE3dbh90gHjA4biqJA3CGTy+Wg2nzs7Oy8v0aNGlfr1Klz0c3NLc1ab1JANNavXz/23Llzs1mikf9iwIkGegqNvTqCqtLV1XXnlClTxgQGBpo0ONTw4cPtTpw44fHvv/+G8vn8CijpHZ7fA2/5t0IutF3sEQkEbNAZzOVyZXw+P8HPz89v4cKF70285ZmsOE2iMTIpKQkG3BlqQMlqtBENY8kG6oFQKHxfu3btkLi4uI0s0TDZuFpXQRbwMLCuDlumNRCQ6tGjR643btzwunfvXg+ZTFYF7C6AYMDlFMTPKIGYpp2Vri1EXmfq9Q7qepBkyLlcLkTxPVGtWrVt9evXv7h161ar2+TA6yQ+Pn702bNn5zIM44i7CH6LB1Z+Y65JNLSE7Za6ubltmDFjxiRTq7f/Sz/ROD09PZwgiP9TKpV81EaYtwKB4AuJxrc6brg2AI2Xej7DejwxatSowWvWrAG7Kqv85BGNy5cv86ZPnz704MGDi/h8vgu0Fo+fYSobDU31CUVR7+vWrTt58+bNcSzRsMo5wjbKyhCIj4/n7tq1q+yZM2e6Qf6HzMzM+gqFwpkgCALl8ID1ClJJ3FsM172jLhXkdYD/Hb2vNkgD1zolwzAflUrl+TJlyqz64YcfzlkT4VATjVFnz54NZRhGFbALedN9qweWtqkMY6xpi4cOM3U01awyZcosmDx58mJTZm6tV69eyQcPHizLzc315PF4PLjYQjugTjxhGi5lsbKlaPHm4KQQ5jCPx2NkMtnl0aNH91qzZs0LizdIxwrziMaJEyeosLCw/gcPHlzC5/NLoYUICxO+N1dyGiAa9evXn7Rp06ZNLNHQcdTYx75ZBLy9vUXHjx9vmp6ePvTjx4+dFQqFK4fDoYBgIDWIZgRfQ6WP8J5mQCd0KCEVi1wuByNSpUAgeFKiRIntLVq0WBEfH//eGuw3IGBXZGTksOTk5MUMwxRjiYb2ZaN5eMFTaHzVhDXdzc1t6vz58zeYKs9J27Zt7c6ePdv3P6NkiNpaksfjEUj6BpIM5NaqOf++2YWv7jgaK3SBEAqFjFQqveHr69sjIiLiqbXik0c04Ja0adOmHvv371/J5XLLos0JLU5DicbXJgr8TSAQvG/YsGHwhg0bNrNEw1qnCduuwkYA7ENGjBhR4r+00B7p6emDSZJsIJFI7Pl8vsqwE08qhQiCpv2FqfoAhxA6iNQGewxseEKh8B1FUQfd3d13dOrU6dSsWbMyC5NwgHHsli1bBiUnJ4czDFOcC3kiaDovVbyp8LD1cjRt53DRPBz+Dg4Oz+vXrz8uOTl5P0EQtLH9hUPHuXjxNjk5OfOlUmlLEMSBFAMRjaKUWddYrDTfx8cKqQIZhrk3dOjQbhs3bnxs6vpMVV4e0YCNzMPD44fExMT1BEFURRINmABIhWJIpfkRDfR7Ho+XUb9+/amzZ8+O7tKli9SQOth3WASKMgKQhfTq1as1UlJSBqSnpw+zs7MrQxAElZ2dzbG3t1fpsWGT1kcdYMxNEfnyw1fwDoB2wMfBwQEIjzw3Nze1Ro0am/v37x87a9asJ6Y4nAwZX7BhOX78eN/k5ORImqZdWInGlyiiwwr+gsdoQFJsMMopW7bsX127dv1t/fr113Qbh68bZVWpUsXpP9uiVVwut49SqbRDdaPLLJqbbIC1/6GNyB/CCMgYrD1QNymVyqedO3fudODAgbu6jY/ln8ojGlD1kCFD6mzfvn0dTdMtkL4MSTaMkWhoboAaorqsatWqLZw8efJSLy8v1r3V8nOArdGKEQCScfPmzWpnzpyZkZ2d3RbEzFKplAIJBoiYUS4K3BUdz2SJHyR4N40hGmj9wkEA7QCjU6gTyA78jcvlKimK+li6dOn4bt26ha1cufLvwoAYpLQrV67smpycvJ6m6ZIs0cifaOBjCk9hl0umatWqSaNGjfotJCTkpbHj2LhxY97du3c75+TkrOVwOKXwPCba7ET0Ic96tc3GDNQ17Whg3fP5fNX6z8rKetmsWbPOFy5cuKEXBhZ8+DOiMWHChDK///77uszMzG6gIwPGhESypjIGhb7hojmlUikrV65c5MyZM2ea2qLZgjiyVbEImBwBtZQRJBnTX79+7cHn8+1AwghrEw52kCBkZWVprRdtTOiCYOoNG79h8SiKw1W7w8NhoRZ9M3w+/727u3vCzz//vCQ8PNzikg0gacePH2+dnJz8B03TZVmioX2K4vkzNMmoQqFgqlevnjB58mQfLy+vD8ZOcjc3t6ovXrxYSlFUVwgxjhvnIvJr6KXW2LZZ4/t4mnhcXakm9CoplEQiedGoUaMuV65csQ2iMXny5OJbtmxZ8fbt28FSqZSATQ0lV0ODgCYDknQYMjhoE4SvIGp1dXVdNWnSpOlsCHJD0GTfKaoIDBo0yO3w4cMT09LShnA4nO/QTRPWJVwA1DZOqtsn/IynDUBG3PlJNIzFDO0DSLcOlxL1es5LXUCSJC2TyT58//33O7t06bIyKirKohshELUff/yxQXJyciJN06oYDazXyZcjjxt+ImkYssORSqV0zZo1IydMmDDV2Itg27ZtqbNnz476j7zMYhimNGqJpk0GUuHAnP7WPzg28D1uygDrTR3v6u8OHTp0OXz48D1rxesziQaELd64caP477//nsjj8Ujc9x53kzMV2VCTFUXJkiXXjh07ls3eaq2zxEbaZa0BtfSFD/rRt2/f8snJyVNTU1P7czgcJ3BdRdICZOQJhybS0+I2GsaoRXRpK7pNIRKDSygRGUL7hVKpZAQCgbRcuXKXfvzxx+DOnTtfNpXngi5tbdu2bZWUlJQkiDECz4O4GWxazI2RLm2zlmeQrQ2ewAzmldo4U9KyZctx8+fP39yuXTujTv7/Yq7UePDgQSyfz28MUWotRSRsTEvy2bTAJRrwByAWeEZ1tfryZv/+/btv3brVLOHhTTFPPyMaYKUdFRXlfe3atRV2dnZcWIywKM3h3ootdGWpUqVihg0bNnHRokWQS6HQPkXloCo0ANmKTYLAyJEjXY4cOfLbixcvgmiaBkmGap1qM9bDDMI+y66sJvEmaY9mIUgiiUsINC8feMwNtRQBgj792atXr1nh4eG3LOWN8tNPP1U4fvx4EkmSNVHEUyQNMrU6ySxgW6hQNI8QeUREg8/nP//555899+7de8GYMQN31uTk5LH/hbafJRQKncCAGEWstVAXba0aSAHw2fmMq0twGxo+n3951KhRv65cufJLGxorYVmfdQRGokuXLj//+eefewUCgR10BqlOTL0oMaJBly5desuwYcP8w8LCMmxtNrDtZREwJQJ+fn6CnTt3Dnr58uU0Pp9fUaFQ5EkWkeQAkQgUlEvTK8yU6hJtN39cggFtwEkGwgLtF0ilog6BnlGtWrXfu3fvvmjJkiVPjTm4dMXc09OzdEJCwgGSJBtCjhdEMpBUSNdyiupzaK5oxmFR2+cxLi4uF7t06dJj8+bNBkedBFuZ6OjoRs+ePYsUCoXNgDNLJBLV7dxSUo2iMH6I4ON9YRhGyeVyU8aOHeu5YsWK19bazy+Ihre3d6MNGzYcJUmyOFqUmrejzzYWSM5kQO+wMuiSJUvuHDFixLgFCxZAWGP2wyLwTSIAG/KOHTsa3bp1C1zM64G2BCcV2kDRll3ZlODlpyZFZKOgCwj8HdQV6hwWDEVR7ypXrryuZ8+eq8PCwl6Zm2yIxWJnsVi8i8Ph/MAFdxh19EloP+6dY0rMbKks3N4HuZMi3b9cLs+tXbv2Gk9PzxCxWGxwHqrmzZs73bp1azLDMGOUSqUzqGhMSYZtCW9926oNJyTZUJNDuVQqPTRkyJDhmzZtStO3fEs9/wXRCAgIqLts2TIgGhBxEFTDn4Ux1mBTBrcTuykxJUqUODhs2LAxS5cutVodk8EdZV9kEdARgcaNG5d58OBBYHZ29hjIWQJSAHMTiYKalh/RgPcKsnPAyQgm+aBJknzZuHHjRSNHjow21sCwoPZDwrnAwMBYhULRg6IoPn7IsYfdpzGEsUH2PyAdQ0m75HJ5VsuWLSecPXs2uiCcv/Z3JyenZh8/flzD4/Hq0TStInuYDYgxRRf5d/E5iks0Uah2kiQVCoVi8+DBg8fHxMQUqunB1wbjC6IxadKk6osWLdrL4XAqC4VCLorWpukmV9BNpqAZgBMNZ2fnlMGDB49ZuXLlzYLeY//OIlAUEahVqxb/33//9adpOiA3NxcCcqm8vtD6Q5INvO+WPCjzu1kVtA+gdN/I20MtSVB+9913dzt27Di1evXqB8RisdHRJvObE2DgvnDhwmUKhWIIj8cTAtHAgx6xUo1Ptj8wLnwwAFUoVMRDqVQCIbz7yy+/jEtKSjpl6Jpzc3MTpqamLlAoFD4cDscOJxgWiQBqJTYKhuKH3kNSJlwSp7aRAkPrhSNGjJhnrVmUVZcSTQDCwsLcFi1atCEjI6Mdl8vlIx0a2lA0vxoKIE40ihcvfmXo0KFjVqxYccnQ8mz7PdtbDazhrOlmnLe3N2/btm0N5HL5BplMVkupVFJQOnIvN5UU0XQt/lSSPkQH1CewdyDiRBCEpFKlSjv79u3rb8701pBYbcaMGfOysrL8CYLkMwytIhpIwlIQUTIEM1tbzchlUigU5kWZ5XA4ihIlSuzo27fvpNWrVz8zBAeYIg4ODrVkMtl2giBqKmklySW5eXlMWBsN3VFVEUH+p+S2cCajAH0cDudDu3btJv3www/R5iTsurdU+5NfEI3o6GjHFStWzHz8+PGYnJwce/wmhcjB19QpujYIKwtUJ7eGDBkydunSpcm6vs8+9y0iYGtbeMFjBITN3d292rNnz0I5HE43hULBd3JyUh3iGRkZecHt0DrM72DU59AvuFW6PZGflAPfM9ANFqKYqoMLceBAy83NBXuNN9WqVQtZvHjxNnOlH4DooJMmTfJ9+fJlqEwmE2HJ4HTr5DfwFCK0EAAOiKA6c+rH2rVrh0yYMCHO0IjNbdu2dTh//nygTCabxOFw7FE9KN4LK00qeHLh7q14rBq1VA5cx5/27dt37KZNm5LMbe9UcGvzf+ILogFZXOfMmeN96tSpeQRBFMdDkeOx6GGTMVEEN6Z06dIPx40bN2bGjBnHjemM0e8WvXPMaEjYAsyLgKenp8Px48dD0tLSxtjZ2X0Hmzx88AyW5m2BeUtHhmuIfCDdsjrImNzOzu7gwIEDg9avX//AXC1p27btr2fPnt2oVCqdUHyPwiBm5uqfMeUiHOAQgxtzTk4Osgt61KFDh16HDh26begBJhKJGkkkkuUEQbQkSZKL2mlM7iz9+2rbmzqyy8DVfSjcBEmSEH33kre399iIiIi/9MfGcm98QTTA8v3ChQuex44dC+dwOGVxzxNDGGhBCxr+XqJEiWdeXl6+atsQy/WerYlFoBARAGlG2bJl27x//36NXC6vDm5/aI0VFbEyHvsD2WlA3+ADwbxIkkytW7fuvJCQkLXmCuTl4eHR7vDhw7skEkkxmqZV2W6L3MfA8xS/MQPRAIkGl8tV8Hi8A0OGDBm2bt06g0IOeHp6cnfu3BnCMMxkkiQdwLVYPeamuqAWuSHMr0NI+o8b7MK5DJF3y5Qps9vPzy9g8uTJVpsiHvr1BdGAzW/o0KE/bN++PUKhUICLnar/hgbtys8yHVfDODg4pPXo0WPa5s2b1xnKnr+ZWcd2tMgg8Msvv5Q5dOhQhEgk6kaSpB0YKiIPABS/xkRSw0LDLL/w1sibBvgGj8e70L9/f8+YmBijk3Zp6+igQYP+LzExcWdOTk5pEnZn2my2p4WGs6EVwz6M3FpRGTweL9fFxWXymDFjIg3V+4tEorJyufwAwzD1uFwuiSTgKFS+6vBRe7wY2vZv6T00Tkj9BPsDl8ulK1WqtHLs2LGzAgICjJ1X7C8AACAASURBVM5DY048vyAaUNn06dMrhYeHr5JIJJ1U/q1qooFuAogkoN9/rYHaiAYSB6HJR1FUdrNmzaLmzZs3o127dmwGV3OOOFu2VSAgFov5cXFxvf/5558ldnZ2ZWHjgE0YDmYkWtYMP2wVDdezEbhEA5EnXJ0Cf5fJZGktWrQYM3z48N0+Pj5yPaso8PFRo0bV27JlS3xubm5VSK2Ai+6LpHSjQEQ+fwD3BIGLHo/He9WoUaNB58+fP6lnUarHIafJmTNnevJ4PLg4uqAyUE4eQyTjhrSjqLyDCBlaN4go8/l8eZMmTYKmTp261lw2TqbCUCvRWL16dfHp06cvzc7OHq5UKgltOrX8JBWaDdPGWpE7FSIaNE3LK1eunDRnzpzhgwYNem+qzrHlsAhYKwJdu3ateejQocUkSf4il8sp/MBD68NQKaJ5+myYbB7dxKBNyNsD3WbRhQNcKZ2dnXcPHTo0ICIiwuQiYLFY7BYREbH2/fv3Hfl8PoVInXlw0r9Uw5DVv5783kDkVk1s5Tweb/uIESMmrlmzxqBooPXq1XO7ffv2cqVS6WFnZ6dSVaGxx783XQ+Kbkma5yy6fMBXgUCQOWjQoHbr16+/Yu2aAK1EAzxPJk+ePC8tLc2PoigCFqYpWagWokGXLVs2eeHChZ5Dhw41aHIX3anG9qyoIQD66+vXr4948ODBXJIkS4LdAMrDARsyiEfhPzIMtfX+I0KBDDHx/mAXkb89PDwm7ty5cw9BECbVbWzZssVp+vTpc54+ferN5XKFeEbqb12igamwVHNOLpenlShRYsr8+fPjDJEugY3f8uXLf/3w4cMyDofzPSIxuDTchI4Etr409Go/OjeRa6tQKHzt6+vbZNGiRc/1KqgQHtZKNGJjY+3Cw8PH37p1az6fz+civ11TtQ9tPFCeegIyrq6uV2fPnt1jzJgxL0xVD1sOi4C1IQA2UK1atXK/du1anFQqba5UKnnohl8UD72C9PDo7yRJ5jZq1Ch83Lhxcw11p8xvrOPj4/lisdjn/v37cxiGccYPvW/dXgNFAVXbBoHL8cWWLVsOOn78+GND1o67u3sxUAdyOJyhDMPwtc3pguaEIfV+C+/gHigQTd/e3v7K7NmzO1q7fYZqf9M2QMBKr1692uno0aPxcrlcFQoZX5zavjd2oEuUKPFg2rRpnQMCAp4YWxb7PouAtSIQEBAg3Llz56inT5/Og/TvuCQD2oxHSywKnie6Hipgo2lvb3+2ffv2Q3fv3v2PKcePYRiyUaNG3W7evLmaYZhymlGOTVmXLZaFgqkplUqJq6vrioEDB85ZtmyZxJC+lCpVqu7r1693c7ncSqB2R2Xoqmo3pM6i/E5+dlo8Hi/byckpLioqKrBv374G56GxFHZaiQZUHhwcXDk6OvpUZmZmOSAWmln2CtxANBSP2gxIcSMXkUj0esKECd3mz59/2VKdZ+thEbA0Al27dnU/ffp0RGZmZmewxjelStLSfTFlfUKhkJFIJOkNGjQYcO3atSOmLBvK8vHxqZqQkLA1PT29ybd96H2+MaODjKLATIj5t0SJEv1fv359wRD8wQj04sWLv8lksqUKhUJoSBnf2jsFOVZoGOqqcsTIZDKIn/G0WrVqk27duhVvC5jlSzSioqJKhoaGHnv16lVt0CFrihgLJBoavddc3Jp6W4FAIBk1atRwLy+vxCZNmpjc8twWBoNtY9FGACSFiYmJw2/fvr1QoVCUAI8uc6tLCtvQUJcRBSmO2khQUrFixbBevXotMvRGnV99a9euLTZ//vz1T58+7QN2Z2g/K+qqE/wgA2w05xtmQ5ErEAjW9OjRY0ZCQkKWLuOm+Yybm5vLixcv4giC6ErTkCqFZGNmGAKklrMTnZdANKRSqdzZ2Tmxd+/ekzds2PC3CaowexH5Eo34+PhiM2bMSHzy5EkbsIqHluDkwphbAQINNwqiKCq3a9euk729vddYu6uO2UeFraBIIhAREeE0f/785a9fvx7E4XD42si6LRADUw4OYACie4ghAjE1ihUrtrd9+/bjdu3a9cqU9aSkpAhHjRq16M6dO2N1kSQZs7+Zst2WKIvH4zFyufxp2bJlx3t7e+8zNHaGq6trw7dv38ZRFFUPuWoXpsSuqKwlPOeRWp0qKV++/PJp06bNM3f2Y1PNv3yJxuXLl3k+Pj6r7t69OygnJ0cEFWoyVH2lGqjRyOUNylNHOAOLZ2XDhg2XTJs2bU737t1zTNXBb6UcNsmZ9Y/08OHDqyYmJh75+PHj9zBe7I3v0+UFEQ11cK8btWvXHn/16tXTpvQ+AbzbtGnz6/nz5zcoFAoXQ/cu659l+reQx+MphEJhRKtWrWYnJSV91L8EDsfT05O/f//+cbm5uTP5fL6zTCb7QnpiSLnsO/87d5GHEJ/Pf1S/fv0JFy5cgPwmJvXQMhfe+RINqLBbt27jz507NystLa24NqJhaKM0iQZsMPC/TJkyMZMmTQoaO3YsG0vDUHDZ96wSAcghNHHixB53797dnJubK0IRQIu66F6XwUDrHzBRKpWvK1euPCsoKCjGEPfKr9U3fPjwiseOHYt79uxZK4qiKE27M13aqvczVnat1qJKgXjsabVr1+5y69aty4bGY6hRo8Z3jx8/XiKXywcDtrgLsd6YsS/kIYBfRtTSDKZ48eJ7O3ToMC4hIcFmPDS/SjT8/f3bJyYmRjx79qwmaE5MdQPTJtGATUYoFB6ZMmXKyOnTpxualpidoiwCVonA2jVri02ZOmXRhw8fRtA0TX1LonldBsTOzk6VZ0OpVMpKlSq1OigoaHpwcHC2Lu/q+szatWt5GzZsmHLp0qUQiqJE+SX3KshAT9f6bOA5hiAIKUVRsR06dAhISkpS6a8M+Tg5Of2fRCKJVefsUQWUNrf9kSHttNV3MNfWjMqVK09o37797+vWrbMZW8avEo3w8PAqa9asWfbw4cPODMNw8ahkKEFSQZNJ24aKiAZ8RTo8KIeiqCsTJ04cGhYWdttWJwTbbhYBbQj4+/tXXb9+/UaJRNLClNJBy6Ftvqs57ANY6HXayclpf+/evX1jY2NNeuEA9Um7du36njx5MoIgCFdI9IWCH+E44kSjKEmcNA3wIVgrSZLXatWq5Xfr1q0UI+YSIRKJfGiaDpXJZMWLEmZGYKL3q5rSJihAQ/JJOzg4XGvdurXXwYMHb+hdQSG+8FWiERsb67xkyZLQu3fvjqJpmodYKvL114W1arsdaCMagAGPx7sTHBzsNW/evEuGivAKEUu2ahYBrQiA2mThwoUeJ0+eXCyXy8E+Q/VcQST9W4ETxQuBrzRNQ66Nqz169PBOSEgweerr9u3bVzt79uwyqVTaCU+whu9T+PeFacxoivHH91pNosEwzFuKosL69u27ZvPmzQZLj7y9vUVxcXGraZoe8B/Z4COiYSoJuClwsOYytBEM1F7YI0Dap44SLK9evXp0x44dQyIjIw2ypSksHL5KNE6cOGE3c+ZMvzNnzszkcrkOaNGhCaQL0civYyicKpKMwM8URf09ZsyYseHh4YdtxcilsAaOrdd2EBCLxc6bNm0SP3ny5Dc7OztRUQktbqoRAGNQMB5EFxihUPiqYcOG/ikpKTtMVQcqB5LZbdu2rc+9e/dWCYVCZ4lEklcvLrGFzT0nJ0dlrIp/bIUc4pJkR0dHFb6wf4N7JPRZIBBIlUrl/oYNG/peunQp1Ricq1Sp4vb06dN9MpmsgWbcB1vBy5j+m/JdRAbxMlFaAoVC8ap9+/aTfHx8/ujbt6/SlPWau6yCiAa1YsWKbkeOHInMzs52g8Ygy1djjdnwuO3wvVp0+rpPnz4Te/fuvc0gIM0n3TX3OLDlF2EEfvvtt2pbtmyJkUgkzXhg4q9QaIpEi3Dvv941pDbRcIfMcnd3XxoSEjLfFAahmh5ZXbp0KX3kyJEDNE03gHgPcDiiCw8aG/idNmNRWzk4EdFQ5y9RESZ1Ii7ol5IkybsikWiiv7//UUPdWWFkITbMkiVL2ubk5GylaboU/I61PzJsOWsjGei8BZIoFApPDhkyZMy6devuGVZD4b31VaIBzRo3blyFgwcPbnn8+HErmEN4iGT8e327oCnRAJBpms5o06bNXF9f30hbCKuqb5/Z579NBDp16tT+4MGDEMEPvLfyjKqNkQgWNSTxTZamabpEiRL7g4ODB4eEhGSqEiV80jaZ7FOyZMmgt2/fzuJwOA6IVKADEjZ12J/gP646sRWSgR/2sEcDYUKSBiAeHA7ng0AgWNClS5fIhIQEg0KNo4EYPny4XVxc3HQ+nx9MEAQf4qFohtU32aAV4YK0kQwNqYakevXqgQMGDIgRi8VWH3Jcc6gKJBqLFy+237dvn/j06dOBeKAbXLJhyPiTJAkWz3kphNVAS2rUqLF69OjRc/z9/W1KB2UIBuw7RQWB/E9CsVhM7dmzZ9T169fBAJHH5tnQPua4/RfYaRQvXvxCUFBQj6lTp741xyxp3rx540uXLq3jcrkNwShUHTBMdSCr3Ww/C1BoSyRDU6rg5OSk6lNmZib0iSFJ8pSbm9vYf/795x7BIYyicG3atHE9c+bMCpFI1JckSW5W1qegosZcQs0x3tZepjaigZwlwIyAz+c/8fDw6P7HH3/YnDRDNR91GYCePXsO3Lt3bzRFUXbgggYfXBenSxmazyCJhjr0sIoFEwShKFGixOHhw4ePCQsLe2pIuew7LALWhEBISEixmJiY5WlpaYMoigLNSZ7un7XO/18wInQwITsJR0fHuwMHDuy5du3ah+YYT7UB4+T/pKgBYH+GMlTD+EAbEPEwR92WKBNXXzg7O6ukGhKJhFEqle9cXFzG1qtXb/fJkycVxralQoUKDZ8/f76Ow+E05vF4hNpFOc+LSCeCli9PN4Moy9gOm/j9/AxBMYkaXMjTKleuvGrixImLbCUSqN4SDXjB09Pzx4SEhM0cDscNSSGMZay46gQmIxiEKRQKYNsPhg0b1ic6OvqWicfUgOKK/kQ3ABT2FT0QGDlyZIWYmJg/GIZpIRQKOSKRiPP+/Xs2B4QaQ9yWAA5DtQoVLO3Tfvzxx2EjR448aJC9lg5j9P3339d+9uwZ7Gv1kQcK7GvQBnSh0qEYq3wE4Yr6A5IMpVKZwTBMbMOGDWf/9ddfGaZoOJfL7UOS5Gq5XO4KahnY18HwlLXT0A1dXJIB5yD8R3ZLaq0BuLQmdejQYVJCQsId3Uq1vqd0kmgEBgZW27hx46q0tLS2eEQ9Y3TMiGgAJHCzEwgEqglK0/Sbfv36ddu+ffsl64OLbRGLgO4IgKHc9evXWyYmJm6kKMod3ZbB68TW3SZ1R6HgJ9HtDZ6E7+GQt7OzyyxXrtzMadOmrfHy8sotuBT9n4Cw2adOnRr/7t27mTRN24MKBR3MuBeM/iUX/hs40VCneaAFAkFStWrVZly7du2aCcMHhAgEgpkymUyEDE4tEnG18CE2SQs0VSZIAqQOxw91ZFWtWnWev79/pK1KM6ATOhGN8PBw4fbt24MvXLgwicfj2SPLbFMQDQAUNha1RAPa9K5Pnz5e27Zt+5N1cTXJXGYLKSQEIBJlbGzssPPnz8+1t7cvDeJ4a0g2lR8chSW/Q9lbcQ8UgUAgFwgE68LCwqb5+PiY5Patrd9NmzYt/+DBgxUZGRldKYriIxsNIIPGSm0LadqpqkVEQ32hA/vaJ8WLFx/t5+d3SiwWG60ygTpatGghPH/+/B6KotoDR0RSIFOEPyhM7CxdN37pRkRDTdogoNqN1q1bDzp27JjNSjN0JhoQcGjLli19N23atJymaVc8KigiG9p0cfkREbQIMDGpamGAfzdBELIWLVos6NmzJ7i3ZVp60Nn6WARMhYBYLLbbtm3b5IcPHwbZ2dnZZ2dn5xkY2sYhZjnqgd/s1PsGzTDMgf+MQcfNnz/fpBFC8fGNj4/nBgUFeTx//nwJTdPfw4UH1FsfPnyAuD5aXVxNNT/0KedrlzogRyAhg30ZS/uOiBJjZ2f3ns/nR3h4eITFxcWZTDpUq1at0nfu3LlKEERpXBWu1fbIclNJH1it4lmYZ0hlggyR1VI+acWKFZcFBwfPNIWbd2F2VieJBjRQLBZXi4yMjM3IyGiJWD/8Hlgs0i3pZPiDsW1YPAAyiCnhg5LGfPfddyf79u07Jioq6n5hgsPWzSJgDAKTJk1yTExMXPTw4cNRXC5XlWiKve1pR1STaKgdWi+MHz9+dHh4+HVjxqGgd4cMGWJ/5MiRkI8fPwYxDCOEfQhIoTUZ62oaDSK8oI34LVhTx8/hcHLs7e2ja9WqtfDs2bMvC8JCj78TpUuX7pSamrqLJEk73CYD4WaMxFuPdtj0ozhGSIWothGinZ2dL//000++u3btsnkzAp2JxoYNG1zCw8OjHjx40BepOQAQpI/Th2zgEg0kNsWin4G9xv1ff/11wtatW48QBGFwBDSWRNv0GrT5xk+ZMuW7Xbt2rb5//34fgiBIWCPGemvZPCj5dADfE9SHKFjb3wkMDBwdFhaWbO5+N2rUqObNmzf3K5XKShRFqWKdwN5mHfYGBEcjQCny0lNJyJARLXyPon/CviqVSpUMw1yoWbOmX79+/a4ZE5hLE3+wbzl06NCUzMzMmTC30fhpIz7mHjtbLh+XQIGdIowlEF2pVCqtU6fOyoCAgNkjR460ecm+zkQjPj5euGnTpqmHDx+ehMezx5ksIhsFDbym6gSFIEbviUSiNx06dJg+c+bMuCZNmthMhrqC+s3+/dtCwMfHp2pSUtKGFy9etIbNGDZhdICxtz2NuUCAwRgcqJ/+Q5wdDofz1MfHZ8zKlSuTzD1zvL29edu2bRuTnZ09iSTJsjRNqzKQWmu6c1yigWMDv1df3uRKpfJuhQoVpjZr1uxgQkKCwRc2bdj36NHD8ciRI6ukUukQ9HfN/Z+d47rNWnTZRvaKIM0TiUQ3OnTo4L9nz57komCrqDPRYBiGnDBhQpd169bF5ebmfof0ggAlniRKF/WJltuL5s0ht2XLlkvnz58/r127dibTKeo27OxTLAKmQeDHH39sc/ny5eicnJwqcEtGRtRQOn6TMU1ttl8KOjyxr++7du3qv3v37i2W6F3btm1L3759e8rHjx9HyOVyBz6fz0ilUtUeqcu+Zok2ojrwFA5oL4bfwW04NzcXPExuuLu7L+zUqdPeZcuWGRX9U1u/WrRoUe7ixYtxDMN0gL/T4JZphThZckwMrQupU+HCDcHqFAqFpFGjRuLBgwevDAwMNPnYGdpOY97TmWhAJeHh4bXnzp2b8P79+xoCgYCAG5qmaFGXBYkTDSgXMV9YJHCDUCqVyvr162/28/ObOGrUqHRjOsi+yyJQWAjUq1evz40bNzaQJOkERAPZM0F70OZSWG2ztno1Lx/qfSG3Tp06M69evbrEhO6Y+XYdcqLUr1+/9o0bN2I4HE6jYsWKkR8/fszbI3XZ2yyBK9Llo1Df6CYMhAPOfIlE8r5ChQqTu3btum316tWfQnWa+FO/fv2G169fX0+SZGOciFkLRiburtmKw8k1qE6kUqmMoqiUoUOH+q5fv/622Sq2cMF6EY34+HiX2bNnL33w4EF/hUJhh+Lo69tmTdUJ2niRqBLEphUrVrzSs2fP0cuWLbusb/ns8ywC1oBAgwYNIPR4JETUVZ0ANG22+Bm2bo+keflQj5/MwcFhXWBgYLBYLLaYZNPNza3zy5cv51EUVU8ul6uSg+CHaWHPLSAYKM4CkFe0D6vJ2BuRSLSqTZs2K5KSksySxgEIWd26dbvcvn07kiTJSprY4BLuwsbKuurPf5UiBwuFQvG4Xr16AR4eHkmmckO2Bgz0Ihrg5rpixYoRp06dmv/+/fsShhq24ZsKlIHC/eK2Gs7Ozq+bN28eeOjQoa3WABTbBhYBfRGAVOfXrl2D27gqxwkcCIhwmPbwMjHNMHFxuuCG7wnYrVjh5OQUHxAQ4CMWi81yM9fWNvBCOX78+KDU1NR5DMO4WuPBiQKLgUQZ9k1oo0KhkAoEgtgaNWqEXbt27R9dcDfkGXAJnjlz5pB79+4tpiiqhDaioZu9XiFMNEM6bMZ3UM4wNVmU29nZ/TFy5MjAVatWpZmxWosXrRfRACY7d+7cRsuWLVuekZHRSp1+Oc+9FbUeNxDV7BH6G/o9ypCIdNboZ4IgIFvdmjlz5kzr27dvkdBTWXx02QoLFYEGDRpM/S8I42zw3Nac96YlGvp10xq3d3RDx6U+XC5X4ejoeMjHx2dQWFiY2YJ2aUMPjB1Pnjw55+PHj6MgBkpubq5qr0SZXvEMpV9TF+hqEKk5P/Ay8brQwQR/R7FYeDwe6PUzeDze7ipVqky5c+dOqn4zQr+nxWIxPzo6OvjZs2dTIIAjcqmFPqDxs1UVijnWhra1j/BBY0uSJK1QKJ67u7sPevLkidm9rPQbceOf1otoQHXg5rpgwYLQx48fjyIIgotnO8T9pzVZLt5UHHicaIB9BrYwGTc3tz8nTpw4OCAg4IPxXWVLYBGwLAKNGzcO/euvvyaB7ac1EQ2zoGDEDq32MlHZraCARWrvCSAaJ4ODg/tOmTLlvVna/ZVCf/jhh/JXrlxZkJWV1YvD4ahCbGseoPjBr7nHmeqwxevFvwedPsMwjEwmSxMIBBubNm26Ojk5+YnJcdIYW7FYLNqwYUPYixcvvEmS5EN9yNYAjZ+p+m7yvli4QDx8g6axMzRFbeMIHlYfHR0d14wZM2b+okWLbN6d9QsBg7643759mx8UFNTrxIkTkQqFwhUnGvqEJsc3Xpyd40SjZMmSVz08PHqvWbPGbGJAffvPPs8ioAsCoGYMDg5edvny5bFg+/m1W40u5Rn2jBGnv2EVGvQWIhroRoxuyCRJKh0cHM5PmDDhV7FY/M6gwo17iXB3d6/65MmTOXw+H0KU20skEgL2PAgyCEnywEYCxY7AA2ehavEDV5vUQqvEA9x71W6+cPkCI3n0HC4thluwTCZ76+joGNGgQYP1p0+ffmcJo1mxWOwSHR298tmzZ324XK7KAhU+iHQBHnj0aOOGwKrfBoLw1cs6rhJEtjXQIxhXFDMD4l4KBILdDRs2nJ6cnPzAqntsYOP0lmhAPVOnTi31+++/b09NTW0DWQ8Ri8Xd93RtD9oK8YiJaFE5Ojq+atas2Zhp06YdaNeunUni8+vaLvY5FgFjEBCLxQ6bN2/e+Pjx418R0dBUKbK3vv/l5EDY4FJRODQpino0ePDgtjExMaaMaqnX0FauXLn8ixcv5uTm5sJYFrO3tydycnJU0g0gHehgxYkG3h/8sIGKcfsFTWkFuvUi91WUGwflEYG/A8FRKpUKqVT6iqKoiPbt28ccOnTIYt55EyZMKLNjx46Y58+f/0xRFFebJBuRRWuKrqrXoJvwYSTVgCJBCgU2NTCeMIeEQqGSIIjrrq6ufl5eXheLkgEoDqFBRAOSRa1evXrOjRs3JlIU9cmnykiLem3MnsvlSipUqDA3JCRkhS1nrjPhnGWLshEEPD09XQ4ePJiQmZnZFkVOxOe4bsZyFuxsIQo/NKWbuIhZqVS+6dKlS7M///zzXwui8UVVNWvWrPrgwYNAkiQH8Xg8B4VCQYBUA0l0NSNiQgGaJAInGZrSD5yMoP6jfRVdwuAdtXQDLl1PuVzugkaNGu1MTk62qFrJ09OzyvHjx7elpaU14vP5BMqzgkDD+/atk2lke4QwAqLh6OiokmhkZmYyXC73rZ2d3ZKWLVtGJCUlSQtzjpuzboOIBjSodevWA5KTk1eTJOmMFhTOXrWKBPXoiXrhKYsXL7570KBBIZGRkY/1eJ19lEWgUBFo3759qXPnzu2WSCTNcKKBDhu0Vr71jRgNEk42UJwI+JtcLk/t2rVrqwMHDpje9kDPGdK5c2enmzdvBjx//hyiYbrxeDwBIoyaUgptqjJtRAMZA36tKSgQF9hjSKVScPM9UqnS/7N3HWBRXF17Z2YrRWxgRDEgtogSxK6xdxQ7xtjNl0jsJdZodJPPmBg0Rk3TxBJNNIIaO2qMqNixoCAqqFgIIkiRun3+/6x7/K6TBXZhF3Zh9nl8BHbmlnPPPfe9p3p916tXr1MbN24s88zJLVu29I+Jidmj1Wo9pVLpq1TtJC3MJG2FfRz4AMAhgkbQZhAajVyaprc3adLkq7i4uMdcIhiCLcA8Y/efEgONd999t/Xx48fXZ2VltQbzCRKyNGgWbXzQlqGiHSuTyRJat2499++//z5UFvZHu19RfgI2QYFOnTrVvnnz5t6cnJzXgAb3YOKBxuuOhLB4GAZskCnPBgwY8M6BAwfu2cLCTpo0yeXgwYM9nz9/PkOtVrdlGEYMB4IxswmMtzBzGRl1wNVukRodjHLRaDQamqafSaXSPfXq1fuuWbNmDyydVtxU+np6erZ7+PDhQbFYXBMjX+CGjh9yPjx/v+QBOM8MCdVeJaUUCAQX69WrN2vcuHHXLFmHxtR1LMvnSgw0FixY4HLo0KGvb9++/T5N0/rwPbRVkgxX3GRIzQeZLRHDXRmGya1Vq9a2WbNmzZ83b15ece2Z8n1FQoqmzJd/puwpAOmsr127tjc3N7cdFM0g1eEgfLkOhGU/QtvpEWmDWh4ynFMgELwYOHBg2wMHDthMJWe5XE4fO3as/q1bt8bm5uaOEAgEHizLQlI2fXQRqc34N9AAuv/vkoryjzyQ0WkQLlYikUgJWh2GYc7Url17a6NGja5aKxGXqRzh7u7eMTk5OVwkEjlzTeaFReGY2nZFew6BGKwzaH9gndVqNSuVSh9Wr159Ub9+/faWh1aqrOlcYqARGhoqXr9+/fjIyMgQsVjsgo6gZLbQ0phPcIMKhUKtTqe7MGfOnKCQkBCrxoeXNfH5/iouBXr37u124cKFvQUFBR3gYsu98aIDdWW/Mr4+HgAAIABJREFU8XEPZfJgNtyMc/r379/28OHDt22NW6ZMmeJ048aN1o8ePer37Nmz/mq1uiEoY2G90ZnTUL9C7/xH2uvxUoWF9jDMHzUDDMNA5dVsFxeX47Vr1z7UoEGDk/7+/im2cPN1dXV958WLF+EqlcqJXBOur42trZclx8MFkIW1jXwA6wxAw+DXk6NQKLb069dveXh4eJolx2WrbZUYaMCEJkyY0PDPP//8LScnpzUKU9RsoNqwpILUYCYBAQ2e58kBAQGD/f39K7yKyVYZhR+XeRQIDAysee7cub0ZGRnvMAxcdF/mYODt2IXTEYWy/s5v0PqARjMgIKDdwYMHLVb3wZJ+r6DdePbsmcu5c+ea5eTkDFKr1a0yMzMb5OXlOQgEAkeRSCRE0wpUhIV54Tzhf41GAyJOP2WRSKRmGAZyBj2vUqVKdM2aNcMbNmx4JiAgICU4OLjMfTH0Mvw1/cvLtXN3d++Qnp5+VKVSOXM1MpUFbHB9cIo65zCDtsF0AgDyr8aNGy+MjY29WVncAUoFNECrERISMj8qKmoRwzAOKEQRbFhCowFtisViVd26db+YNGnS2oULF5ZphkDzjhf+aZ4CLynQv3//aufPn9+TmZnZFQqqGXyO9I5zZIQCT6+XFABBRNH0q0gNws6fGxgYaFGgYS2agzyMjo6uFh0d3fju3btvZ2RkNMrKyqrPMIyrg4ODs1KprKLRaBzA1Aw1VCiKypNKpZkQeUBRVApFUQ9FItF1yB/UrVu3h25ubvm2oMHg0uuNN95o8/z58+Msy7qgrCdlPz5f0kumtdbHku0ac/Y1Nl94jjCfaKVSaXytWrVmjR8//mRFDWU1RudSAQ1ocOLEid137NixVaPR1AXkjjUdSOegkiwwLiSRovXk2LFj52zatKnSoMCS0I1/xzYo0LFjR+fo6OiwvLy8XiKRiAaggdWOX5lRIHGPTmcbAy7nUZAOkBytT86gQYPa7d+/P87SQ7SmrxakAMjKypI+ffq0RmZmZo309HTnmJiYGikpKTVpmnYEXnB2dn7m6emZ6uXllVKnTp3nVatWhUuUwhbBBUl7Ly8v38ePH58QCASuXA0GuXaluWhaeq0t3Z4x04kx8IEmMUgTr9VqIbnams6dO687ePBgvqXHZMvtcYCG+UrFr7/++o1169Z9kZycPFqn00lgsiBUueXjzSUCLhr+r9Pp0nr27Llg0qRJ20aMGPE/F2dzG+af5ylQBhQICgqSHTlyZEteXt4wuMGSuRAqw43PHBKTIMMIbV5AeKslTSfmjI1/9t8U6Ny5s9f169d35uXltYbQbbixo/M+yH28ZFYGoFEcf4C5BOghFovznZycNvn4+Hx+6tSp8shyW9xQrfp9qTUaR44ckaxevXrCmTNnPlOr1bVgtGT0SElHz0WMNE0XNGrUaM2kSZOWz5kzhy+yVlLC8u+VCQWmT58u2bVr1zepqalQE0hfD4J0CCV/L5MB2WgnhYEM3P9arTarX79+HcPDwy2u0bBRktj8sKZPn+66d+/eH5KTkwcKBAIxXCxJ02BpL5k2TwAibLk4Xw0D0FBJpdJz7dq1m9WpU6dYW9dYWYP+pQYaoH6cO3du440bN36fk5PT7eUa/Lv4kLmD56rkwAvbxcXlVI8ePT4MCwtLNLc9/nmeAmVJAXASDA0NXXj79u1PaZqG0MdXvhmmeqyX5XjLqy8EGqQmgwQfUJXU4KNxp7zGyPf7OgW++eYb2Xfffbfs4cOH01mWBZ+TV7lPMMVBRU89bsxMYuxvOp1OKxQK45o0abIoJibmSGVx/uTumVIDDWhw06ZNzosXL16alpYGjCexBJNxTSdCoZDV6XTJfn5+k6Kioo5SFMUbt3kJaNMUaN269YdXrlxZT9O0BJ3mLLE3bHrSZg6O3OekQyH83RCVkTJ27NgO27dv5y8XZtLWWo/L5XLh5s2bJyclJS1nWbYK9oPRNGSeGGuNobzbLcxHA2lg+J7VaDSPXF1dl40bN27PqlWrLJIHqrznXpL+LQI04PZ27ty5vhcvXvw5JyenNsaRW0KoQhw65omH2id16tT5buTIkV+sXLmSjz4pyYrz75QZBdq1azf60qVLP1MUJUMtH/AzxNIbDtEyG4std8S9CRIHFjjQJcyaNavrt99++9SW51CZxmbQ1gXGxcWtZRjmTfTJQN88qOcBPF7Rok6MgQuMKIH1xyyuhhT6LE3TL2Qy2frBgwd/s3XrVghbrrQfiwANoN6MGTPq7dq164e0tLTeFEWJgPlKa0Ih3wcmhjYlEsnlzp07Tzl27Ni1yqqGqrTcamcTb9OmzeCoqKitEAaIDnPAx1C1kc+g+L/FJAU4aUqBBBNVqlSJmjJlyoAvv/yyUiQ2shcWb9eu3VvXrl3bpNFo2sOYYd2At5VK5Wsl7SsS2OACYvwdIyOx0i78XaPR5Eul0p3t2rWTnzp1Ksle1tVa47QY0NiyZYt03bp1U+Lj4z/RarU1FAqFRYAGEd6KCBlCwpasWLECok9U1iIM3y5PgdJSAGp0nD59entOTs6b4LgE2gwQxnl5LzWolnCaLu0YbeF93ONGnGVZFxeXyMmTJw/98ssv021hrPwYXlIA8sRERkb+mJeX9y6GbgOYBqBBrmNFAhq49sivACjg8ouaDJirQZujEYlEf7/11luLoqOjo/kL8cs8ORb7fPDBB74HDx7ckJmZ2Ray4JXW+xjttJjgyJDCV+3o6Hh4/PjxC9euXWsz9Q8sRkS+oQpDgdmzZzfYt2/f5qSkpI5QEwv4GcAGKYwrzGRLOBHc4/A6HkoE8NBJpdLwadOmjeZNpSUksJVek8vl4u3bt898+PDhf6GKLch6w01ev46l1WZbadgWaZbUumEKeWiYYRhI8Vqg0WjO+fj4zIyJibnDg4yXJLco0AgNDXVZvHjxlwkJCZPEYjED+f3xYy6yJdWpiJgNCJKlKAqcQpcOGjRoW2XKrmaRXcI3UmYUWLRoEYQBfv/o0aNhADRAGPMmk9fJT0aY4AFFAA2tl5fXz5MnT57Dh7SXGdua1BFEG3bv3r1DRETEYYZhXFA7R9RqeZVPw6QGbewhrjmPPL/I7+Dyi2nltVothLEe8/LyCvHx8TlfXtV1bYyUlgcaERERwuXLl3c9efLkDoqiaoK6uDCH0OKAB2kPA3UUOoQaMo+qHRwc/h4zZszEH374gS+0ZoucxY9JMH/+fOd9+/Z9lZiYOImiKEg7/ZqDXEW+9Zmz/OReRw2HgTb5AwcOXLhnz57v+JuhORQtm2eDgoKcDh48eFKhUPhLpVIGgDRqsY05TpbNqErfizHnZIykgbs5Tb+8nxvKY4DjK7gTqUUi0YUWLVrMDAgIuMVfgDkXitIvy+styOXyqr/99tsv9+7dGwQFhbipyLkAozDAgYtNMiwiR4Pnfkrz5s1nTpky5c/yKjhkadrx7VUsCsjlcunevXsX3rp1ay4U2OKk1uZ9NAzLXUTUSW5wcPDUH374YZvFOMP85McW67qiNQRajWbNms2/deuWXCQSSbkl4+0RSBtz+AStBXxIbQ36ZxiqlaucnJwu+fn5LenevfvZypiQqzjetqjpxIDyqP79+48/cuTIV0Kh0A2YEdEfORgEGGTdB30NQyLrGj4Pi4qpXPF7jUYDWo3t8+bN+1QulycXN1H+e54CZU0B0PAtXbp0zMWLF1eq1Wo36B/NgCCU7VEQW4OGpDMo4bMBt8TnU6ZM+Wj9+vV7rdEv32bpKTB48OAehw8f/l6tVjfCtAb2HLptDPQCmIC/o3Yef9dqtZAnQyORSM40b978s4CAgEtyuZwPUDDCVhYHGtDH2LFjm+3YseNrrVbbC2QrUb1ODxhQhUw61RDVGl+BDXLRcZHhfQPoYJVK5eOhQ4fO3rNnzz5etVp6ocG3YFkKAMieOHFis9DQ0J9VKlVbaB2EMOQYsEQ9IMuOtvxaI2mBHvyQoI+iqHtz584NXrFiRUT5jY7vuSgKgAb7v//973KdTvcBOIUib8PtH31ujF00rUHVkpprjL1nyIVhtGwA+mWo1WoIHzvdrl27T/v27RvNazIKX1WrAA25XO70xx9/TLp79+4yiqKq4MKQzGdQOemRIn64DjfoOEc60MHzRAEfhbe39/qAgIBP169fr7QG8/Jt8hQoDQU+/vjjmr/99tvG9PT0QTqdjhYJRQKV+mXCrtJWOC7NuEr9rgVNEOhIiPvcMDZWIpFc/fTTT4MXL158rdTj5RuwCgUgedfevXu73rp1azNFUfrkXSjHUU4X549nlYGVslFMGgfzQY0bNgm/i0SiArFYfLhFixYru3btCiBDU8ouK/TrVgEaQLFRo0bV37Vr1y6tVtsSVGqobkLPe/gdNBuFoVBcaGgLbWSYR594h2UY5mb//v0H79u372GFXil+cnZJAQgDDA0NXRQfH79Qp9NJ4fYOtz7ebPK/5cT9jJcPgwZUW69evb2LFy+eGRwczGcFNYf7LQgCTel27ty5jj///HNIbm7uBKjro1ar9eeKPWjtjO1D8kxCkz3wpCFHBqtSqbLd3d0P+fv7f3Lo0KHHptCosj9jNaAhl8sdvv3228/z8vJmqNVqERcwFBdrTebNNwY0CAbJad68+dQhQ4aEyeVyRWVfUH7+tkUBMJ906NBh0OXLl3cIBAIZ8DWGffNg4+VaIR3QxGq4lGT37NlT/v777/80YsQIvlqzbbH1v0bToUOH9jdv3lyfn5/vR1EUg6ZurjaDy/NF7YGy2B+obUefKQQZOP6X5n1awLI6AE5ahmGeVqtWbXu3bt227NixI8HGl8Vmhmc1oAEz7NixY68rV678rNPp6oHARW0GLiLWfTBGDdJ/AxmODJXFv9E0raNp+mSfPn1mHzp06Bbvq2EzvMUPxECBAQMG+B86dGi3QCDwFIlEFA80XmcNvPninod97uDgcG/y5MkTV61adZ4voGj7W2n27NmyY8eOfRgXF7dMKBRWhxFzEzYWZiYvz9kh0OAmi4MxAR+CRkMqlQoUCoVSp9PdbNy48fedO3c+8OOPP2aW57jtrW+rAg25XP7GihUrVrAsO4phGAnmwSdDgwqzU6PQgYXGsCljobEGIfWsefPmyydOnLiJT+xjbyxY8cc7ZcoUjx9//PFHlmV7C4VCEXrlW6LoYEWgHtryUbsBpbXr1at3ZsGCBaOmTp3K58mxk0UePXp03QMHDqzLzc0dADXGSGdQ7hQs6bfBjRTBvorqv6jLLWm2N9TXUshkstNeXl6r27drf2b9d7w/oLksaVWgAeF9s2bNGhYfH79CrVbXxxAh+N8Y2jWmZgO7GAk0uM8YEKna1dX1ZOvWrT8+ePDgLXOJwD/PU8CaFAgJCXH8/PPPl+Tk5MxgGMYBnR8xtb41+7aXtkkVtkwmy+3UqdOW6dOnLwwMDMy3lzlU9nGCY2hkZGTbS5curc/NzfUFUE1GExaVQ4kLFkwFIuR7JYk6IcEIvo8RJ6AdB3+MmjVrnmjZsuXqdu3aRfFOnyXjcqsCDRjSvHnz3ti2bVvIs2fP3hWJRCJ0AIUFJsNeSRRKToVUbXGZDwW2wYcjp379+munT58eMmPGjOySkcOe3ypjDzB7JlUZjz00NJSZNWtWUEZGxkqVSgVmRP0I7D7y5F90NJ8HcQ+DZhLoArkJ3Nzc4oOCguZ+//33h8p4qfjuSkkBABvbtm3rm5SUtJxhmGbgn8dNVMftArXXJFAo7h1sgzSxG9OaFKbtKGyaBuABJd6VNE3He3l5/ebv779tx44dqbxZvuTMYXWgERoaKl66dGngvXv3vtdoNLUwjwaWfS8MYJg6JfDzMIRUsWKxOLZz584fL1q0KKJbt258uJGpROSfszoFBgwY0PDvv//+UalU9gBNhu145JsPDqxFLDgUaJpWu7u7hy1dunTBhx9+WOnLa1uL1tZsNygoSHb8+PH+ubm5IRRF1WMYRl9QEA5x0GRjOXky/BX+BrIctdfcLKNFjRfaJjVi3DMFfCzgGTDdYxE0BDLYJxaFg9/VavULZ2fnY97e3psHDhwYKZfLea1aKRnG6kADxte7d2+3ixcvrsrLywuCVLUQ3mepzIgkk2m1Wo2bm9uhJUuWzJ0xY8b9UtKGf52ngMUoALllVq9eDVFYM/X5NAyJ60rWge2Ag5KN//W3QLijKbVKlSqprVu3/nz27Nm/BAQE8LlxLEHgcmija9euwps3bw7LyMhYQNN0c4lEIlQoFHqwIZPJXoEObg4V5AOMNCyuAjjKfzTLk35PXA047DloF88fMnSVpmnI8glFS+Jr1669s3v37pu2bduWZr9aDNuSEWUCNEB1vHjx4kEJCQlQUvgtmqYpQJek+ovcC6ba58h3ABEDs2i12pTAwMApf/755377ZZJykAx8l1alAOyBefPmDU5JSflVqVQ6lkXonlUnZMHGyaiTN9988+LIkSOnffnll9f4/WtBIpdDU4GBgQ6XLl3qm5qaukQkEjV2cHCQ6XQ6CgMA4MCHD3npJMNKX1oYsTCF8QkYtGCvUoQbAxdoogSzPZk2AVoEsKFUKrUCgeAFVF6tW7fur507dz6/efPmnHIgWYXtskyABlCvX79+ridOnFhMUdQUjUYjMlRhfZU/Xs9SBtu1OdSG2xCpktNqterq1auHjh49+uO1a9c+M6ct+37WdhAshDLzh8S/uWno0KH1T5w4cSA7O7sppI+wb36z/OghjNXX1/fnxYsXLxgxYsQLy/fAt1jWFJDL5cKwsLC28fHx/6EoqoeTk1OdvLw8WqvV6gEHGSCATpgAPOEDwIDMNFrY2BFs4PlB+nqgmRKTwUEbhmAEnUAggNvus2rVqkU2adLkz+bNm190d3d/VlQqcduRsmW9kqXrr8yEHdzoli1b1vr+/fu7VCqVB6w32M6w7gk31M9UD2JgTgQbGD5L03Rqq1atPh09evQfldMxtHRMwb9tHQpA9Mnq1avXpaWljdFqtWIUeiUF2dYZZdm2iocKwzCgui7o2rXrpODg4D9GjBgBt0z+UwEoABcPf3//mjdu3BgiFAqHsizbWiQSVdHpdEIwjSDggKniOcBJR1/kJRQBCpdU0BZELRqcjPX96F52kCeRSB7XqFHjbz8/v7+aN28euXLlSh7YFsJrlgBXZQY0YA4DBw50Pnz48CqdTjeRYRgRMFlhUSWmAg2kjaOjox60QJtisRiE1IVp06bNXbVq1aWy2qv8Tb6sKG2f/QB/tGnTZkRcXNyq/Pz8OgZ+eTWZkmj07JMS/xu1oW4EyAGNVCq9Nnjw4HGbN2++a+/z4sf/bwr069dPEh8f3zA5ObnP/xfEfF8gEHjQNO1g8FmiMD0/yHE4F1ALQYbIGqMrmfcCv4d3DCYZiCDRY3mapnOcnZ0TateufdDb2/tU06ZNY/z9/bN5UGt9bi1ToAHT8ff37x4TE7OaoihflUpFkyWiS3KzA8QKmgyuB7NGo8np37//mnfffffrcePGQZU9/mNFxMoT1zQKfPLJJ7V/++23H588eRLIsqzeG5/8VEawAXZyiqLy2rZtu2L69OmrRowYwZfaNo2d7PKpoKAg5uHDh+7p6elvZ2Rk9MnOzu6o0+m8hEKhI8uyjFar1e8LjEwsDGignxMZ4mpwDgWthZZlWVatVuc7Ozvfk8lkV2vUqHHlrbfe+qtPnz7JwcHBarsknmHQEEZ869YtysfHh0pOTtYLEXd3d3Ro0cnlcvi5aAeXMiRAmQMNKCu8YsWKySqVapFIJHJGr2JS4BaHYLn0AbCBKjj05mcYRle1atXbAQEBH8+cOfNkq1at7JqxypAnKmBXllD+WYYsERER0rlz5065du2aXCAQOHNbLRegUY7kMdjXoTji5eDg4Hnr1q07y/v3WIbXbL0VMKeHhYU5PXjwwPvx48ctFAqFj1arbaZSqZqyLOsCddkALAgEAglo/+AfOSfgE0PeCx1FUVqKogqEQmGOSCRKFQqFD1iWTXB0dEzw9PS807Zt27sDBw7Mtpe0BwAk0tPTRVqtFvKQiLKyspj79+873717t4ZCoagplUqdlEqlTCgUgoMt0AnAGViGVDqdLk8qlWY6Ozs/9fT0zKxatWqOg4ODwsfHR1lepezLHGgAo0ydOvXNDRs2rBeJRH1UKpUYbGeGfPKvleQ1JUUzhkchUEEkDAyoVqu13t7eR999990lX3zxxU27q5lQjgeArQspex7fyJEjPS5cuPDTo0eP+kBxYvQxQnUvqf41FXjYGqtwTZ/GSoYbEvbBQZI1YMCAyePGjTvAF1CzZ84u+djxYL106ZLT7du3a2g0GldHR0dPhULRKDc3t55AIHBhGAbOCgbycoA7B6QzYBimQKvVponF4kcuLi43a9asmVS9evUMT0/PXEdHxwJ3d3dteR2uplADwFZKSorw6dOnTnfu3HG7du2a55MnT97U6XTeNE3X0+l0rgKBoIZAIHAwOJA7CQQCvX+X4XcoWIrnOGox4FINWh0AYDksy0KYLtAovmrVqnF16tRJ9PHxuefr65uel5dXUBb0KRegsWHDBtH3338/LDY29kuKooCoFDrtgBkEwYMpC0UCDHgeBLNBFauPl3ZycgKm++Wzzz77eujQoemmtMk/UxEpYDtHMQiXr7766j/Xr18PYVnWGQqtkYCiuNwB9rA6XA0lqrnReRsLy7Esq6pWrdqp999/f3xISAhf18QeFreMxggajBkzZoizsrKEL168oCUSCY0l6GEIIpEIDlbwx9P6+Pio7SE9OMxpzpw50v/f+46PHj1yT0tLgwi0RhqNpoFarfbSarUNKYqqQlEUAAgazkYCVBRN+cJFHAIQAB9glsxgGCZGLBbHODg4XPDx8bk6evToFGuak8oFaAC1Pvjgg7phYWGf5+bmvqfVaqVgjwOwkZeXpwcK6BBUWNE1pDgKNPRSBoFtyKmhN6eALsnR0fH2qFGjpvfs2fOMrTv+8A6lZSTFyrmbwMBAn+PHj69VKpVdGIYRop0Zy8hj5Ug8kIsbru3AKMNVy+B7gg59mICJTKzk4OCgU6lU9/z8/L6YP3/+7za1N22NoMUxAP+9TVIA5Plnn33GREdHO8XHx9fJzs72yMvLe0er1TYvKCioo1arIQITTKh6YAF5AUBDYaoms7hJY1IyMj8J5JtiWRaORtB8pIpEovs1a9Y88Pbbb+8LCAh4OmPGDIsnyis3oAEF12bMmDEgISHhK4VC0RhT0EL2OMwUaEoMNRAaw5uAmJifAx2JYN3UarXS29t7/4gRI5atWLEi3u5MKMVxE/99oRSwVeAml8vFu3btGnfnzp0VAoHAFUA28DscyBjyjV749ri85AUAszdimmfcpw4ODvkuLi4bR48e/eWqVatS7XGe/Jh5ChijAGgtf/311yrJyclNkpKS/AsKCnxyc3PfEQgEdaGwolgshtBeBpOIkYUW9TaRl+n49TLBmh/I0qpWq/Wh5RKJ5EKDBg32+vv77w4MDEy3JPAvN6ABxBszZkzt8PDwLzIzM8dIJBJ98R3SOdSU2xx5E0QBBguEBdvQNkxRVIaHh8fm4ODg9QsXLnxszcXj2+YpYAoFxo4dWy8sLGyTQqHoDmphECpYQh5vNJa62ZgyHks+Q5o04VYFexP2M/xs0FhqJBLJzW7dun3UsmXLq2VhJ7bk/Pi2bIUCtqV6gogapVJZ88GDB60TExN7KZXK1hqNpqFQKHQSCoVihUJBQyoGOOfAtA8/w/+YJdXctA6mrAKcgaQmkfuOoaCh3gxFUdSzKlWqHO/QocPmVq1anbfUvixXoAEOQAcOHGgTHx+/Sa1WN9FoNPqAZxC4phadKgxoIBoEQe3k5AQhsBDqlD5gwIDvRo0a9f2oUaOem7JI/DM8BaxJgSZNmgTeuXNnA03Tb4A9FosE4j4ocd/lLH9RYMI+xlsb/Ax/VyqVYM585Ovr+0WfPn1+tQfbeknWwVa1aSWZC/9O4RSAcywtLa3azZs3m8XFxfXOzMzsJxKJPCiKclGpVGAS0X9gb4PG3tnZWVBQUKAHGw4ODnqQgRdszAkCwNxalwwAHjAWBCAwJtijRAVliNi837Bhwy979ux5YMWKFRmljQQrV6ABxIdiU2FhYfPj4uKmQ0gT1EFBIWUKsUmggRnggIDcmyEQUSqV6liWffzOO+8snTlzZihftIkXH+VNgenTp7vu3r37i9TUVMgWKkOggWYTawkba88b9zBoL0CQwn4EoQoCTalUZrds2XLj2LFjV82aNasSlQmwNtX59suSAgAkg4ODq5w+fdr/7t27wwUCQSeapr0YhpFRFAX5QPR+h1iJ1mDG1xeVw6AHGC+mc+BGnVliLqjRh7bQTwrNMbAnIdoT646B7IEPgCCIWJHJZI/q1q27sXfv3tu+++675NKMp9yBBizW0KFDffft2wd5BQZC6BIiP1PCW1GgkWWC8eYEQg2+NxTOQXOK1sXFJbJ3796fBgUFXbCkHao0C8G/WzkpAPzfoUOH1jExMWtzc3Nbge0WTQzoq2GPlCFNJ8QtDfJl5NeqVevQ0KFDl3377bcJvL+UPa5u5R4zaDAeP37seOrUqS5Pnz4dXVBQAADDVSgUilQqlf5MRY08mg3xkNef4DodZrB+BUIM+UD0hMXLhTnRl6asCEZ+wbPwMwB/GB9qV9DlAL4DMKLRaHRCoTCrevXqvw8cOPDLjRs3PjWlH2PPlDvQgEFBuOtXX33VLzk5+QeWZWs7ODjQL168TD3PvdG9smEZgofhe666iUxJiyiRWHBwfMmtXr36vh49enz2xx9/PCitWqikxOff4ykAFAgNDRXL5fLBCQkJK2ia9oTbEKgzCVWmXjBwhZCt+HGQAhGFGSnUQKDBrUmr1ebXrl37XMeOHf87derUC/aSPInnUp4CSIEpU6Y4RUdH+9+7d68uIs/KAAAgAElEQVRnRkbGuyzL1odspoaEYq8CE4gU6PpXyXBvkprcy3TRGkzL2EPJS0BhPiEk2IHaYbVr1/5ixIgRm1atWlWiLNs2ATSA8EOGDKmxf//+xQKB4EOZTAZZz/Sor7AFwsUyBjTQnEI+Ayoiojwx5L1/0aRJkx9nz5699sMPP+TVt7wsKVcKyOVyhx9++GFqVlbWTMgmDPZDLBKIggoPbxQCpJAoLxOLsURcpGAl7b7Vq1c/1bVr16/ffffdCD7NuAXYzTLnjgUGUnGbQD8buAzs2rWryZUrV95NT08frFQqPdRqtSPW0EDzB0ZYoRmfexZxKcXdt2Wxj8kzlXu+cvs37G+dSCSKa9Wq1YKzZ8+Gl+RibjNAAxagbt26bZKSktYKBII2IpFIn+8ezR+FLZAxoEEKOiQc2sqQAeB/BweHlJ49e64ZNmzYpvHjx/PJvCquvLCLmQUFBdU5ceLEoszMzA+cnZ0lpEoTJ4BqTfgdDnH0YyoLAWWMiGRmXi7ogDEZahGpa9asea9Dhw4Lx4wZc5QHGXbBjvwgX2rUqfnz59c6f+5cr7vx8R8+f/68DaRER605qVVE8wfmdCJzV5DEhPAOYwdvWe3h4i7vXM2pQeZoHR0dz7Vt2/b9kydP3jeXOWwKaEyfPr3Knj17PkpOTp4vFAprkM6ghSEvY7Ytkgh4CyQTeqE/B1R5ZRjmXteuXZcPHz5898SJExXmEpB/nqeApSgAtt+zZ8/6nD59egdFUW9JJBImPz//tUy5pJMz5pvB25SlxmFqO/q9BXWb2Jce9TAOrMiM+06r1epq1Khxp0uXLusHDBiwtbLsMVjL6tWri5KSksQ5OTlCuPlCVkv4p9FoXsldCG+EiDjIcgm0gn8ODg4ajUaj3LhxI1+fyVRmtMJzADLGjh3b6Ny5c6OTkpKCKIryhtojxnwHSZBAnjXFDasw08W/3rOw9qo4TQbZP/qb0DRd8MYbbyxduHDhenOTetkU0IDJ9e7d2y0yMnKNSqUartPpxFw1MXdhikKBqMZCEwz8jkyCCcLy8/NZZ2fnmPbt2y+ZPn3634GBgfnFMQf/PU8Ba1KgQYMGve/duweJvN4WCoVQMEnfHTo5Az/D38ozMgX3IYaRk+HoGDlDUZRGLBbf6Nu371cjR448XFHqmACIqF27NmPI5ihSKpXijIwMl7i4OM+4uLg3MjMzXUUiUVWtVuuWkZFRV6lUws9SiqJAnsF6Cl+a7Sl97gKWZSF/gYamaSiIpWJZNksikTyWSqWJzs7OiVWrVn3q7e39pGHDhhn9+/dX8r4t1tx9L9tetGiR6969ewOfPn06OTs7u6khkgRA4iufQDDFkwe2MZOmse+tM3rzkQjpR1XYmMjzFvhVLBZHDh06NHjnzp13zJmHzQENyKj26aefdrl79+4amqabQVW6oibEBRok8bg/Y0w/tAcCEhxEDREuSkdHxzPDhg1b3qdPn3PlGYliPruYs9z8s/ZAAfDX2LFjR5979+7JQbMBtygYN/gZYVI6+L0ws4lxAWJZziJtzzAOBBpECB0UdHrQtm3b5cHBwbvsXZNx5coV0ZkzZ5xjY2NdMzMzvVJSUt7Mzs6um56e7q7RaKpDaL5CoaiTl5cHVUdlIFvASRDAiEGGAbDQVyA1VCFlDb/rQSN8xTAM/A1C8IF2ADzU4LjOMEw6TdMPoSiWo6Pjndq1a19u06ZNkp+fX64161PYw16xxhg/+eST2qGhocGPHj0awzDMm0qlUoj1sxBokHuP6zsFY8K/GTNTlJWJxBK0IR29DabR5/Xr1w9ZsmTJOnP2tM0BDSDOpEmTHP7888/309LSFgqFwjqoGiZVxMUhSS6R4XkkGrSDyUpAeIMpTqlUqry9vc8MHDhwyfjx46N9fHyg+Az/4SlQLhSQy+XS3377rfezZ8+W5OTk+MGBBbwKOSmAl7npya0lvAq79SDQQA0hFkUEYqnVah1N0ymNGzf+bsSIEd/L5fLsciFiCTsFIHDq1ClGpVJJTpw44f748WOvjIyMVklJSS1TU1M9BQJBzby8PGelUumA2gk4W+AwEgqhbA2lNyGhfxk3Ko48mNDPprCcQWKxGEwq4MgOIEQtlUpzxWJxmkwme+jg4HCRZdnrb775ZlzXrl2ToGCWpTI5lpB0dv0aOHwePny4+alTpwBkvCuRSJwgYy/U34L9ZVhf/brCPiSyTuvnTZpUjAENa+1RaxKddD0wmIQ0Uqk0ZtiwYSO3bdsWb2rfNgk0YKMHBATUOXv27KdKpfJ92Mx4kyMXC8EDRpMYs3ehUMZ05iggybwbmFTIwcGhwMPD4+jIkSO/WrZsWVRJvGtNJTz/HE+B4igwe/ZsWVhY2JDU1NRFLMu+JRQKGXAQhcMJk/6gGcVaQswY0OBqM+B3GI+hiCEUbEp/8803Nw8YMOD7tWvXPrGXfQRh9omJiU5Pnz5tmpyc3CwjI+OtzMzM5k+fPvWiabqGSqVyUKvV+gJ46IQOcol0DCQvQ6AtxWRl5EEEz3MPJvwbeRvGgwsTKWGaagPfgNZDwbJsvpOTU7Sbm9vZhg0bnmvfvv3FZcuW5dkLzYvbA2X1Paz9zp07e8TGxs7Mzc1tr9FoXNDkDiAagT2uPawFWU+rMKBRVuO3Zj9YSwyzl4pEopz27dt/cPr06TBT+azcgEZx6XnBDnr8+PGWUVFRPzEM46vT6fS2akxnjNUtycJrRQlbABYYaoeF1zAxGDqxgWbD0dExx9PTM3zw4MELli9f/thUQlpzofm2Ky8FgoKCnC5fvtzr0aNHITRNe4jFYnBGo1DQkaYUpBIKBrQhk57xJaEk1wQJv5O3N9hbhiqtUBEyzcPD4/chQ4astXWQATJo/fr14tjY2OpJSUm1FApF66SkpFbp6ektCgoKPPLz82uAa4yBZnpZSYIs+Bnr04BsgQsLOgKiRsPcolhcVTv3d66MAxceILpWq1XIZLL7jRs3Puzl5XWkfv36d9q2bZtZnmbgkvBaebyzZcsW0B62vnHjxtLnz593gTWXSqX68HL4wNqSQILMrGlKUsnymJPJfZpgUQUehLMSzl6Yr1QqVdWsWfPnTz/9dH5wcLBJPo3lBjRMIcS6deskq1ev/uDRo0dLxGJxLci6BouO9mDSpALtmQI04DkUwNAOOrMBU+H7oJ5s3rz5H127dv0+ICAgtjydr0zgA1NIyT9jxxSQy+XCrVu3dkxNTR3PsmygTqerrlKpaENxsle3a2PRJ8ZsxIWZQ7jawqL2FPRNfq/RaLRisTiuQYMGK7t06XLkxx9/zLRFkgO42Lhxoyw9Pd3z3r17jWNiYvwfPHjQKSsrqyHLstXAAR2yNXMPF3IuSFPUlnJNuvA7AkBzDyJj68WlI/kMXrhAjkEVTkPp7wwXF5dzHh4eJ/z9/U927NgxkfflMM6NADJ+/fXXYefPn59OUZQ/TdPg3PsqLThqzXGNycsqRoDZIp9bakykCcjgS6QH1BKJJOqjjz4aHRISkmBKX7YJNIjTddSoUfWPHDkif/HixShwrsJoEUxmRNo2iwIawBQoPFALgipfTAmLghOQm0wmy6xTp87f4CDasmXLWP5mYAo78c9YiwLgJP3dd9/Vu379+iSlUjleIBC8AYcmmk6gX7xNA1+jaZDU+OEz5O0Mb+nGQAVpmsT6QWiCxOrIhvnmikSi6IYNG/40YsSIPXK53ObCxIF+SUlJLlFRUY1jY2O7pKSk9MnNzW0AoE2pVEqAfBKJBBw1X2lrCgMJ5EFPmmBREJPfo7rZHL4oDmyQ36Ncw7HCeFQqFfh1KCUSSY5YLL5Uv379La1atTq1adOmDHPGUdGf/eabb2R79+7te/PmzU+zs7N9pVIpg+AdgaLBqVdvFoT1RaCB62oukLQ3mnKz/qKzt06n+2f48OGThw8ffsSUs9E2gQaxGhEREcIVK1b4nTlzZodGo/GmKIoGp7jc3NzXEhYVp9GA71FYgvA1lkwFmAieMaiIWKlUqqxTp05kQECAfMiQIZfLU7NhbwzKj9c6FAgKCnI5efJkYFZW1n8YhmmuVqurGqIbXsu3gb0j+OD+zhWQxvyb4B0UrKQDteFdyK6r1mq1Tzw8PMJ8fX039e/f/5Et3ZwhUiQmJsYRcpNcvny527Nnz7rk5eU1UyqV1XU6HUSD6HEWSRs0C8EcizvwuTIHfTVIWpprOsGxGFsPUpOCz3HXkXQuNZhVYJ1SnZ2dTzRr1mxNjx49YuVyeaV3dAeQsX///rHnz5+foVar3xKLxTTQDlL/k1FUUPkb+ARMlWhyRxO+dXa47bVK+iARZtPsnj17fh4YGPidKTk1bB5oANkh3G/nzp3Tnzx5MlOtVr8hFosh8c0r9aQ5Nmhjjljk5ia/N9hj8zw8PI4MHz7881WrVsXaHhvwI6psFJDL5eJLly75JCUl9Xry5EnPvLy8Tmq1WsIwjP5GjjcvUrXLvW1zQ2NRe4FCBcE4vAfOcKgZMThOq1mWzXRxcQlv2rTpofbt259avXr1c1tZB5AX8fHxb9y6datncnJyG7Va7a9SqbwVCoWjTqdjyDlyHd1Q64NaIVML25EgwJgJyxK0IYEP2R+qt7mghjD/gEmlQCqVXmzatOmGgQMHHpHL5bmWGJM9tgGmyOPHj3ePjo5epVAomgJPAA1JUyTOy1jFU1zfwkyQ9kiTosZMaDHIy4zy7bff3jZmzJhP5s6dW+zetwugAUSYNGlS7QMHDkxKT0+fqtPpXKtWraqvOgcI1Bygob/CEAWqSG9vbIcMR6NpmgUVpJeX18HBgwcv++9//5vIV5ysaFvJ/uaDjoxHjx59IyEhoe+jR48CNRqNj0gkcqUoSqJWq6FMtT7U0thNmLwRk3xP+i3BwWUwVbIKhQKyVeZLJJIkZ2fnc56enoebN29+oV+/fhmmqE6tSWHIU7F161ZxWlpa1Rs3bnjHxMQMTklJafv8+fMmQqGwmlar1dMC9z6afXDeXHnA9bngai7IuRSmCcK+ijLnloQmXC0LccPUN4eAEYEkmlbg7yqVSiORSBI9PDx+bdeu3XZvb++kyhYOCya0sLAwv7///vuzjIyMPo6OjhDJRWH0EK6JKWCRNCuUZC1L/g76Fljfg49MEgjjBadQg6uBtlatWtfHjx///sqVK2OKm4vdAA0QrMOGDasXGRn5dVpa2jAXFxcG7GQANswFGsURBXNskLc4nU6X26RJk91Dhw79YdCgQdGtWrXi0wMXR0j++zKhANzQLly44Hrnzp32mZmZbyuVynY0TfvQNF1NoVBARkpMFvWakxseUuQNDc2L4FuNAoVhmDRHR8fIqlWrnnd1db3avHnz2ICAgJzyBhhA3B9++KHa9evXfe/evftOenp669TU1KYZGRlvGpKcUehDgaYfeAft6+hJzwUDeNGAZwszfRQFMPDA54IAazEDCHGaYfQgA+eG40Oggep/QxRdds2aNfe3atXq2/nz58dUJpPwrFmzPHfu3Ln02bNnw6VSqTPmw4C1Qf8jLkhE8yPQkOuzYGkgaS0eKWm7mKgMaQNh7LAn4HeJRPJPUFDQ2G3btkUU177dAA2YCKDRlStX9o2NjV2lVCobQl4BU5xBixIKpFMbChhUFWHcOviEKBQKVigUZjdq1OhCy5Ytv+jevfsVczKjFbcQ/Pc8BUpLAdgfcXFxksjISH1ERXZ2dmOFQtGSpmlXgUDgotPpPDQaDYTHSqAUPU3Tr0wtBrABiba0UNOAYZgnAoEgTSgUXnVzc4OS7jd69+4NgkVd3iHfMM+EhISajx49qhMbGzssNja2X3Z2NsgDB8y+iSYRPEhQUOLBa8j58RrJSVW4KWpx7vNFaT5KurbFjcPYrRq1WHhLh8MC5gsHBNRW0Wg0kKDwhbu7+1+NGzdePXny5OuVodCdXC6vun///mlxcXFTtFrtGzKZjMrJydH75aHMJ/nCGO1J0FHSNbWn99CESIJzQluW1bFjx+kRERG/FycT7ApowAKtXLnSefPmzf+Jj4+fL5FIaoPpBDUQSAzSBstlluJUneRthkS2qN1gGEbt6Oh4tX379sv79+9/whRHGHtiLH6sFYcCkIsmNzdX5uTkJEpPT3e6detW/Xv37jVRKpX1NBqNc15engwyH0ImT6FQCH4XBTKZ7Jm/v/9N+AfpryGJnVwu19gCVSBzY3R0dI1Lly51uX79+piMjAxfKL6o0Whkhtohejs77HHYr5guuqixV/SoAVK7QppdDMBSLRKJojp06PDllClTwm1BQ2UtPps1a1bVv/76a/T9+/dnMwxTHyKMMjMz9fyCGj1uTpriQJ61xmpr7ZLp1xG8Gs5cbd26db8bOnTo4lWrVuUVNW67AxpgQlmyZEndffv2zX7w4MGHSqXSCQULgAQgCiZaMTZxU1We+C65OZHIWq1W5ezsfN7Hx2dh3759r9qKILY1BrXH8RSXSM4e54RjBuDRtGlTYWZmpjArKwu0gZAEj4ZwSKlUqnV2dtZqtVr1G2+8obGlQweyNl64cKEORI78888/fbKzs1tRFOUhk8lECoXiVUgq+iegZsFYuCnXzFrRVd+o3eCCDB1E3Lxkdrg4XWnduvWkkydPxhV3M7VX/vfw8Bj8zz//fM4wDPjt6COOMOkdAg34H2/rxZ0T9koHc8eNiS7RLIeRNwbfRrZOnTr7xo0b94FcLi8ydNrugAYSatSoUW/u3LlztUAg6M+yrL5gCaaE5drSuMQtCqmSzqHwHhmfDr8jAlapVCqxWBzVpk2bb8eMGfNXcHDwC3MXkX+epwBPAeMUAFAENvTLly97P3z4sG9iYmKv3NzctyDvhVar1Vc/hTdRm0keFuQtnrwwIKggza0Vnf5oEiDniQcq/A1qqYCTr5OTU1i/fv2+3LVrl8n1K+yBdoClAgMDPSIiIn7Ly8vrACZD9J0BHx0SaJJAA3moMmi8ilpHOA+5kTfoxwW08fT0/Bv8NFasWPG0Qmk0yNvZgQMHOl67dk0ukUg6qVQqPUoFIAAEANUphiuZuiHQrou3AAQa0Bb6csB3GO4HmX8FAkF8p06dvhs5cuRWU9Oxmjoe/jmeAmVJAVvQ5sAYVq5cWSU6OrrJ7du3Bz9+/Lgz5L5QqVSOgCvIGzq31gT3Ror+C+R+5h4mZUnf8uiLCzSMATKZTAZgI6N27dpbhg4d+uWaNWsqTGKvKVOmOB0+fHjSP//881+WZcGHR38ugMmdBKrwM5c25EWzPNbOVvrkpnwggyUaNGhwedCgQaNCQkLuV0igAZMCm21ISEi7q1evrtXpdL40TdMAMgAIoPnEHDsbAg1Sq4FZQ4E5MbcAajVgDFqtVicWi5Pbt2//6Xvvvfcnr9mwle3Bj8OeKIAajJiYmGZxcXED4uPje+Xl5b1FURREzdAIFshMp6SphDtX0kRCAg08UCrLTZWrocX5k//r/dIEFCtzkD1p2rTpl0FBQdvnzZtXpM3dHngLQKufn1/XGzdurBIIBC2gsi5qKsA5mARhpKmEDG21qGnN+tGoFl8W0mcRk9iRGbZr1aoV37NnT4g8uVxhgQZMDOy369evHxIbG/sZTdONdDodjSFtpIewKYLFmD3TACZeK6YEoWQCQ6gTfA827mrVqt3y9fVd161bt132Vhbb4tzJN8hTwAwKHDx40GHfvn3NTp06NeDJkycDNRpNA5ZlZeA/As2Qwo4r+Ml9zdVc4LN4iHDt7hY9RMyYryUeNffMIn00yP6xbpTB4U/LsuxNX1/fJfPnzz9h75EoEyZMqHrs2LHPnj9//j5N06AR0xcjxHXHaJzC+IYEY5ZYM3tsAy/fpHaHNKWIRKLkjh07Tvv777/3F5Vfym59NMhF27Bhg8vatWvHxcXFLXF0dHRVKpX6GhCQ1AtSlZdGXYobsSgmMQAaDUVRCS1atPgpMDBwd9OmTZ/ZkkOdPTI5P+aKSwG4bR46dEh29erVBocPH+5948aNEVqtFi4KjizLCtEOjJEjpF9BSanCO/j9j3IkLdAcDKANfM+cnJwuDB8+fPrWrVuLTcRU0rWw9nuQPfe3334b8fjx4xCWZd20Wq1e240BAxjuixoOHI89g09r0ZTMDIrAH4EHy7LpLVq0mL1o0aIdRZ13FQJowKQnTZrkEh4ePiMpKWkawzCuLi4uVHp6+ivnTW7KZVwUU00rCDhQXYs+IKRKF/qQSqUZjo6Ol9q1a7dh7NixEDJW6esKWGsD8O3aHwVASxEWFlb16NGjb0dFRQ2EjKYCgcA1Pz/fWaPRvEqwhWpaEPxk4TKcsSlZGU3d2/ZHRcuNGGkE/4NzpCEsWOnl5fVLr169Fm/cuNHunNwBxHbt2rXV+fPn16vV6tZSqRQiq/S+eyRP8PxhGh+RlYwx0AKBBkVRmT4+PnPWrVv3W1GJ3yoM0ADmGjt2rPfRo0c/zszMHCGRSKAqIxz8r/w1gEhkiXiw0xXFbEV/p8fC+s0JQg/aNWQRhMqJGldX1yvvvPPOohkzZpyrTJn3TGNd/qnKSAEocrZt2zbfs2fPjrx//37fvLy8ejqdzglNJOTt0tjNkr9tWp5rSMAGgM5wIdNJpdIUZ2fnmcuXL99vS4XyTKHAggULXNasWbNEIBBM1mg0YDLRf7ihzaa0VVGfMdX0ptfW61h9jBfpFErsxSxfX9+Za9eu3VEpgAYwBDiUQVKi06dPz8vIyHgPhBg4AGFhJAzVwaiU4pioOMSL36MXLrQHPxscUVX16tU717Jlyx/79u17fNKkSdkVNUa9ODry31duCkREREgPHjxYLyoqqs+9e/dGZmZm+jIM4ygWi6js7JzXvP0L8yUgD4rKTU3Lz95Y+KJYLNYyDHO6RYsWiyIjI4t09LP8iErXYvv27ftcu3btZ6VSWYdhGL2fj9UcPEs3VJt/G/0cYaD4M/pFGfZqlo+Pz4ylS5dWDtMJrhikJ/7999+bRkVFfZqcnNyLYRgXqGqJ6cQJ1G60rDa58qTQK+o2heYTTGYCvxuylKokEskDPz+/Tf369du3bNmy+zzYsPm9xQ/QQhSAvRgfH+9+8eLF/teuXev97NmzzkKhsCoUfANNI+wTAOVF+VDxfhUWWowimkFnWzKqAIpJsiyb7eLisrNXr14Lfv/992zrj6T0PYwePbrK/v37oUTFBKh3QwYEkGCj9D1VjhZIR2r4mUxoZtDkA9CYsmzZstBK4aNBLjsIuAMHDrx98uTJj54+fTqSYRgnsHNginJ4lgQHRbFMYVoNXABkZAAwWE+BTGv7MuJWl96gQYOTQ4YMCenTp88N3pRSOTYpztIW8lOUJcVh/6Wnp9eIiYlpe/z48dHJycldCgoKqotEIjGEniPoR1OmsdwOZMQIbzKx3uqRphMybBHkm1Ao1LEsm/nmm28uHDNmzG9yufxl8gkb/UBxwdDQ0P4JCQlr1Gq1J9QyAZlPAlmSl4rTWNvoNMt0WCTQIDVDGI2i0WhSW7ZsGRwYGHigqErAFcZHg0v9iIgI4aZNm7xPnDghT0lJAYczRzKBF1lMzdyVI8OhEOURjlSv4rOJlOXwN1X9+vVPdenSBeLUo/r06WP3cerm0o1/vuJT4Jdffql+7dq1VlFRUUGxsbE9FAqFB0SRwMxJfynYN7AfEXQgZVD48+CibHiFTGqG2l5UjRuSH+pEItG5du3azYmIiLhqyxrZsWPHeoWGhn6j0WgGAM9h7iMEstwUBzzQMI3HyPMO9yVqwSQSSUL79u3f/+uvv84VxRsVFmgACeFmdfz48Q5HjhwBM0o3kUgkRIRLZvpEpGYK2bkgA97BzKHYDjqHwu/ov2FAgFC0KsrHx2d7UFBQ6IwZM+xCHWkKXfhneAqsWrWq5r59+6Zdu3atv1KpfEsoFMo0Gg3k0dPfKuHGjEUQUWCR9l7SVGlK3pvyobipbnTlM7qS9IqhxAZndn3CQwQdhu/SnZ2dvx84cGDIDz/8kFuSPsriHS8vrxGJiYnfikSiN6CKL8h6Erjy4LVkq0DuSzz/kK61atWK7tu378jNmzffLar1Cg00DGBDvH379oBjx46FqNXq+pBlEH0pSIBhqkcyV5UEv2MkC7QBvyOIAcHq5OQkyMvLe1XAR6fTQbn5p2+//faO7t27b23ZsuUdPt9GyTYA/5YVKGDmOQpg/vr169XPnz//TmJi4jDQHqpUKmfwi0KhhBl1Sa0FaTsnZ2GLGg0zSVLCRSmbXowNjvTRANkFmif4Hw5qMAeD+VelUiV5e3tP8fPzOxoWFgalF2zq07JlS5erV6/uomm6l1gsprF6Lw6SBxklXy4SaKDJBM2e3t7ep4cMGTIyJCQkpVIDDZg85NjYt2/frNTU1I/FYjFUe6UwHBVDdrh2YlIokoCEi+5IByrUlqCwxFoMWH8FmV2r1UK1zAx3d/eLnTt3XhkQEHCJz7dR8o3Av1k+FICMnseOHWsXGRn57u3bt7trtVp3gUDgAHuLCyRwL6C2D37/n3MeJWBZ3WsFrspnRpWvVzIhIcgtUh4CNdC0AnWdJBJJ+JAhQ4L/+OOPZBujFFW3bt0u//zzz58CgaAq1wHUxsZq18MBfkFtF4DQRo0aHRk1atTYClu91dzV+uCDD+oePXp02tOnT8eBag0c9MDjHZkSNxSCgdL4cHBvaIWMlYXisB4eHhc7duz4U+/evQ9NmDDhhS3bQM2ledk+X343wrKdZ/n3Bnkv1qxZU/vQoUNBt27dGp+VldVEqVRKQIsB+widoi21h4qZMeyjCq+ZLc9VR40HOIZ6eHh8OXHixB/lcrnNmFDatm1b5ebNm/8tKCiYCtZqoBXvf2E5jsH1RxcB4qzU1a9f/4+hQ4d+9PXXX+dUSo0G19Mffp89e/ab+/fv/09iYuJkgUBQXSKRUODECZoIDLND4YhmkNKq3EgNiLGFEAqFGicnp8miku4AACAASURBVIdNmzbdMGTokLCP53z8mAcbltskfEuWpcCRI0ckx48ff+v06dNjbt26NVIoFNZSqVR63yeyfDTa+y3bO99aeVKAYRgdRVH3WrVq9f7FixfPledYyL7feust/3v37v2o0Wha0zSt11bzH8tQgKvh4gA4XcOGDb8dNWrU4uIikirVTQDAxoIFC2rv2bPno8TExA90Ol0tSE8LxCwoKHjlsIYVIsnQr5IuW3FAA9plWVYnk8lS/P39d/Xv3/+XBg0a3OX9NkpKcf49a1AAtBhr1651/euvv/reuHFjXHJysp9Op6sGl0fixqu/SeK+4QW+NVaibNtE0wqsqUwmA38zjaOj46/jxo2b9+OPP2aW7Wj+3Rv4CM2ZM2dKUlLSfymKgpxJmMOovIdWIfpHoAEuAsAL8D+6CwgEAmXbtm0/unDhwq/FXY4rFdDAlV+4cGG1v/76a9zVq1fnCASCOkKhkEHnFpI7LKF+Kw5oQL/g5Q1+GzRN57m7u1/w8fH5uWfPnmdnz579tEJwKz8Ju6YAZPY8ffq07969e6fEx8d3h4yL4FRtOHhehXMjsOBmmrTryZs7+ApmwSNlIMgpg3Po8w4dOsyaNm3aH+V9IRo1alS1Q4cO/ZSdnT2MoijwQP5XTRNzl5B//n8UwIsD1vbCaDDI5sYwzJNBgwaN2b17d2RxNKuUQAOIEhIS4rZ79+5xd+/eDX7x4kV9uLGRhdPgZ30tFNA4FEfFIr4vDmigcw30ZRDUGgcHh4cdOnTYN3DgwK+nT5+eXlT53VIMjX+Vp0CxFABfjCNHjgy6ffv2e0+fPm0P+QlAPY0ZAvHGY9DM6YU8fDDihM/GWCyJbf4B0tfGADzUbm5uu3v06DF7586dz8pzAo0aNWry4MGDfTqdrhGwHfKfJbTR5TkvW+qbjKKE/WxITql1cXG5NGHChA++/fbb28WNt9ICDSDMpk2bnHfv3h1w5cqVj9PS0vzEYrEI66KQyb2KI2JR3xcHNHDhMLkXbBBDiftcLy+vw/7+/ttat259Kjg4OL804+Df5SlgDgW2bNkiTUhIaHLgwIGPbt26NYhlBa5CIaN3tEMVKiTbQmdqvPmQmkH0TkcQYk7/hT5bWuRvkUFUrkbwoCHU6KB9Tfbx8ZkdExMTVl7UALPJxIkTxymVym8g2oTkPR5oWG5VuJcJQ6I9RZMmTTZOmDBh6cKFC4ut8FupgQYsxYYNGxzOnDkTePbs2QVpaWnN8vPzRfB3S3nMFwc0oC9QSeIHN4harQbtVIGzs3Ocn5/fur59+x5auHBhVnG2MMuxF99SZaUA7Ik//vij782bNydkZWX1pGlaCo7TQI/c3Fw9uMBwVW7tA0z3DM8iCEE6ltaxurKuh63MmyMT1a6urr8PGTJk6saNG8vlEgRpC7Zs2bJOIBC8p1arRShrLeXIbyt0L89x4HmE4ejoq6FWq7MGDRq0ZPTo0T+bkpqh0gMNWES4ve3bt6/X+fPnpz1//rwLRVFizLVR2kUuDmiQmxeQIjyP4YEQEaNQKLQymSyxbdu2e1q1avVnmzZtbo4YMaKgtOPi3+cpwKUAlHHfuXOnd3h4+JDExMTxGo3GU61WQ30SfZZFrFOCYIIEElwTCWk6sRGgwYfBloDlyZwUeOiAXFKpVPrEg02aNJk2fPjwg3K5XFOC5kv1Sps2bRpFR0dvEQgE7VUqlf4sIzUZlvCxK9UAK8DL6E4AZxN8UPPOsmzClClT3l+7dm2RqceRBDzQMFACwvb27NnTKjw8fEFycnJPhmFkGDeMTm6QMQ9SKJNxxZbkJTK9K7RLbBRwvMmrWbNmTIsWLX7p2bNnOO8oaknK821t27bNMSIi4p0zZ8589OTJky4ajaaqTqfTR5SQH25mXLJQIU/FiksBlE1kuCMk8XJ2dj7ap0+f6WFhYYllOXu5XE5v3LhxYEZGBtQ28SL5kDebWG4luBdluFDIZDK2evXqh+bNm/fhrFmzTPLR4YEGsSYbNmwQRUVFdTx27NicpKSk3izLiuG8hzTioDIGoiPCA4IDyitO0JqrLja2sIjUGYbRCIXCZE9PzyN9+vRZ17t37wcBAQFKy7EV31JlpADUKNmzZ8/Ie/fuBWdlZTVQq9Vgy9ODDGM1R0iwYbs1SSy1krxTCFISL1h4ATKYzbLq1q277NNPP/0xODhYbSmqF9fOunXrJJ988sk8jUazUKPROHIrc5srd4vrrzJ/j/5XGNEjkUhUYM6fPXv2UlO16zzQ4MSVhIaGikNDQ1udPn16UUZGRleGYRzhZgeMVqVKFUF+fr6+bgk6bXIdZbgMWVqGJ00roLI0mFXyPT09z/j6+m4fPHjwkYkTJ2ZV5o3Az71kFIBIq88++8z98OHDY6Oioj4UCAT1aJpmME6ez0lQMroa3qpwphoEGiRVaJrWqtXqq6NGjXpvx44dD0pFMTNenj17dvV169atFwqF72q1WgZzH6EmGP4vrew1YzgV/lFi7cFkljZ8+PD//P7774dMnTgPNIxQCjQbly9fbnH+/PmJiYmJw5VKZU14DGzUwLyQRRQ+xjQa1mJurAKLG0osFisdHR0TPT09twYEBOxYvnz5P8bDYPkbmamboTI9Bx77Bw8ebHHu3Ln3UlJShhcUFNQRi8V6kIE+QqTQ5gV3KbnDTrch6eeA5hPkC/hdLBaz+fn5BZ6enlO//vrr7WWVV+O9995rEhoaup2m6ZaQiBGdklH+ko6hpVy5Sv066aNj0OhD+oXrs2fPHiWXy++ZShweaBRBqS+//LLatm3bRiUmJgazLAv1HPQeMQ4ODnpfDXSMwSZMrQBr6uLgcwgyUD1I+IgAulS4ubmd79+//4+DBg062b9/fz4yxVwCV7LnIyIinLZt29YjLCzsq/z8fG+dTicUCoV6WYA8hlEl5EFjLRBdychvV9Ml15/0z4C/G/IpwIVLq9Ppzrdv337C2bNny0Sr0a5du55RUVG/UxTlBgQ1BjRQ1W9XBLexwcKaowkVaCyVSjPr1au3dvny5V+bajbRA9PynBe3Hkl5jqWwvjds2OCydu3awPj4+IVisbiRRqMRgekEPrgIeNszBjRKIpyNRapgO3AAkHkMDA6qKnd394SmTZv+2qNHj7BFixY9tEVa8mMqfwqsXLnS+dSpUz2ioqIWPX/+3E8qlYoN2R71g9MnqTP4IpHq6JLwcfnPlh9BaSlQHNCAwwc0vUql8qmLi8vSGTNmbJPL5S8FpBU/np6ek5KSktawLOuAQAPlsP5go14ebTzfln4RsPo4ZK92dHSM6dat20cHDx68aE6qhXIFGqUnQdm0AHkFdu/e3f7MmTOfabXat3U6nSOAJGBiOPRJhibD/KzJ5NAvpIAG0GM4EOBamt2oUaMT3bp1+6xFixb3Jk6cqCgbCvG92DoFgF8XL17sFh4ePiImJmY6eOozDCNEHyDw/wHgDD5I1uRbW6dTpRqfUXPO638kgQaZWh54BTWtBm2CRqfTnQ4ICJh0+PBhq2o15HK5cNWqVT8oFIrx4LBP5m5BkMHzsOU4GbWbLMuqPTw8tk+dOnWOKUm6yBHwQMPE9QC/jbNnz759/fr1EbGxseMlEkkNcEIiGRpBhjWYHDY1udExKY3BTqovCmfQdOTXqFEj0sPD40BgYOCBLl26pHTr1q3MY9xNJCv/WBlRYNq0aV7h4eH/uX///kiJROIlEoloiKRCoAxAAz4ANOBTXMI6/sZYRgtnQ91g0ia42KDWi9AmQILBF76+vqOjo6OPWHPYY8eOddy+ffthhmE6gWIZzSbY57/yZ9ipf4w1aWhq26SZXiKRPPDz8/uwX79+p+Vy+ctaAyZ+eKBhIqEMWgt63rx5NQ8ePDgyISFhokAgaEZRlF6lgbk2jCWJ4ebdIJ2qigsPxPZA8GPSFKyLAt+Bvwh8l5eXpx+D4YBQi8XidG9v7wg/P789vXv3/puPTDFjoSvQo5BvID8/3/3AgQOfxsfHDxMKhdWqVKlCA68A0AD+QxALP4OPRlG8XIFIw0/FDAoYcwTF14FfDLWhNDVr1vy5W7du88PCwnLNaN6sR/v16+caHh4eQVGUD8pHa1zuzBqUjT9s7FyCIXMTnJG/c3KmKGrWrLllwoQJ81atWpVn7nR5oGEuxf7/eblc7nD48OH20dHRi9VqdXsISIFMoqRvBW5MENy4YGTBKQNwMbl3vEHA/9AmbCxoF6vqoRMf+GygOUUmk2mrVq36pGHDhlsDAwO3zZ079xFfoM1kktv9g6Bivnr1aou7d+9+8ODBg9GQbwDs6RiajTwDQAO9y4GfSD7lBbjds4FFJoCyjQQc0DDwDsgbzBZKUdQ/7dq1e/f8+fMXzLHhmzPIHj16NIqIiDjCsqw3vmdRPq0EGhBcRwxl52ooSXrCOjo4ONzz9fWdceHChaPmrBU+ywONklBNIBBAvo2ffvqpXXR09PTc3NzeKpWqCjQFCwa+E/ABNTS5MUlzB9euWNgwjNlI8SDAPAckCiW1HgZBoJPJZKm+vr67evTo8Wvz5s1vmZKbvoRk4V+zEQoAyDh58mTDmJiYz3JycrppNJoaDMNQmHAOAAXyDZdHyRBBiwpwG6GNacMoq9OmrPoxbdZFPcW9SOGzII8Ih8FcV1fXlf3791+1detWi/uIga9R9+7d25w9ezZMrVZ7kGOqvLxq/tqSWna8aOAFljTRG1pW16lT54+hQ4d+sn79+iTzeyvnqJOSDNiW3gG1tEqlqnXkyJE+N2/enMUwjLdEItEn+AJBjl776LuBAp1U9xVnOuGqtkhNCHnLIJ1Q0VEL+wdEKhKJCmrVqnXHz8/v++7du59wd3f/p6xi3m1pzSrDWCBrYlhY2Dtnz55dxDBMe0inDwIaBElx/FYZ6MPP0bIUIKu7ikQinVKpPOfr6zvl5s2bsZbtSX/BYzZv3jzw2LFjG1mWrckDDfMpDDQjgQapzYC/w2UENZxgpods1C1btpzZu3fvfSWtacNrNMxfp3+98c0338gOHz7cKiYm5v20tLQgSLVB07QebGCpbNRmcLPrFZfCnNRoFOeAR95QoV+yT1BvMgyjq169+tO6deue6NSp0/YhQ4Zc6tatm9VsqRYgLd+EmRQAp+Xt27d3jI2N/USr1bbNycmpwr2hkHxUmO3WzG75xy1FAftRcLyascFsov9dIpGwSqUy09XVdV5aWtpmS5EF24mIiBCuXbv2/X379q2iKMrZWPu2rNmwheUlgQaaUTGCEmUF0lCj0ajc3Nz2DB8+fOb69evTSrqePNAoKeU474F2IyUlpd7x48c/evr06XCtVuuhUqlEADhImzdX/YiOd6YOg3swkBoPQKJcbQn6cuhtcWBTFQpZjUYDJZ7jWrVqdSAgIGB3s2bNbvORKaaugO0+J5fLpYcOHep0/fr1pVqtto2zs7MItGuQyRYALTe7LIJRUhtmu7Mrx5HZwulQjtMvrmvuBYiiKK2Li8vRXr16jbS0UyhUGP7888+nHDhw4AuhUOhoTH7aMtAojpZl9T1eeLGsBdAMzF+YhA00GSzL6miajm/Tps0c8M0ojc8NDzQsvLIrVqxwPXjwYNe7d++OLCgo6K1QKCChDI0oErrDcCx05ix2CEYEHQIKtLlDGyRSxc2Gzj6YxRScAQ3P6iQSSQ5kFfXz89vStWvX05MnT04tdiz8A+VOAWOJ7sAn4/jx492vX7++UKFQtBMKhTLgB1hvyGJLphXnTqA4TVm5T5gfQDlToHikhaDVIGdYmqYzq1Wr1i4tLS3BkoMH37g1a9bMuXjx4hIAGoVphHmwUTTV0YyPvjXwNCagBNoZzKyZDRs2/Oa99977Ti6Xl6qeFg80LLkLDG3BZvjjjz+anT59empmZmZfiqJqMQxDo3YDnW5gsYuzmZtyCHA9iEmTCTqdorYDbgCAYuF3OIA0Go3SyckpoXnz5qF9+vTZ3rRp02TeWbRwprDFbLYAMk6dOtXs/PnzK1UqVWfJSzSp98lAp09UkcLMjDh7Gc2kyJtVrCAcKliTXPlEJndycHCYPGbMmG0bN260WFXX6dOnSw4dOrQ4MTFxgVAoFJOh2EBaBBiVBWgUDwFfMlxhe5mMOEPttyF5nxoSsI0cOXLyL7/8cr802gx9/xWM721qOnK5vHp4eHi3uLi4CSqVqh3DMDUKCgr05bcRZOD/CA5ws6B2gpuMxthtlIwS4MQ+vwqtRTCCTEcynyEFdU69evWutWnT5lCXLl0ON23aNIE3p9gUOxkdDDjHffPNNxD99AnLst1VKqXUwcFRn8CNdAomHINfM6/Z/gz5EdoTBUDOGEx0kMBrb/v27SdHRkaW2LbPnXvXrl2l165d+6SgoGC+Wq2GtAKvIvvQBFgYyDD1ULYnehc3VhJg4LlDBiegIy/6Eho0U1B5+H6tWrVmfPDBB8fMTc5lbEw80ChupUr5PUQAXL582efKlSvvPXz4cIxCoXAD1QapyUBQQaJzEoiQSL244ZAgBhEqvkP6h+Df0AkIvtNoNBowpzRu3Ph4jx49fvHz87s8ZsyY7OL65L8vHwqAdqVHjx7uV65c+SY7O7s3TdMucHmAGwmsK95WgK8ATHJBa2W59ZXP6li7V9s8NoHnMIOoTqe76+LiMiU9PT0ClA2WoAgAjYsXLy5VKBQfMwyj12gg2KjMvkaFaSzw71wa4ZmDdbNgbcCMIhQK2ezs7Dw3N7eNvXr1+uz333+3iPzngYYluL+YNuBAmDZtWvW//vpr5D///DNRpVI1VavVUrFYrK+Xwr1tkgeCMXBQFPAgNRpcoFHYe2SokwF4qGrVqvXYzc3t74CAgM1t2rS5PWjQoJwyIBXfhRkUmDhxokd4ePjM58+ff+jg4OCsUqn0+5kMq4bMsWBCQTMKF1zwYMMMgvOPFksBOLjwdqzRaPL/v+jZ1/369fsqPDxcWezLJjwAQOPy5ctL8/PzPxaJRPqCgPAxZmKuLKY/8owgtdso70ltNnnBxQKd4CwOZwDICqFQqBKJRHu6dOnyWVhY2F0TlsSkR3igYRKZLPPQV1995RIREdH++vXr41JTU3sJBIJqFEW9Vi+F1D6Q4arkCIpC7twNRwIPUouBPyPIILOXGjQrLMMwuW5ublebNGlyoFevXr8tWrQonc8sahleKG0rU6dOrXHkyBGIcJqkVqvrgVsGhDCjcEWwAX8H4cLN+GmMF0o7Jv59ngJoOjFcoKDG0pm2bduOv3TpUokSPXEp2q9fP8m5c+cW5Ofng6lQQh6clRk0k6CKNCcZy0aNdCJ9tWiGBp2TTiQS3enQocOUpUuXnrOk6ZwHGmUsGyAO/Ndff6175cqV7qmpqYNSU1M7C4VCF6FQqM+7QTozoSMfd4hFOTxxgUZxGpHCUL8hcQuEwmplMlmGu7t7uLe3NziMnp81a9aL0joHlTHZK0h3L9Xl8+fPd963b9+4hISEeTRNe+h0OpoUshiJRIY+kwQwdvurIATip1EOFDB2uTFcXFitVgs5NUalpqYet4T5JCgoSHzo0KHZOp1umUajeZmC2eAEWtkcQQtbavLySAYeIAAhwRmYSwwBA1qdTnfP09Nz9fjx47eUNDFXYWPigUY5bEzo0lANtu6ZM2emPHv2bJhCofCQSqVCUF+BKguc+UgHUe4NlIve/wcowBRKGS31XZiPBkkCro8HfieVSpUUTf3TuFHj3YGBgTuaN29+m49OKXvmgYimL774YvCdO3eWCAQCH5ZlaRgFaDNAaIAqmbTLknxiTMX6GgCxxElQ9iTheyxnCnAPMPTTAFmiVCrVIpFoa/fu3eeGh4eX2t7ftWtXiLCaLBQKv8CEXWhqJnm9sms3MFSV1GSS4atIH9B4gteuQqFI8fT0/Hzw4MF/fPvtt6UKZTXGjjzQKMdNCr4b8+fPr3X27NmAGzdufKxSqRrIZDKRRqPRhybCzRRAByJ2LtjA3/EAIbUT5mw00mmQVLUh2oV+4Of8/HxWKBRmenp6nvX3998yYMCAv8aNG2d2Jb9yJLnddz148GC/o0ePfq1QKLrIZDIxAFL8kBoMrqaqOJBh94ThJ1BuFOBqNFCewN//X/PA6nS6G61atZpw6dKlm6XVhEJixDVr1gzPzc39jmEYVwQZ+D+vrXvpr4LOngZthZ43SIdQBB1wMWEYRuHq6vrboEGDFv/0009WyaXEA41y257/6xi0G8ePH3/7xIkTE1+8eDGQoig3kUgk0mq1+vUpNmzLwFhcQGLsd1OmSzoPYd+gaQGmNCTIUTs7Oz9u0aLFxrZt2+739vZ+EBwcbLFYeVPGaJfPlCJQAEDpuHHjPP7888+vc3NzB8pkMn1CLlgP1GKQKlEyLXRhtKosznJ2ySt2PGjS38swjcx69eotGzRo0Mb169eX2inU29u75ePHj/ewLPsmtA98z43iK6nss2myF5G4kTtuBBqFXVLhEguXR4VCoaxSpQpEGc7fs2fPHWvNnwca1qKsme1igbbIyMg+165dG5mXl9dBIBA4Y3Eb3LwYzoUMRB4WGBON6NWUzVbYDYA0oSD6xU1tMOnoKIp66uTkdL1+/frbu3fvfiokJCSttDcWM8lWaR4fN25cnWPHjo3PyMiYxzCMC2i9SABKepubo82qNATkJ2pVChiTI4RJReXo6LjH39//48jIyKelHUjHjh3rnTt37gRFUQ1JvscxkFrZyrIXjGksEWzAmUEkUtP/DB+GYVQURZ3p2LHj0uDg4MvWLLLJA43Scr2F34csj/Hx8fWioqL6379//z80TTfQ6XQOlIGTMJU4MguZ/REeMbd2SmHDJ8EFqeEgVZQAKuAfTdNZrq6ul3x9fb/v1KnT2QULFmTzgMNyjCGXyx127do1JzExMVilUrlTFEUDqIQbCfryVBaBajmq8i1ZkwIoMwx+Q2A+SfHx8Rlz69atk6Xtt2fPni4nTpw4SdO0v8E881qTlRl0k2Z0pA3pQ2MAHLAeeVWqVDnVsmXLJV26dImxRFKuotaVBxql5XorvS+Xy50OHz7c7uHDh0NycnJGKhSKapDCHDUYiNpR48FF84VFHJgyXNLGR4IM8l3czIbU5uCBqqJp+q6np+fejh077hg5cmSiJcOjTBl3RXwGzGrbtm3refHixXUCgcCLYRgGC6TBfMmcGRVx/vyc7I8CKDPIQ0+j0Sg8PT3lEyZMWF3aiIagoCBZWFjYXrFY3AcEIl62uJSqCKZBUlNhioYankFNBgINbpSJWq3WOjo6HvXz81s5c+bM89bUZOCa8EDDhvcxpJeOjIysffny5ZExMTEj8/PzG0MhIYZh9BVhyYJCCDiwiBqaUUp600XTCblZSQZGtT34AiBDKxQKHeTecHV1PePv77/xnXfeObNw4cIXNkximx4a+GUMHTq0yYkTJ1bl5OT0EYvFUDBHb4+G/0nfDIMweRlyxH/skAKlcOAp/WwtzjdkEkCQEQKBQO3i4nKqa9euUNE1ozRDhsiTyMjItTRNT6JpWlgY0ChNH7bybmGm7VcHOPW/7c41I8Ea4EXE4Nivr9wtk8lut2nTZnq3bt0uyeVyVVnMlRdKBiqbu83Nfb40ixkSEuK4b9++5gkJCSMyMzP7qNVqcIJyxMp7GAbL9TAmw2OLAhxF2VcRRcP7aE5B8IF/I0OoDClt1RKJ5KGHh8fvAwYM2BwYGPiU126YzwELFixw+fXXX2elpKTMFIvF1Qw1afQ2Vlh7WAcojAfrQOZgMb8n/g2eApalAF5KgDeRX/Pz85/WrVv33cePH58trWm1Ro0aU9PT00NEIpEMc0Xgbd7Um79lZ1w+rRnTeJAaabyMOjo6Qgi8gmXZqJYtW67++OOPD5WFJoPXaJQPX5S4V3AWFQgEVS5dugSZRf+Tmpo6QKfTibEiLOn4gxvOWB4OY5uwMNTM/TtpRkGNBvwNBAn3hs2yLDiLvvDw8Dj09ttv7+3Tp0/ktGnT0ktMgEr2IiR2m/F/7V0HeFTF2t5zzrb0kFBCQJAOYkAuvScU6QQjRBBEBekSDFLFsiooiBcQFAVREKWF/wIXkSYQQu89oRpCEloKpG3fs+f3W/bjzt27YVN2N1tmH31CsufMfPPOnDPvfDUu7uXk5OSvGIZpAvVxUIOBmMNJEcKf0eu+rNorL4OWDteOCBT37kCNBr5vfHx8REqlUhMYGLggJiZm/po1azTlEaNu3bp9U1NTf2VZNsRa9svytO3q95Lkwto73tJ0ZSYbvFQqPdmoUaNP3n777aNTp079T1y8EwZMNRpOANmeXQDhyM3NDT1+/PhrN2/efF2tVr8EdVPAnAKnXKxrgYvNVhKbZzlO2VLbkeNCLQf8hA0QNkUzGQGHUW3dunV3R0ZGfturV6+TsbGxRfbExNPaMtfGafDzzz+vVqvV7SQSiYlkoHnMUkWKpM/TcKDjsQ8CztS+osSkMzlo2yAxFGQZlslku1q3bh1/8ODBW+UZXWRk5IuHDh36TSQSRUDSOmvaW0/w0bB8x5JaGxgfWVTO2rUsywp6vb4wNDT096ZNm85LSkq6Vl5tUlnmjRKNsqDmAvcsWrQIStC3OnPmzNtarbYbwzAhYqiIo9OZIhFwQeLmRIpcPPn4zyupOHOKpUYEs1GSefOxL1LLIpfLiyAUtkaNGut69+69ccGCBdR3o5h1pFAoArdu3Trm4sWLH4hEohDEmHTwLY+zrwssXyqCByOAzz2sUfQVQx8io9GYFhISEp+bm/vv8kAwbNiwyhs2bFjKcVysIAgctkWSbk96Riy1FPh+Rp88a+N/koJJ0AYEBOzs0KHDZ+3bt3d4dElxc0qJRnlWewXfC9qNjIyM5y5evNj7+vXrbyiVyqYikchfJpOZAqWBcGAYLKrXSdsp6Y1c7AJhrKczJ8lEcSQGyY75ZAGLHpxFH9auXfu3mJiYdf369Uuhvhv/O0kAwwAAIABJREFUjTxoMwYOHBi1b9++RWq1OgJMJkgMqWmkgh842n2JECBNrPgOwEqhkCDq74SEy0eNGjVz5cqVZU7yp1AopAqFYubf0W4fSKVSOWhyrb3PnqXVcCeNBxILywMd/I7vdMwiDdojvV5vEAQhrVq1atu7du26fOPGjakVocl4uk+UaOXQi1wagdWrV8v37t1b7/z58wNSU1OjdTpdK47jxGSGPtykyIeRTPBV1gFac0ay0ZYgl8vznn/++ZMRERE/RUdH7x0xYkS5ayCUVX5Xuw8q/P70008Lbt++/bpYLA7Al4elJsnV5KbyUATIw4fliRuJBmyAPM9fHDVq1Ms//fRTmaNP4JC1cuXKATk5OUuMRuPzliHfIIsnaDRAmwkfaw6vSDrQ4RN95cDpUyqVnqtXr97CXr16HXRE7ZLSrnaq0SgtYi56PZyEP/3004A///yz+ZkzZxRarbaVv7+/v0qlguQbT1kviE86D5b3lGxJNCw3RLTVknk/eJ6HJF96uVx+s1WrVj9FRUVt/eSTT9K9vQQ9OIAuWrSo2549e1bzPB8mFotZMIXhp7xz5aJLl4rlYQhYcxrHTRFO1QaDIb9Vq1a9/k5KeLo8p+zIyMjnT5069aNKpeoOYd1kSK2nEA3LpYE4khF/gDf83VxXRiWRSA43bdr06+jo6KTy5iyBfaU8c0Q1Gh72cJPDGTZsWOPDhw/H3r17dzDHcQ1YlpXBgiGZb3Es2damZo1YWIPSmsMiXEfaGlmWhciUwlq1ah1o3779sv79+5/2ZkfRL774osqPP/74MWQAlUqlEiAZpXHItd+Srgj3QftJT1uqWARIomHeALEUOfps8MHBwYr33ntvkUKhUJVV2vj4eJ9Vq1Z9VFhYOBXecaS/AuaQKGvbFXmftagSJBOAJziGoxMovGfNaQ54nuezgoKCdrZp02ZBx44d/3J0ts/SYOQ1Gg1venUCqZg9e3bwuXPnOl64cOE1tVrdTavVVgOnKbRLkrkvkACQC6e403NJiYYlYUE7IqYwhwcGHxpBEJSVKlW61KRJk1+7dOmy8csvv8yzB4suzYPgCtcOGTKk086dO79WKpWtpVKpKdLEUkPkCnI6WwZvenadja0j+iOJBmm+xURz4KwlCMKOmJiYiVu2bMksqwzwnmvQoEHb27dvJ4hEohpGo9GkvSVP+2Vt2173leagYO3divihhoYkUESJd3hRXA8PD1/Vvn37fzVt2vS+K5EM0/5iL0A9oZ1nqYnspUJyJk4gc2xsbKWUlJRuN2/efMtgMLSUSCSVDQaDGGuilJY4lFZ+sBti/gdzMi+T6QadmNBLHNR+IpGooHr16jteeumlrT169EiMj48HwmEsbZ/ueH1CQoJ07ty5s2/evPm+0WgMwPkhs7+647iozBWBQMVSM5JoILmAv8GaJkK077Ru3Xpyv379/ijPpjhkyBAo1fCFSqUaIxKJ5PCOgWcGZbAWYWepMXDkDNnqy9b7l5SfNA1xHCf4+flpNRrNdbFYvLN+/fo/xsTEZJTXVOIoLCjRcBSyLtSuQqGQHzlypMGtW7eiHj169FZBQUFj80PJmDJKOpBxwoNkWU0R/kaSDoyM0ev1glgs1sjl8nt169b9Iyoqav2gQYPOekNkyuuvv1533759G/Ly8sCR16TNoCSjJA9RxW6qJZHQ266xJBqkuZQ44ORXrlz540mTJi0vz+YIh6l69ep1TE9PX2IwGP4B+YSQ0KB241na2ZJE3pVn/mw5y9siGqRGhHiXguPE46CgoKTKlSuvjoiIOLZ161aXToZIiUZ5VpEb3Wt2FvU5cOBAu+Tk5FGPHj16WRCEUMgsCt9ZG4qth6S4zKNkW/iQk9VmoV2wK4IPAsbao1e1r68vaEAgyYyqZs2a5yIiIr4cPHjwkdGjRxe6EdylEvXMmTOSMWPGDP3rr78WFRQUVEZ7LCUapYLRAy72DNJEEg2cFHgPgBYT17RMJtMajcb1/fr1m7pt27a88kxeZGSkPCUlZXBWVtY/WZYNBRMx9kWaHki/MezPlYkGmpuJ8gJGlmWLxGJxckhIyLqqVavubNSoUfrmzZv58uDnjHsp0XAGyi7UBxRq2759e9XTp08Pun79+lCxWAyZ9QJFIhGHpw2w/UFYJZABeGDh3xg9AidtIib+qSoUhmh5csATxbOGT16DpAPVrDzPG4OCgi60bNnyx/79+/8eHx9/zxN9N/bs2eM3YcKEeampqWOhdgO8/PBU5ugXoQstTSqKlyBgPsDA5pjSp0+fwTt37rxR3qED2Th//nx8YWHhBKlUWlOr1ZqiUORyuelAQ4by4zuM1HxA/5bmZHs8e3hYI99zlhof9Ckhi6Ch1tfs9AlYqTmOuxkaGrqlQYMGm7p163bHWQXRyjs3cD8lGvZA0Q3bWLRokc/JkycbHj58uGdWVtZrRqMR6mn48jwPGg7TiCCVOJniFrUOULcAHtyioiKHEQ0iBNcgl8sz69ev/2fXrl1XdunSJTk2NtapefodPb3r16+vPGPGjB8zMzMHghMoYE56lTu6f9o+RcBZCBBaUnjJ5LVv337QsWPHDtmj/+7du4cmJia+bjQap8hksjoMw7DorwGHJjgwwbsN3i1wmELHdDwkIdFALYi9UvujZgJNH2S7+B3KBbIQxStN5Rt0Ol26TCb7o3Hjxhs7duyYsnz5crcr4UCJhj1WuBu3Af4bu3btapqcnDxCpVK9JghCFYlEYsosCswfK8SiOh+ZP6rzSKZeojwPz9AOkw8kPozI/gVB4KtUqZLcqVOn1b179147evRoj3AUBbPVnDlzmv/www+rHz9+/BKQOyx7XRKNkBsvPSq6FyJgYY7VNWzYcOawYcPAT8Mu5cr79OkjO3ny5ICCgoJPDAZDY8iSDAQDnivsG34HokFEvT3NLWQ6fZvzDsG/y6vVgH5RQ0m+HzHqDrUtuBTgfQt5hvR6vZZl2ftGo/FQnTp1ljdu3Pjirl27tO66ZCjRcNeZs6PcYE45dOhQtePHjw9KTk4eqtFoWnAc528Zi47JYjDsEjdFPBE8m2iUzP5MvoigPXM6XXzgDQEBAXerVq26KSoqal3NmjWvlMdj3Y4QlrkpKAg1cODAAQcOHFimVqufQxWvvU5TZRbMWTeWbFk4SxrajxMQIA4UvL+//xrw01i3bp3dsgMPGTLE58yZMz3S0tI+FAShJThswHNFJr8DrSyZpwa1G+h3hu+h8hINdHon/dnINlF7QZhxdAaDoUAmkx2qVavW+qpVqx7v2bPnA3d/z1Gi4YQHy126gBDLDRs2PH/69OnhDx8+fFWv19cHC4qfn59pnSiVStNQMMyKTJBjj43Rmj0TXhD4MJpPIIJOp1PVqFHjVMuWLZf06NHjYFxcnN1eUs6eK3AEHTdu3DvJyclzdTpdCEnuSqQhcrbAtD+KQCkQIKMm8Db0xTK/Rw5GRka+vXv37rRSNGvzUkhR/vvvv9dJTU2dUlhY2FMkEtURi8USiOiC9xhqLUj5UINoLSTWZofFXED6hpAVbZF4GAwGyJLMQ/EzlmUfymSyfb6+vttr16598uzZsxBJ8sSO7eYfSjTcfALtLT6o8ufPnx+8f//+DpcvXx6anZ3dSyQSVRKJRGJ8ADEWHmPkS6bRsC0pPohErL3JjACRKPASQE0KtGQ0GiGr6MWXXnppaffu3f89f/78x7Z7cL0rdu7cKXv//fen/PXXX3MMBgM45Zo+5T1Jud5IqUTeiIA1ooGOjuasoSnt2rWbkJSUdNgRjt5jx44NOnHiRPubN2+O1Wg0nWQyWbBGo5GQlWVhXizNJfZ6/symEJNviIWWBN5fUGBOxTDMLYZhDoD2IiIi4mhgYGC+O0SSlGY9U6JRGrS86Fowp6SkpFTbsWNH69TU1L6PHj3qxXFcOMMwYoPBYPLoBrUg+mrYQ6MBLx5oE08W0DZpOoGHFr4DG6vZWVIvFovTw8PDt7dq1WpNdHT0XyNHjnyidnGTDxCN+Pj4aWlpaTMNBkMAkjfqDOomE0jFtImANbKBmkq9Xv/whRde+OC7775b66h8OaDdOH/+fI29e/d2UqvVUKzwJV9f36oFBQVAOEzO72jOQZKP2lp7aBXNxApibgWe5/VQ64VhmPtyufy8wWDYExoaejE8PPzOgAEDNO5uIiluMVCiYfMx8e4LgHDs2LEj+OTJkwPv37//ekFBQVsoRS+VSk0PKGnbLMtDSTo8kkQD2sWKjEhisD8Mr4XfIecGwzBFwcHBV5s3b/5b//7917lTRlEgGjNmzJh28+ZNE9EAggGECrQ3nlB90rufHjp6RMCSbKAGwWg0quvUqfNFfHz8wri4OIc6OwLh+Pe//x2anJwcaTAY+gqC0OnvkvVVBUHwhQMURptYc3Qv40xC3gu90WiEw08RwzB35HL52dDQ0NO1a9c+26hRo3u1atVSeiq5IDGjRKOMK8jbblu4cKHfoUOHXjhz5syo+/fvDxSJRFXFYjEH2g3Y+GHTJ0NhUR2Jf4PfLRPmFEtMCAdBdEAlzQnwN9iMoV+NRoNkh5dIJBkNGjTYEBkZubZy5co33OEBBqIxderU+Dt37nygVqsDYJwknt62ztxyvNShtdhps6bNsLhYX6tWrZ8mTJjwwezZs51i/hwyZAhXVFQUcvHixeb37t1ry3FcT57nG4hEokCGYWRoJjYT/adVYclwWByD+RrwszD9yVxKgReLxQUcx6U3adLkRHBw8LGqVaveDQsLywwJCXkoEolU5cmG6o7PCCUa7jhrFShzfHx8yOHDhzunpqa+lp+f39VoNFZjGYYzmnNvYKw4ikiaV8jTjTXHK2vDsoxCQQKDycTU6icpNcCLHF4Eer1eWaVKld979OjxzTvvvHPGUepYe00BOOB++OGHk1JTUyEcLwhVuGRcvb36ou04EQFKPmyCjSYFqVR6qnv37mO3b99+yeZNdr4gMjJSXFhYGFxYWFgjJyenjVKpbKnT6WoKghAmEomCRSIRPJM+4BSPGZThoANV4YxGI4TkQvVZeAmpOI7L8ff3f1CtWrWM8PDwU6GhoWfbtWt3b/r06W5lzrUzxKbmKNFwBKoe3iZsjr///nvYoUOH+j948GCoVqttCXs9rCd0fgKG7+fnZ1L/QxgZJstBzQZqM8piboE20MYLPhyQOAxeWuaMpvAOUNasWXNfhw4dvuvVq9dJV05fnpiYKI6Lixt9+fLlL1iWDUGiVlIi5uFLjQ7PQxEgIsygvlFmvXr1xl+9enVnRQ0XSMS4cePEqampvkql0l+tVlcpKiqqqlarw/V6fWX4n2VZH7FYzIATJ5ALhmFygoODs6RS6WOWZQskEklujRo1cps3b67u2rWrztUPOc7EmhINZ6LtYX1Bsq8DBw48l5GREXvv3r2eWq22tUwmMxEOjAvHaorgb4Ge3GgOKc+pHUNs4YWFvhyQ1wPa1Gg04HhlqFq1alq9evUOtGjR4vuYmJhkV3zwwW585MiRQUlJSUsEQXgOTVDWNEEetnzocLwUAUstpa+vb16VKlXmLly4cElsbKxL1e2A5xOm6e/wc7Gfn5/p30ql0ti0aVOoKm385JNPwEfMI0JQHbkcKdFwJLpe0rZCoQg8cODAi+fOnZtUVFTUl2XZQIhXx1LwmBsC/CngQ5Y7Jp1Bi4PLmiOZSR1nrgwLP0GTQmpJgHywLGtyFK1Tp87e1q1bL2vfvv0JRzuclXbK4SQ1ceLEtuvXr/9RqVS+iKnXYTyY8r20bdLrKQKujIAl0RCLxWp/f/91H3/8cdzUqVM9qryAK8+DM2WjRMOZaHtwX8D8k5OT654+fXrw/fv3X9Pr9Q05jpPL5XIWXiyg4QCiYekcWgJnsWJRw3h8rAgJRAO0GphaGLQCUqlUUCqVWp7nbzZp0mTpoEGDtn7xxRePXOkUMn/+/FrLli1be//+/a5InlATVFbTkgcvNTo0D0AAn3vzIQQyhB6ZNGlS9IIFC/I9YHh0CBYI2J9oUCcor15kUKzNHJ3yWmZmZneJRNLEYDDILUvRk6l3EbDSbKqWBMUyFBR+DwoKekpuIPsey7J3QkJCtnTs2PGX8ePHX3MVU8q6desqzZo1a01GRsYACBsmiVOJMKHPnFc/c+46eCLEVVSpUqXrPXr0eHnz5s3p7jqeCpfbhd8D9icaFY42FaCiEQDtxsOHD4POnj37IpQ+VyqVL2u12srgSAUWD6w5gH4IzyIazzKbwH24EWOqX8uspZjky9ynIJVK8+Ry+aFOnTotGTly5LHY2Fi7FHMqD+YJCQn+U6dO/SYzM/NNHx8fDmQtdcIuF37JlAcbeq97I2BLY4nfy2Syew0aNBh26dIlh2QIdW8U3V96SjTcfw5degQjR46scfjw4d6ZmZnDjUZjK0EQoFibyVkUSQKaCci6APg3a4MjX14Yv25JVsicHejDAddA9AsUpq1cuXLyc889tzI6OnrzJ598kluRppTk5GTp66+//nZycvKXDMNUwlTrNGGXSy9tKpydEDD7IxUEBwd/MGXKlBXelmPCTjC6dDOUaLj09Li/cGAy+fTTT32SkpJa3LhxY/iDBw8G8DxfjWEYCRAA9KeAkZKOoeZYdRMAlunNUeVqDR3LsFlsExa62JzC3KzdMHAcd7969eo/Dxky5MfFixffrSi0AaN+/fq1PHny5Ma8vLy6oPkBIoYmlIqSi/ZLEXA0AmhCNRgMuqCgoCVLliz55O23337iNU4/HoMAJRoeM5WuPRAz4aj0f//3f+2vXbs2zmAwtGBZthrs/0/qozFPiQY6RCL5QLJBeqvbGi1pUsGwWtCSwIsNNnDYyIHDiMXirIiIiM3du3df5O/vf8fR2UQBB2vak/feey94y5Yt36anp7/q5+cnBxnN2hdbQ6XfUwTcFgHCT4OXSqXrJ06cGLdkyZI81x4QtVOWdn4o0SgtYvT6ciEAtVN+//33WufPn+90/fr1UQaDoZVIJPLz9fVlIMsnkAIgBJZFjbDaInROnvaLIx+kEyXpdPYkR51gIhxm8wwUgn1crVq1f3fp0mV5jx49Lo0bN05frkGW4Wbwa9m8efPo5OTkeTKZrDIoeCjRKAOQ9Ba3QeCptpExbUOQl2LP4MGDx1OHULeZwhILSolGiaGiF9oLATjVr1y5Urxt2zYwF4wuLCwcwHEcZN9jeZ43ZRfFJFzog4FmFpABfBgsc0xYxuY/S1ayDD2Ew+p0OlAzKIOCgo63bNlyaUxMzMFJkyYV2Wu8JW2nZ8+eL508efKrgoKC7mKxmMWcGiW9n17nwQh42CGaDG81ay4h6dXprl27jtm/f7/TU5F78MpxiaFRouES0+CdQsApPi0treqpU6cG37x583W9Xt+M4ziopPg0syimNDe/jJ4Wb0NzSEmQwwRhqCVB0wyp9TD3o/f397/SqlWrZTExMdvffffd3JK0b69rpk2b5rdr1653k5OTPxaJRL7UGdReyNJ2XAkB8lBARJ6BGfNGp06dxh44cOCQK8lLZSk/ApRolB9D2kI5EViwYEHAgQMHWt24cWNYbm5ub5VKFSaG0rAcx4D2AkwlQBLIMs7l7NJ0O7zwMGsp1k7R6/V6mUx2rUGDBj926NBh7cqVK52WQAg0PQMGDGixd+/e9QaDoSH4rthjnLQNioArIUASDYtw9Mw2bdpMPHHixO+uJC+VpfwI0BdZ+TGkLdgJAUhlvnv37o4pKSlv6XS6Hnq9PohlWQ5zSmCNFCAfJUpkZU53Tmo/kKyQkSzwN6j+im3yPG/U6/W5wcHB/+7Xr98vo0aNOuGs5F5DhgyR7tu3T6FUKqfodDpfO0H7n2Y8TAVvd3xogw5HAImGRXZQeP7yIiIiZly+fPlHhwtBO3AqApRoOBVu2pktBFasWCHZu3dvvQsXLozKyMjoLxKJ6hkMBilZkI0sxkbm2yhrITIgGlh2HuQDYsPzPJSBVvr6+h578803Zw8ePPiSs8hG7z59uu3etWslwzB1zVEqTzUwJA7w75ISLlu40+8pAs5EgCQb8OyZHZ8LQ0JCvo6Li5vr6OgvZ46V9kXLxNM14IIIwOY6e/bs4KSkpLYXLlyYwPN8V5lM5s8wLFdQ8MSSgZoJ3HjJHBzwPWg/cCO2dYiHa1FbgveY/TqgCqwuMDDw8Msvv7x42LBh+/v27WvK+OXIz8yZM4MSEhLez8jIiDMYDEHWHF0tx+tIeWjbFAF7I0BqMzDkXBAEta+v7/rRo0dPWrZsmcOfM3uPyfHt2XqTOV6CsvZANRplRY7e53AEQLtx9OjRJsePH4/NzMzsI5VKG2s0Gh+tVmvKu4GneTgRwYdMcFXSkz6SDHS8NOfXMBEP0JDAR6VSGYKDg4+0atVqft++fQ85usIkEK0RI0a8uG7dupUikagtuJOQYJNjp4TD4cvQ8R249P7hGOEszSfmdawTBGH/iBEjhvz6669KxwNPe3AWApRoOAtp2k+ZEBAEgZ09e3bQkSNHmmdkZLyem5vbvaio6HlQalhrkAxdLckmjJkJWY6F9BpPtSD4dyAcEolE0Gg0Op7nzzdo0OCnXr16/bF48eIHjkxbvnTpUtnSpUtHpKenf2wwGJ4zZfkSBBO5wjHi+Cwzp5YJaHoTRcCJCFjmv4Ewc57neYPBcGHs2LHdnemE7cRhe21XlGh47dS738DHjx9f9ejRoz1TU1OnaTSaRoIgyOG0j3k3UBuBI8MN+VkjtayJAteSacyBaMBL0ez/IQiCkNWoUaMNgwcPXqxQKDIZhoFEQw75xMfHh2zYsGFmTk7OeJFIFIhaFxwXpm8nfVYcIghtlCJgZwRIjQb6SBkMBoHn+VvDhw/v9Ouvv2bZuUvaXAUiQIlGBYJPuy49AgqFQn7p0qWXz5w5Mzo9Pb0H5JuQy+UmMoCZNNE/A6NVntULme7cljRmU4qJbDRt2nRpt27dVi9ZsuS+rfvK+j3kGUlKSup8+vTpb4qKiprDqQ9IhUkOQSQCLQyMGf1KSmouKqs89L4SIuAYa0MJO3ePyyxDXDHM3Gg03uvUqVPnI0eOpLrHSDxFSscuWko0PGWdeNE4II358ePHww4dOvTajRs3XlMqlRFGo9EHIIBNGIkGhMHaqo9Cmlos05YjpLDBI4kB7Yler4dMog/q16//fx07dlzet2/fm7GxsabiKeX9WNZCWbRokc+qVasmXr9+fR7DMBB9wyCxAnmhQBxqNCjRKC/6Hnq/Y/eQMoFGPpdI9s0aO2X9+vVfHTFixJ808qRM0LrkTZRouOS0UKFKgsDSpUsD9+/f3+bcuXMQCtuX47gAiUTCwuaLCb5sbb7wPdZCgT4tM46iHwTWWgHyYq6TYtTpdPlhYWHbWrRo8VOfPn3OxMXFOcRT/u/qsjX27dv3k0qlitRqtTIkGuj8iqnKbY21JJjSaygCzkCAjDqBf4P2EQi9wWBQV65cOS46OvqXlStXOr3mkDPG7o19UKLhjbPuQWMG80JmZmb40aNHB//111+v6fX6loGBgWKlUslgvRR4iWEacvg3RpqYy8U/1Xrgy8/SuZJMYQ7fYRZR8M80GAwaPz+/5BYtWiwePnz4tnHjxqnsDS9oOXr16hW1d+/euT4+Pq0FQRAD4cGU6mRuDUs/FXvLQttzPgIuqJAoNQjWHLMxMy/p5MzzvK5atWqf9+nT5+s1a9bQcvGlRto1b6BEwzXnhUpVSgQUCoX/wYMH2yUnJ0/U6XSd1Gp1KESskOYTJBK4MaNzpTXzijUzCv4NI1JARHM+D6O/v39Ks2bN5sXExOyMi4srKKX4Ni83R6EMvHXr1j9FIlENX19fU9E11MKQ2VLBvAOykuG+NjugF1AEHIhAcUSDfM7MZkxj9erVFw0aNOjT5cuXO72woQMh8OqmKdHw6un3rMErFApxZmZmgxMnTsTeunVrpEajeV4sFkNUiqnkOmzMsAnDTzj5k1lFS4oEnsLgetLsYjQaQc0LZGNl7969N8yfP/9xSdss6XUTJ07037Zt26R79+5Nk0qloSzLMqCVAQ0L1oNB8kNGzpS0fXodRcBZCJCmE9TMoaYwJCRkxWuvvTZryZIleaWXxxP0P6UftavfQYmGq88Qla/UCMyYMSNg37590deuXRunVqubSSSSQHNa8ac5KMiw1pL4NiDBQDMK3INmCvgOaqVotVojx3FZ1apVW9W1a9dff/nll5v2zrXx9ttvV9m2bdu0x48fj/P39w9Sq9UmfFAWsuIr+e9Sg+jRN9DNqKKnF/2iyKgvJB9yuXxL7969392yZYvDIroqevze1n+5iAZ9XL1tubjPeFesWOG7Z8+eZgcOHBidn58/QhAEGWg2UJtB+l3gqCwJh2UGTstU5agVAa2CTCZDcwXUSMmtUaPGrkGDBn307bffptuTbIC/Rtu2bZ8/f/78nL81KLEikSiA1GaYXtYC/PfEybW4sbnPTFJJPREBJO74jJHPGs/zh6KiosYmJiZe98Sxe+OYykU0vBEwOmb3QmDYsGHVjh07NvrOnTsjRCJRQ4ZhOHToLE6TYfl3/B2JBmoz4CfG/yMqYI6BRBuQET08PHxzu3btFk6cOPGKvQuydezYMfzcuXPxarX6TZFIVJnjONOzTKZQR8dXdLYriebGqbNLTypOhduVOkOijzWLsCAi/FSr1Ve6dOky9uDBgyfsSdJdafzeJgslGt424144XoVCUfXPP//see3atckFBQUv8jzvC/koAAospmYJC0kuUGOA6l7cuMnQV7gffUDg5WmOCsmrVq3ajm7dui1s1KjRlbLlBSh+Nx4yZEitc+fOjXzw4MEknU5XRSKRcGBKAfnMhOe/TEW02qsXLn4XHTI6VMOzhesV/g2aQY1Gc7tLly7jk5KS/qREw0UnsJRiUaJRSsDo5e6JQGJionjhwoUtL168GFtQUND4U1s6AAAgAElEQVRfr9fXNRqNHM/zpgJt8LEMb4UXoDm236QpsNQIkDVH0KENT2hAYECzodfrC8PCwnaBZqNbt25X7J1r47333gvetWvXuBs3bkzy8fEJhzGBKQecXtH+DXIjybDME+Kes0mldhcEyGeKlBmJBq5LeF4gSgqIhlarfRAVFfXugQMHtlCi4S4z/Ww5KdHwjHmkoyghArAx79ix4+X09PTREomkncFgCMR8GqgFwKbgJYhZRk0bNBQ1e0Y/mNQLCYgRkoE9MWcopVLp4R49eiwYOXLkYXtlEUVRoCbK1q1bYzMyMqYzDGMqOAcveCBJGo3maYQNyIVjhXups2gJFw29zO4IoOkENYG4HmHdGgyGR5GRkVMSExPXO7KWkN0HRRssFgFKNOjicCoClim2ndq5ubPVq1fLt23b9o8jR46Me/z48QCGYYLBx8EykgR9HEpjcsAQPegK25NKpaDZ0FatWnVv9+7dP4yOjr4eGxurs+fYIdJmw4YNwzMzMyf7+vrWl0gkEpVKxYA8GNqL/QEBgTHRPBv2nIFntEV9Uf4HHMskeKjhMD8z+V26dHk/KSlpNSUaTlqjDu6GEg0HA0ybd00EIKPotWvXoF7K2KysrKEGg6Eey7JieOHhBmzpk2FrJKQnPRIN+AmaErPPhiYkJORI48aNVwwePPiPqVOnPolNtdNn8uTJst27d3e5devWDEEQOslkMqlOp2NRw4IaDHuYT4pTidtpKLQZawi4LGEpvWCWzxZWSTabKJVRUVEzJkyYsMLe2j+6sCoGAUo0KgZ32quLIKBQKConJSV1OXPmzNSioqLWHMdJQOuC0RtoTrFMS07m4SBJBb5A8W/oTW9OqgWhr1qWZW82b978s+jo6B0KhcKuaZZXrFghWbt2bafLly/HFxQUdJPL5X4gE5hQSB8TTPLlItNAxfAyBPA5wagt9G0yk2Blly5dZk+aNGk5JRqesTAo0fCMeXTZUbiCqcQWOCDjiBEjXjx69OjozMzMISzLhonFYlNxNowsQS1ASTJuWqY0h99hYwetBjqJSiSSlDp16iwbOnToBoVCYdeU5aCtuXTpUviBAwdi8/LyRkkkknoikUgGjq/odwJykP4atjCi3zsNAXAD8vj3Mj4j4LQMGkTUtpkJvTYiImLuu+++u2DcuHG0sJrTlp7jOvL4Be046GjLnoQA1EWZMmVKzZ07d466devWGJFIVF0mk5kKs5F5KCxJBKklILMdkic00GqYndyeRrbo9XrIIno7IiLi80GDBm2yt2YD5mbAgAG+ycnJUbdv335HEITeLMvKIMQGfU7IJEmlmUuaCKw0aNFri0MACThWWiZq9xiqVav2w8svvzzr119/VVIE3R8BSjTcfw7pCOyEAGg23nvvvaq7du16NS0tbaxOp3sRNBuQc4M0nViSDeie/JtlMiIkI3h6A+dMIB8cxxm1Wu31tm3bfhYTE/PHzJkzC+00lKfNJCQkcN9++22tK1euTMjPzx/M83xNsVgsNhgMDJp1ntUnyG5NQ4P32MPfw95jpu2ZViS4I7s8FLi2nqxFKBJoCsU2+Pn5rW/duvWUgwcPlqHeicsP2+sEpETD66acDtgWAgsXLvTbsWNHt1OnTn1iNBqbGo1GubU8GqgRsJZxE7UbQC7ARAHXQI4A+IAJBUNPWZblOY5Lad269VdDhw7dbO88GzjWsWPHBp06darjhQsXRnIcF8nzPBRlE5c0WyhJNsh/07L0tlZT+b53D7pQzjEyzFOHaXM4ucHf339j8+bN444cOWIqTugOJtjyoeDZd1Oi4dnzS0dXRgSgLPuePXsijxw58rZKpeolFouD9Hq9yZRi9rN4ShagC7LYGp7yS2KaMDtlGqVS6bWOHTt+MGDAgL32jkZBCKC6bXJycrXDhw93zM7OHsCybAepVFpNp9P5mu3kpuRlZOZTTESG5ILM6Aj3WP6dTA6GUTioFYG20EcEZCJJimUUC5qbMCsrGf6IZinC5+V/kqmZN6cyzj69zVkIoPkE5hnJOc/zOl9f33Vt2rSZSjUazpoJx/ZDiYZj8aWtuzECYHbYuHFj9WPHjk1+9OjRa1Kp9DmNRmNKhgX/w0aHpeZhM8V05rZO+db8PCADYlhY2KXOnTsv6NSp0xZHaTZwOgYOHBiQkpLyYnp6eg+e53sajUYI7w1mGAacRlnzCdI0PnLTJokIEhIy+ZKlsyz+jsQBHVBB04MRB3ANmSkS+oN+gJT4+flB7QuTwyBpvkKyZ12r9MSfsqTaGjdeom4vOswfacKD33me18rl8l+ioqKm79q1y66O0m4PWIUMoPx6NUo0KmTiaKfuggBsuCNHjnzu4MGDbz58+HCiSCSqBsm98GQO/hZkuXiyyJo1jQaSDCQr5CZuNBp1NWrUON65c+dpjRs3vqBQKAwOxol54403fDMyMurcvXs34tGjR+2VSmVbnU5Xw2g0VhKJRHKzsd+U+AvMPUiwcONHUmAmBianAEvtBJAoX19fQSaTsVqtlgHiYOnbgWQFsIR/I8Ehs7ZC/0Du4H8SP8SIJBaUZDh45dip+WKIhsZMNGZQomEnoCu4GUo0KngCaPfugcCsWbMq7dmz541bt26NLSoqaiAIgpSUvDjTCUkkyE0ZN0oswGb25RDEYrGuatWqB1944YVlvXr1Ojh9+nSneN1DSOxff/3lk5GRUamwsLBGYWFhS61W24Tn+bCCggLIMlpTJBL5MwwDPiW8XC4H9XY+z/MGqVRaJBKJNEDKjEYjjAHyhQgGgwHKvUg4jmPFYrGa53lZfn5+Ja1WW1kkEklYloXidoEikcgXwm+NRiML2hQzqWEAG8AFiAn6uQCGZHIna9oh55OM8p/43OMpsL+UxZhONL6+vj/36NFj1vbt2+3uIG3/UdAWbSFAiYYthOj3FAEzAosXLw5OSEjoc+HChTE8z7c3GAxyOJmDkydm/4TTNvokkBEbZIIvJBmkCQZO6+hwKgiCRiaTXYqIiFjUr1+/fzsi9NXWpELir/v370vy8vKk6enpPlevXg3NyckJFgSBq1KlirZWrVqF4eHhBSEhIWqJRALEQ1Cr1SaNho+Pj+lnbm6uqZvQ0FDTz7y8PPbq1as+6enp0FalgoKCYPAR0ev1VRiGqW40GquzLFuDYZgqgiAEazQaPyAgQFSAcAA+qM3ADK4klmQYsq3x2frec6mD640M6wnBnJjzaWh8fHxWtWnTZnZiYqKSFlaztVpd/3tKNFx/jqiELoTAokWLfLZu3Rpx5cqVDx8/fhwlEon8pFKpybQAmyCZvvxZYuMGic6TaKc2m1tAE8DLZLK/mjZtOnfgwIHbFAoFaA0q/GNP73/QosDekpycDD9BQ+RvNBqDVSpV8P3798Pu3bvXPjs7G0KMIziOq2w0GmUQlgumKyAegB1kPCXNKKWpS1PhYLqZAI6iKFaIhtpMND44ePCgS6x7N5sqlxOXEg2XmxIqkKsjABvkn3/++Y/Lly9P1+v1ffV6vT9qI9AvgyQStsZDRmfgtWYfBohGSW7cuPG8tm3bblm5cqVXZUlUKBTS7OzsgEuXLr107dq1qJycnLaCINQH0iEIgh/kN8FT8NOKuUajTSdQR22YtuaZfv+/CDzDdPJTmzZtZlGi4RmrhhINz5hHOgonIwChomlpaU327t07Ky8vr49KpQpiGMbkX4BaDdz8rIlmmVEU7gMTDGhFwB/BnNALnCZ1giCcbtu27Xs9e/Z0hoOok5G03R1E/6SkpPjcvXs3PCMjo/7t27fb3717N7qoqKgWWGrMxfBMSdUwuZrtVukVFYDA/6RXh2fEsu6O0WgE08mPnTt3nr13716n+ChVABZe1SUlGi4x3fSM5RLTUAYhxo4dW+vcuXOv3rp1a2hhYeFLPM9LLcNc8dSGeSTwFI6pl+F3y0gNUrNh9oHY1rlz54XTp08/GxUV5eholDIg4bxbgORdunSpysOHD+vpdLqI27dvd8jNzW0iEolqCoIQYnY0fRrZghlZ0WcGQ2dJiS2jWMhQWueNzPt6gmcFSDU8C0ReFFVAQMB3L7zwwifHjx+3a4Vj70PYNUZMiYZrzAOVwk0RAJ+Fr7/+2jcpKanbuXPnpt+/f78dRFrAcPAlChoOMK3A7yQJIUM8iwuFNV8PPhsF1apVS+rfv//sFStWpLgpXHYXG0hHampq0JUrV55//Phx00ePHnUtLCyMNhqNQDieJiDDjrF4F+ANDrgQnmz5IR1MbeVEsfuAvKBBy0ghMgmc2ddJXb169S86der01ebNm3VeAInHD5ESDY+fYjpAZyCQkJAg/eWXX3qfOXNmRlZWFvgSiH18fEwEAwkFmkPANIKnt+I2MtzsMBqF4zhBr9er6tat+1tsbOzn8+bNu+uMcTm7DyBuBw8e5LKzs8FBVOTv788UFRUJjx8/Fho2bChERkbyxUUhgO/M2bNnQ86dOzckOzv7TUEQmun1erlEIjHVdQHCR+bgIDVK1sgG/I0SDfuvAFJ7hNolMr8Mz/PK5s2bz54zZw4tE29/+CukRUo0KgR22qknIpCQkOCzZcuWnomJiR89fPgwQiqVQmimaai4YWFYJqbvLi7nA76MwW8DiIm/v78pn4RYLL7fvHnzRZGRkau//PLLJ/Gj1j5uZo0DkpCbm+v/4MGDBoWFhQ0YhqlkMBh8wO+FZVkdwzBqQRBypVLprbCwsDsrV67ML27o8fHxPklJSc3T0tLeycvL6y0SiaqIxWIpEAvAHUwpQDxAm0HmM8H24DprtW08cc06ekzFaeowjTw+DyiHOeFdYefOnWdMnjz5x9jYWN7RMtL2HY8AJRqOx9ghPbjZPuIQDFyxUdBsbNq0qdfRo0ffKSgo6M5xnC/USAGygNlE4eVrayPDSBTYFCGEUy6XmzZJnud5Hx+ftAYNGix55ZVXflMoFOWqbmnPcNWyzAfk69izZ0+1a9eutb9//35kfn5+B0EQqkmlUh/QCkGber0eom90HMcV6nS6BwEBAUdbtWq17R//+MeV+fPnF1jTcABxSUtLq5qUlNQmIyPjbYPB0FEulwdzHCeG+YB2AWMkfJbhxp4TJluxbwpbRMOylo7ZdFLYqVOn97t37/6TQqGAkq704+YIUKLh5hNIxXc9BBITE8WrV6+uu3fv3k+zs7MHAjdgWdakvseEXhiRYkujgSnNUcVsNgEYOY5Lb9So0XcdOnT4ddWqVQ9dD4VnSwSRJKtWrQq9cuXKgJycnGidTteOZVlIew4qIFNWUKx4i34UMHadDoJwBI2fn9/twMDAP9u1a7ciLi7u5rMcZIcNG1b5/PnzL9+7d2+EUqnsCvOBfZBSWpsL52cZdbeZLL28pOkE8EVnUCAd5n8/6tChw5Tu3buvp0Sj9Pi64h2UaLjirFCZ3B4BOFGfP3++3alTpxQPHz6MBAdR8NnA2iiYpIjMGGq5qeFpEF6+ZHEys4c+kI2MunXrLp88efI3ji7CZs8J6dOnT2BGRkaXu3fvDissLOwC9WMAH0xeBn1h2CMQM/ygc62ZbAlarVbt7++/rl+/fgs2bdr017NkhGq8f/zxR+Pk5ORXcnJyBhsMhoYQnYL+MxbYm8IwrUWn2BMHb22LdAaFf2OyOtDymYnGg65du7574MCBLTQrqGesEjciGhWrAvSM6aajcCYCoNlYsmRJy+PHj8/KysrqxbGcnOXYp2p7LBiGanz4aY1soJ8HfI+qfnPEBKT+zuzevfsbrVu3Pu6EImzlgg8iRHbs2BGRkpLynk6n62MwGEI4yC/Osk+rs2LxNgx3hA6xtgnmJwEzEtwDpM1oNN6pXr36vI8++mjNuHHjbCY0mzx5suzIkSP/uHbt2nS1Wt2N4ziotWIiFYj/09BWQRCZcqlb/dD3UbkWA3EzmAfhg6ZFnU53p1OnTuMPHz68p3REg86JvebE3u24EdGw99BpexQBxyMAZOO3335rm5CQMLuwsLCbj4+PD7xQYZMkExVZajhI8kGeADEXBJz8zA514Lvw75YtW36ZlJR0oXQvZsePH3sADU9CQkLrv/766yOtVhvl4+PjCxiQ2hqSaFlWYsXNPyAgwJTYLD8/HwmI0sfHZ8Xw4cM/XbZsWYlKigPhSU5OrnfixInYBw8eDOV5vj7DMFLSMZHEHP0ISJksk0zhOIvLh+I8pF2/J9IBF4kz+iCZHXEvRUZGjj548OAZ1x8NlbAkCFCiURKU6DUUgXIgAGRjwYIFLxw/fnxCfn7+cI7jIGX5U80GWYQNuiETTCHhQDMKXou5B+B7g8FQVKVKlX3t2rX7bMSIEZdczVMf6sP89ttvrVJSUr7QaDStIQIEVAiwyWDVWxJey+Jo6KsBBANwKCwsNJ1+gXTwPK+VSCT/euWVV95fs2bNg9JMk0KhkCcmJkZcu3Zt5MOHD/uLxeJaYrEYStmbNEt40iYzvdpyEqVEo2QzgPOO0VigoSPMg9uio6PjNm7cmFGy1uhVro4AJRquPkNUPo9AAE70ly5dev7AgQPf5OXl9eQ4Dk7QDPogkCdkTCpFJpciT/vk6ZnYDFWBgYF7+/fvr6hfv/5lV3Gig6iSNWvWdE9JSZlZWFjY0Wg0SuD0CmYjTNdO5lCwVoEV/TVgM4KNHsJ84W9me75eIpFsffXVV9/77bff7pd2sUDUTWxsbKWjR48OevDgwUeCINQUiURi0mGRJBfkPFkjFZRo/PcMFIcHGeUDd8Bcmn1ijL6+vqChmvP9998/Lu180utdEwFKNFxzXqhUHogARFps3Lix3aFDhz7IycnpwTCMRCwWM2RSKAx9Rc0GEhFrYYIIEVYyNRgMBY0aNVoRExOz8Msvv8yuaAhhE4+Kimp76tSpfwqC0AKiPZBgwJgtiRTKa+mngps75l4ALMCxFsJ+eZ5Xh4aGfjds2LDPS2o6sYbL2LFjIbtrzK1bt+Ig0ZdcLoe8GwyauFCrAbKg0yqWrrdMV/6suaroOXGV/jF8G0kcOvrqdDo+NDT005iYmH+uXLlS5SryUjnKhwAlGuXDj95NESgVAmBGWbRoUYvTp09/lJeX110ikfio1WoT2YANi1Qp40ZsqwPTS5thRbyRN8pkMgh7VcTExGxQKBQVmr557Nix1Tdv3rz48ePHr8KhFceB4YykluZZYb74HZhO0EkUzSg8z19v0aLFrGnTpv1eXpMRaF9++eUXqBQbr9FoevA8H6rValnQwGC/OD+YVRQ3ShoGa2uV/vf3JI7k/Op0Ok39+vVHDR8+fLOrOzeXbsTefTUlGt49/3T0FYAAkI2ff/654/79+6ffu3evu0gkkmOqcSAceFIma6EUJyZsuJjh0hz2yUskkpONGzeeFRMTU2GRKLBpf/7557EPHz6cx/N8bYwoIEkGJsyy1AjAWEmVOxnmSzpsGo1GPiwsbF1MTMyHy5cvt4s9H7RO69ata3Ts2LGJ2dnZI0QiURCctkntC4a9kr411sZQAUvLAV3aP5IDAnwYhn0awgzaIlgf8AzodLqcTp069Tp8+PA5BwyGNllBCFCiUUHA0269GwHY0NauXfviqVOnPsvJyeklFotN6crBHIAmgtLU2UCfBfgpkUggZfehRo0aze/Xr1+is/01zMm4uu3fv/8Lnuf/AWnEsaAcmIIwioNcAdY0AkgwSFMEtmM0GvVyufxkjx493nvppZfO23uMQ4YMCTpx4sTknJyc0VqttqbRaBRjmPETgvFks4QP1WqU/ll+otEQiWQyuSmJnZmICjqdLjUmJqbzli1bSu1vU3op6B3OQoASDWchTftxUQTsf2Ir6UBBs7F06dIuhw4dmp+bm/sPqVTKkc6QQDRK4lzo5+dn6lKlUpmc6oKCgqAIGWTP3Dt48OCJP/30031nhb0KgsCOGTOm9oYNG5ZqtdqeRqNRBpsImB9gQ0HfDNIX5Vl4kY6xmC2U53lBKpXeadq06efR0dGQht0hJqIJEyZU2rVr19CsrKzJarW6oVgs5rBIHjqo4nzZikYp6ZrwtOtsOYNahHjzer3+8oQJE7pRR1DPWgmUaHjWfNLRuBkCUBtlzZo1Lx89evR9tVrdCep7WEZeoD8AuTnjpovDBXML4RQKfxbEYnEhy7K/xMXFzfviiy+ckqb8iy++qPLtt99Oz87OHmM0GoNtmX9wHM+6Ds1DZk2PwLJsVsOGDb+OjY1do1Aochw55dOmTfM7ceJE65SUlA8fP37cTiKR+MHmCJEvoOrHtPJYFRY1M//t6CqIhOIzfzlSfJdtmyQgiJVMJtNqtdo/p02bNvTrr79WuqzwVLBSI+BQolFxZ8VS40BvoAhUGAKQHnv79u09Tp069alKpYqA5FGW0SaWJ0PSrACCo9c+/JuIkBAMBsPtLl26zJgwYcK28jpL2gIIQngTExNfO3369Ocqlaoux3GMLaJB5gfB9q2dgmFThw/DMBqGYf49cuTI+JUrVzpFvQ6moO+//77VpUuX5hQWFvaGdOlkanRSbiQaluGbJuZH2cbTJYRzjH8w50opCg4OXjZhwoSPqSOorafNvb53KNFwLyiotBSBikMAyMamTZuiL1++HKfRaNoJgmBS08OHrHCJG7el/wKq8uF6vA/Ih6+vr1oul//evn37mdu2bUtz5AiHDx9ec/v27b8YDIZOPM+byrLb8jMhN19rBAP9VcxOoDzHcae7dOkyq2vXroft7ZfxLGyAbHz77bcvXLp06ROlUtmTZdkAg8FgIlIY8oqmLpJsUHJhHVWca9IfSSqV5rZo0WL6yZMnVztyndK2nY8AJRrOx5z2SBGwigCQjVWrVr189erVr0UiUX29Xm9yosTNmnSKtCQamJcAczyQWg6DwQC5Jpb369fvm59//jnTEf4a77//fuXNmzdPTk9P/0AsFovBjIMZNkWmiiHWXzXFEQ3UCBDRCDCkB02aNPnw008//TU2NtYhfhm2lmb37t3rHjp0KF6v1w+HiBSo/2Z5D5oCiktTbk0DYqtfT/ue1GjAWjEajQLDMOkDBw4c969//WuPp43X28dDiYa3rwA6fpdCYOLEif67d++e/uDBg4kqlSoUEnqhKYTcoDDE0lIFDddYqu/FYrHA83xm3bp1F44ePXrtrFmz8u05aDCZbN68OSYlJeVzhmEaQXpx8F3A8u7P6oskT2Q6coyiAZNJQUEBmEz0NWvW3PrGG29MnTdv3l17yl+atmCsf/75Z80rV668m5+fP1IsFlfheZ5F/xjEH+YMs11Sh9H/RZhctzDHBoMBfG8uTJgwYczSpUvPlmZO6LWujwAlGq4/R64lIXW8cfh8jB8/vkZiYuL4tLS0MSzLVtXpdAx58iermeLfnxUeahYYzA5pLVq0+HDGjBmb7eWvAdk/hw4dWnfXrl3LNRpNd4ZhoCCrSQtTGqIBGw+OC/4NmzRs3rAJPXr0iA8MDDzRt2/f+N9+++2MIzQypZ3U119/vdKxY8deu3fv3lSdTldPJpOZtE/guwFzAUQDnFixWB5oZsj/n9mfFzxjSDQwRwlkBK1cuXLCzJkz35s+fXpWaeeDXu/aCFCi4drzQ6XzQgRg854wYULtpKSkiRkZGe/odLpgsggbbsiwmaO2ozhfAHMSL1OYrFwu1/n7+++Njo6eUbNmzevWfRxKt8stXbo08Ntvv514586dmRBlAhstJh+DqbPlo4EaDfQxwd+xXLxSqQQ/k5vNmjVbMGXKlPWxsbFqV1kSo0aNCjh48ODA1NTUDxmGqcdxnATGiwXCzCaB/yIYNAz2yewh0cDqvTzPa5o1azZv4sSJi8aNG1eK1OOlW6+usna8TQ5KNLxtxul43QIBIBvvvPNOrU2bNs3WaDTDDQaDP/lyxgyZtjZycrCQb0OtVheFhYX90r9//3nljdpYvXq1fNOmTa8kJiZ+Bqd6MPNgVtOSaDNww8HU65gQC3NtgMlHq9Wqateu/eHQoUN/mT9/vssV2VIoFNItW7Z0unfv3lsajaY/kEKpVGoyd6EGgzSdkPNBmo1cd1E6ZiMnnUEBH4lEkhMZGTmsffv2B5zp5Ou6uHuWZJRoeNZ80tF4EAJANnr37t3s9OnTs5RK5SBIVQ4nQMjhYA4HNFVBJSNRYPjWoh7QXwBs4VKpNLNy5cpfjhkz5sfyhBEOGTKk5e7du7/W6XQd9Xq9BLUQIAPIZS0E1HJ6cMMBggL3wE80vUD2z8qVK+/u2bPnuLJUZnXWUjAXy6t59OjR2VlZWcMh1wYUZMP+gXRYOvICUSSdfC3njfzdWeOoiH7Mmiyjj4/P9ZEjR/b49ttv71WEHLRPxyJAiYZj8aWtUwTKhQBsYjt37vxHYmLisrt377ZkWdaUChvIRnGbtrVIDoxKMZta9D4+PinDhg3r+/PPP5fpxT558uTAP/74Y86dO3cmC4IgB204+lWgtgWIhqUjqzUwQDbwZ4D7ILspfCQSicmBtV+/fnPeeOMNMJk8ifV10Y+53HzDnTt3TlcqlYNFIlEghtqgkyuSKsSENGvZIhb/RVSATJqieNwvCxhiQPpogNkkODh458KFC98aPXp0oYtOMRWrHAhQolEO8OitFAFnIABkY9OmTb327dv3UX5+fmuZTMbBZoWhrM+KPAH5SL8HwtSib968+cf9+vVbXdqsoQsXLvTbuHFj9NmzZxcwDFMTTR7YF4Z3oowkRs+S1VxUCx1BC8PDw1ePGjXqizlz5jglq6k95nLQoEHBp06dGpOVlTVaJBLVFovFpoJ5UMMGNDZILqAv+DeZe8MTc25Ym28MXTZ/B2zpYfXq1T8YPXr0L9RsYo9V6HptUKLhenNCJaII/A8C3333nX9CQkLP48ePLwB/CIlEwmLaa8s03pgECU0quPFj5VR4wUO9kICAgGutW7deOGjQoPVxcXHaksLet2/fLidPnvw4Nze3i0wmk2D7sJGivwW0ZVZ1zuQAABUrSURBVJkV1HLTsXQEhfvNH2NAQMChN998M27ZsmXJDMMYSyqbK1zXp0+fwGPHjvXMz88fLxaLO4rFYh8gXajJwPmxRSyK+97VfTuskQvU2FiQDFiHYDY51rJly3ePHDly0RXmj8pgfwQo0bA/prRFioBDEABNwvr16989f/78VKlUCvkbnoa9osMhahXIzQhPzmQiKbO2Qf/cc8+d79q164Rff/31vK2wUTAP/H3qrLNr165vs7KyenAcJ2ZZlkF/AyAKGJoKP6EPsjCcJSikpgXNLXK5HNKmp3bs2PHjjz/+OCEqKsrgEDAd3KhCoRBv3779+Rs3biiUSmUflmWDOY5jESPQAlnLj2IpVgnClosZScWYVp5FMlBQ0nwiFouVfn5+S9566615ixcvdpmIIgcvD69rnhINd5/yinmfuDtqbiv/uHHjGmzatGlhfn5+X4ZhJPDSLi5kEjUd5MsfNi4kHmZv/6L69ev/MzY29muFQlH0LGAWL14c/PPPP4+/fPnybPBBAL8KS9U/9IUpua2ZTqxtpGhOMIftFgUEBKydMmXK5wqF4oHbTpRZ8MjIyPpnz559u7Cw8C2WZcOMRiMLGKHzq6WTKJ78kTCSvxf3N1fByNL/wlJ2a3KCr1BYWNiM+fPn73Z1PxxXwdkd5Xg20aCbmDvOKZXZgxFYsWKFZPv27S8nJSV9WlRU1AJMKKRzIQyd/B3rjWDiKNIp1OwTIcjl8itdunR579VXXz08btw4vTX4du7cKVu2bNmgkydPfpiXl9cUoipgsyTzeKBaHDcY0oyCbVqe0DF6xqzR0Eul0uPt27efM3bs2OOesPGYnUQrHT58uH9ubu4EvV7flOM4fwyBRU0U/MSN2loUEeKGjqWumI/DkmggCbY0lxBrwOjn57eha9eu7/3+++8OrcLrwa8Etxga1Wi4xTRRISkC/0EgISHBZ9GiRbHnz5//mGGY2nq9noOXOVY4xZBXIAKwMYEjImgfkBRgfgf4Hu7T6XSaSpUqbe/Ro8eXCQkJFy1NKOCMunfv3g5r1679TqfTNfXx8WEh6gU3FmvqfUzAhZumtQym8DeQGXxNOI4zchx3NSoq6v2ZM2fud1eTSXHrFEwpCQkJje7cufOOWq0exjBMVSBrcrn8qUYKtRugJUKSRhIRaNuSaNjy83Dmc0MSTXJtkESD+LtREIT8unXrjp47d+52TyCVzsTa3fqiRMPdZozKSxH4GwGFQhGybt26+Js3b06Qy+Uh4K/h6+trMmUA0fiPYyUjYtkn5gzUNOBpGE/RLMsKgiAUBgYGrpo3b94nkyZNempCgRP51KlTw7ds2fJJRkbG20ajUQz9QBjqs4qGkRsN1i0xkxqTHGAuMRMM0+ap1+vzWrVq9d3IkSO/iouLK/DESQYsX3/99ao7d+58Oz8//x2JRFLbx8eHKyoqMvnaIJ6AB/q9IOEgtR3W8qQUpzGqCBxRa4bECUknEF4YI8w9kFu5XL43MjJy0q5duzIrQk7ap/MQoETDeVjTnpyEgDdY/GDTevfdd2vt3Lkz7s6dO+NZlvW1zM+AKbAxDBbht4x6MG/6kMjr9pAhQ8bGx8cfatWqlcmE8tVXX4Vt2LBh0tWrV8dpNJoqmPgLviOJw/9MLcOYMj2gAyqeatGnA30UzN/zYWFhm4cNGzb3b01Nii2nVCctI4d1M2TIEGlycnLTtLS0cVqtFurD1JRKpTKYU9QUod8KkaLbpOWwNENYRva4goYDiRIACPJhtBOsT7MJD7RXN59//vnpI0aM+IOGtDpsqblMw5RouMxUuLMg3rC1u978gEnjl19+aZKUlPSD0WhszbKsFF7mkP4bHQ5Baoz+gH+TmwASENj0zcXAVM8///yvI0aMWDB37tzbK1as8N2+fXvM/v37P9JqtfWlUimL9VVIJ0ZryOAJHB1PoQ+UhSikBRuRUSKRpHbv3n383LlznxIc10PbvhKhduPkyZOdsrOz31Yqla1FIlFlmCIkczCPSNSwdyQaaFIhHX1dRauB84tkFP2D8HeNRqOuUaPG3IEDB37//fffu1xaefvONG3NNO8UhopFgG7RFYu/u/cOZcv3798/8NSpUx/JZLLmIpGIg7Lq4PuAIZRoKkH7Pp40kWjgifNJ9nIhs2PHjivatGmz4/jx4y0zMjLezczMjIDK7wEBAaaS7Xi95WmaxNLSfwO1K0BU0DfEYDBAfowrzZs3/yY6Onq9QqHQuPt8lFZ+mL8zZ85UP378eFReXt7rPM+3EYlEQRKJRIwEkHT8tDShWCMaIENFaTZAHiz6ZykD1K4xGAxFLMvu7tWr10TqAFra1eK+11Oi4b5zRyWnCJgQgAqqP/zww0ioIqrX66tJpFLYaZ76aRC+GKbr0dkQtRKkOh4SKIWEhKT7+fmdv3//fkOe5xtIJBIpbl6g+UDHUrivuBTjlkSDzIgpk0pFvNEIp/VH4eHhC4YNG/bTl19+mevN0zl27FjJlStXaqWmpg7Kzc2N0ev1rczhy09zpaBGgHS6tFVUz9mEAzVmpMaLyPGil8lkeyMiIuadOnXquDfPt7eNnRINb5txOl6PROCDDz6ovnbtWkVmZubw4OBg34KCAgZOwqhJINXqqIlA+z9pRzc7JRp5ntf7+fmJlUolGxQUZNrs8vLyTCQDyMaztBm4IcJP7AO1K/i7Xq/XValS5cCAAQMmr1q16i9P98so6aIbO3as7/Hjx+s9fPgwRqPRdFKpVE1FIlEVhmE4MLegFop0CH1W2xVFNFBrZjaZCTqdTpBIJHcaNmwYN3bs2D9Lk4m2pNjR61wXAUo0XHdunCcZtd/YDWvYDCpq03zttdea7Nu3b7pKpXpFrVYHQ1l4IARIDPCUCX9DFTcMHLQSSCDwtAwnU39/f5OpxMfHx3QN+AwEBgaKlEol/C5AVtDiTtTWNBoYWaHT6YyBgYHXIiMjFfHx8Vs9LZTVHotp8uTJstu3b1c+duxYL4PB0EulUr1kMBhqQgVfMHlzHGfKyGqraJ2ziQauK9IBmeM43mAw3H/++ecXRkZGrlyzZo3XmcjssSbcuQ1KNNx59qjsFAECAXAO3bNnT5Pt27d/VFBQEC0Wi2UY7grkAn00SHKA5AOTb2E4JfwOxAIICPwNwmUhrBU0ExCmCOQFfQisTQISDWwfQzeBhAmCcP+ll17657Rp01YPHz6cOgM+YxUnJCRIL1y4EHrlypUGV69efenevXsdVSpVW0EQQoF0gKbDfLvVd3lFEA2y9g7DMDqWZTP/Tpn/Xdu2bdcePHiQJubywrdW8UTDbU65biOoFy4vOuSKQCAqKqrljRs3Vt29execQ03POFnnxJy34mlV12fJaKmZKMt4gJAAueE4TtDr9Y9efPHFz/r27bv6q6++oiXBSwkoaDqKiooCs7Kyal28eLF/Xl5ei6KioiYikSgMoo5YlhUD+TAYDKBZMxFDIIVoxsJkbehLgSGncC367qAzZ3FF8cgwW7gfzGHwgfsxZ4YgCLzRaMznef5Yw4YNP4uMjLywcuVKq1lnSwkBvdwNEaAaDTecNCoyReBZCCxYsCBg48aN08+fPz/pb1/RENw4cCPBTceW2h2usxXGamsmkKiYtR+awMDA3dHR0TPXrl17w9a99PviEQAT3aRJk/wePXpUOSsrq2F+fn7dnJycBtnZ2R3UanUDQRACxWIxB4ncxGIx/G8iHGSuFSAM8Hf4HxOEwTW4TqxEjZjWAxIX+DdouSD3B5ISIJMSiUTFcVwWx3Fratas+a+mTZte27x5M++q81mSo2pJrnHV8bmCXJRouMIsVKAMFelTUIHD9uiuYU7HjBnT+I8//vgwOzs7FkJTLbJwmsJfibLsDsMD+jGHtIJDYHLnzp0/iIqK2qVQKNyyKqvDgCpHwzDfmzdvZg8ePOhz+/btag8fPgzPy8t7UaPRNGZZtsajR49qqtXqyhzHgbnFF7K7AoeEjLAGg4HFrklSSWgmnobKWqZDN5vDBLhfIpFAEi6lXq+/7uvrmxQeHr6zevXqpw8ePPjMQn3lGDa91YyAO7zDKdGgy7XcCFC2X24I7d5AYmKi+Lvvvmuzffv25YIgNNXr9Sb9NkkwLJNB2V2IJxsQEA3YjIqqVKnyZXx8/PJZs2blO6Iv2uZ/EIDNZ82aNbJLly75Xrhwofrde/fqqVWq+hD+rFKpahqNxnCxWFxJLBaHqlQqX61WK2dZVgI1Z6DCLBAQ+PlEqcWYNBlmrYUgFot5hmEgMgn+DnkxsiQSSYrRaDwnlUr3t2vX7vKePXtUFeUUTdeB6yFAiYbrzQmVyCYClNrYhOhJfg3ZkiVLJqWnp0+VSqXhKpXK6c+7XC4HTYY2NDR0Z2RkZHxCQkIG3YBKMnv2vQaIx9mzZ8WHDh0SZ2dn++bk5IRqNJrA7OzsoPT09Np37txpqlQqa3Ac5wPp7EUiUbBZ+yHned6U1lUsFitlMlkBy7JFWq02X6fTPfDz8ztZp06dm3Xr1k2rXbt27tKlS3V0fu07d57QmtNfPJ4AGh0DRcBdEBg/fnyN1atXf6zX69+CxFuYnhxt9o4eB8uyBrlcntijR4+527dvP+To/mj7ZUNgxYoVEqlUyuXk5IBKg01LSxMXFRVJHj9+LH/8+HGA0WjkGzVqlBcWFqatVKmSoWrVqvo7d+4YqAmsbHh7212UaHjbjNPxehUCYEJ59913eyQnJ//MMEx1TJxVXidPALEkbTAMkxMRETF7ypQpm0aPHk2jTLxq9dHBUgSeIECJBl0JFAEPRwCyTe7du3d6Wlrau1KpNFSn00HCJ5OTn60Mn8VBU4KwV/DLyKlTp86y/v37f7Ns2TKPLP1eIUuHWg4rBHbaadkRoESj7NjROysEAfqWLQvsr776aoPdu3d/rlKpBnEcJ8P8BxjuiA5/RF0Km92gRoMsaU4UAAOTyc5XXnll2vr162/abIxeQBGgCHgsApRoeOzU0oFRBP6DAJhQ5s+f3/nPP//8p0wmayaRSJ5WeYWrMJFTSYkGEhOIYoFMoWTRNCgeKhKJ7nft2vXDqKiodQqFQkfngiJAEfBeBCjR8N65pyP3MgQUCoV88+bNI27duvWJIAjh4PSHKcfhJ5nQy5b/BaYzBxMM5OOAGigqlcpEWGQymdrf33/diBEjFIsXL77rZTCbLdKm9BL0QxGgCFAfDboGKALehcDEiRPDdu/ePTM1NfUtlmWDscIrlnxHnw1bPhiYwhp+wgdJCkQnyOXyc127dn2/ffv2RxUKhdG7EKaj9ToEqDXX5pRTjYZNiOgFFAHPQQDyKcTGxjZMTEz6JC/v0auCIEghqRZWAi1ptlCSaAApgfvMJeCvhoeHzx81alSCQqGgVTo9Z+l4x0goaXDIPFOi4RBYaaMUAddFAKq8/t///V+7HTt2rNdqtZCkicPMj+AcijUuijOfoH8Gfo/Fu3Q6nTI8PHxh3759f1i1atVD10WASkYRoAg4EwFKNJyJNu2LIuAiCCQkJPh89NFHn92+fXuMwWAINBqNUPvCJB1pPiFJB3xHVu6E34k05hqWZY/16tVrzB9//JFa1mG6Q92Gso6N3kcR8FYEKNHw1pmn4/Z6BCZMmNBsw4YNi5RKZZRer2dRM2FZ1RX9NSwBw+sh5bRUKr3RrFmzuW+++eamcePG0XLgXr+6KAAUgf8gQImGXVYDNezZBUbaiFMRSEhIkH711VcDzpw5M18kEtWDcuIY5grRJPBvzCRqLvNukg9DWSG01azRyK1Xr94PY8aMWTR16tRHTh0E7Ywi4E0IuOlWQ4mGNy1SOlaKgAUCkydPDvz999/npKWlTeQ4zh9NJ5Z+GkAoMMcGEA3004CAk+Dg4D/69u07c/Xq1dc9q6CWm77V6SqnCLgYApRouNiEUHEoAs5EAHwihg4d2nbPnj3f5OXltZJIJKbcGvDBkFfUauDf4O9mDQdceDcyMnLq+PHjt8TGxvLOlJ32ZYEA5UV0SbgoApRouOjEULEoAs5CYNGiRT7bt28fd+z48Tksw1QGoiGXy0V6vd6U9RO0GZgnAxN1mf02skNDQ1dMmDDhG4VCkeMseWk/FAGKgHshQImGe80XlZYiYHcEQKvx/vvvN/jXv/71zzt37vRlGIYF/wsoKQ9mEiAZ6KMBBMOcc4MPDAxc16dPn882btyY6lkmE7tDXOYGaRROmaGjN7oQApRoVNhkUD1nhUFPO/4fBKAWyvLly3ts3bp1FZSTh8hV9MMAwuHj42PSbpjNKrxMJkt58cUXx5w9e/ZkmeGkj0CZoaM3OhcBulTLhzclGuXDj95NEfAYBL766quwH374YW5qauowkUjkC74ZoNEAEwppPpFKpfebNm26vGfPnt989dVXhR4DAB0IRYAiUGIESkO+KNEoMaz0QoqAZyMAGUO3bt3aaceOHZ9pNJrO4A+KkSZgPgGywXGcISgoaOMrr7zy+cqVK29Sk4lnrwk6OoqAPRCgRMMeKNI2KAIeggBkDP3yyy9fv3Llyj9FIlEQ5NLA6BOWZbUhISHHmjVrNmv8+PFnaZSJh0w6HQZFwMEIUKLhYIBp8xQBd0PgnXfeqblly5Z1+fn5HXieF5uLrhk5jrvctGnTj6ZPn76Tkgx3m1UqL0Wg4hCgRKPisKc9UwRcEgGIdHjhhRdmXL16dQ7HcQEsywp6vT73ueee+3j06NG/KhSKIpcUnApFEaAIuCQClGi45LR4llA0RM/95nPYsGFdd+7c+Y1SqYwwGAyGsLCwrYMHD566bNmy+9Qvw/3mk0pMEahIBCjRqEj0ad8UARdF4LvvvvPfuHHjxMOHDw8PCgpKHj169IJFixZddFFxPVosStQ9enq9YnCUaHjFNNNBUgRKhwBsbnPmzAlLSEiI6NChQ1r//v3/on4ZpcOQXk0RoAg8QYASDboSKAIUAasIANnYvHkzO2TIECM1l9BFQhGgCJQVAUo0yoocvY8iQBGgCFAEKAIUAZsIUKJhEyJ6AUWAIkARoAi4BQKlSVfpFgPyDCEp0fCMeaSjoAhQBCgCFAGKgEsiQImGS04LFYoiQBGgCFAEnIEAjepxPMqUaDgeY9qDByJANbQeOKl0SBQBioBDEKBEwyGw0kYpAhQBigBFgCJAEQAEKNGg64AiQBGgCFAEKAIUAYchQImGw6ClDVMEyooANcyUFTl6H0WAIuB6CFCi4XpzQiWiCFAEKAIUAYqAxyDw/7l7JR/By8vXAAAAAElFTkSuQmCC;" vertex="1" parent="L06JyuytahHHtOBjtd7x-132">
          <mxGeometry x="49.5" y="58.48000000000002" width="98" height="84.52" as="geometry" />
        </mxCell>
      </root>
    </mxGraphModel>
  </diagram>
</mxfile>
